<svg width="346" height="165" viewBox="0 0 346 165" fill="none" xmlns="http://www.w3.org/2000/svg">
<path d="M103.175 14.6826H99.3193L98.5127 17H96.7148L100.475 7.04688H102.026L105.793 17H103.988L103.175 14.6826ZM99.8047 13.2881H102.689L101.247 9.15918L99.8047 13.2881ZM110.913 14.9902C110.913 14.694 110.79 14.4684 110.544 14.3135C110.302 14.1585 109.899 14.0218 109.334 13.9033C108.769 13.7848 108.297 13.6344 107.919 13.4521C107.09 13.0511 106.675 12.4701 106.675 11.709C106.675 11.071 106.944 10.5378 107.481 10.1094C108.019 9.68099 108.703 9.4668 109.532 9.4668C110.416 9.4668 111.13 9.68555 111.672 10.123C112.219 10.5605 112.492 11.1279 112.492 11.8252H110.831C110.831 11.5062 110.713 11.2419 110.476 11.0322C110.239 10.818 109.924 10.7109 109.532 10.7109C109.168 10.7109 108.869 10.7952 108.637 10.9639C108.409 11.1325 108.295 11.3581 108.295 11.6406C108.295 11.8958 108.402 12.0941 108.616 12.2354C108.83 12.3766 109.263 12.5202 109.915 12.666C110.567 12.8073 111.077 12.9782 111.446 13.1787C111.82 13.3747 112.096 13.6117 112.273 13.8896C112.456 14.1676 112.547 14.5049 112.547 14.9014C112.547 15.5667 112.271 16.1068 111.72 16.5215C111.168 16.9316 110.446 17.1367 109.553 17.1367C108.947 17.1367 108.407 17.0273 107.933 16.8086C107.459 16.5898 107.09 16.2891 106.825 15.9062C106.561 15.5234 106.429 15.111 106.429 14.6689H108.042C108.065 15.0609 108.213 15.3639 108.486 15.5781C108.76 15.7878 109.122 15.8926 109.573 15.8926C110.011 15.8926 110.343 15.8105 110.571 15.6465C110.799 15.4779 110.913 15.2591 110.913 14.9902ZM118.146 14.9902C118.146 14.694 118.022 14.4684 117.776 14.3135C117.535 14.1585 117.132 14.0218 116.566 13.9033C116.001 13.7848 115.53 13.6344 115.151 13.4521C114.322 13.0511 113.907 12.4701 113.907 11.709C113.907 11.071 114.176 10.5378 114.714 10.1094C115.252 9.68099 115.935 9.4668 116.765 9.4668C117.649 9.4668 118.362 9.68555 118.904 10.123C119.451 10.5605 119.725 11.1279 119.725 11.8252H118.063C118.063 11.5062 117.945 11.2419 117.708 11.0322C117.471 10.818 117.157 10.7109 116.765 10.7109C116.4 10.7109 116.102 10.7952 115.869 10.9639C115.641 11.1325 115.527 11.3581 115.527 11.6406C115.527 11.8958 115.634 12.0941 115.849 12.2354C116.063 12.3766 116.496 12.5202 117.147 12.666C117.799 12.8073 118.31 12.9782 118.679 13.1787C119.052 13.3747 119.328 13.6117 119.506 13.8896C119.688 14.1676 119.779 14.5049 119.779 14.9014C119.779 15.5667 119.504 16.1068 118.952 16.5215C118.401 16.9316 117.678 17.1367 116.785 17.1367C116.179 17.1367 115.639 17.0273 115.165 16.8086C114.691 16.5898 114.322 16.2891 114.058 15.9062C113.793 15.5234 113.661 15.111 113.661 14.6689H115.274C115.297 15.0609 115.445 15.3639 115.719 15.5781C115.992 15.7878 116.354 15.8926 116.806 15.8926C117.243 15.8926 117.576 15.8105 117.804 15.6465C118.032 15.4779 118.146 15.2591 118.146 14.9902ZM122.999 17H121.338V9.60352H122.999V17ZM121.235 7.68262C121.235 7.42741 121.315 7.21549 121.475 7.04688C121.639 6.87826 121.871 6.79395 122.172 6.79395C122.473 6.79395 122.705 6.87826 122.869 7.04688C123.033 7.21549 123.115 7.42741 123.115 7.68262C123.115 7.93327 123.033 8.1429 122.869 8.31152C122.705 8.47559 122.473 8.55762 122.172 8.55762C121.871 8.55762 121.639 8.47559 121.475 8.31152C121.315 8.1429 121.235 7.93327 121.235 7.68262ZM128.96 14.9902C128.96 14.694 128.837 14.4684 128.591 14.3135C128.349 14.1585 127.946 14.0218 127.381 13.9033C126.816 13.7848 126.344 13.6344 125.966 13.4521C125.136 13.0511 124.722 12.4701 124.722 11.709C124.722 11.071 124.991 10.5378 125.528 10.1094C126.066 9.68099 126.75 9.4668 127.579 9.4668C128.463 9.4668 129.176 9.68555 129.719 10.123C130.266 10.5605 130.539 11.1279 130.539 11.8252H128.878C128.878 11.5062 128.759 11.2419 128.522 11.0322C128.285 10.818 127.971 10.7109 127.579 10.7109C127.215 10.7109 126.916 10.7952 126.684 10.9639C126.456 11.1325 126.342 11.3581 126.342 11.6406C126.342 11.8958 126.449 12.0941 126.663 12.2354C126.877 12.3766 127.31 12.5202 127.962 12.666C128.614 12.8073 129.124 12.9782 129.493 13.1787C129.867 13.3747 130.143 13.6117 130.32 13.8896C130.503 14.1676 130.594 14.5049 130.594 14.9014C130.594 15.5667 130.318 16.1068 129.767 16.5215C129.215 16.9316 128.493 17.1367 127.6 17.1367C126.993 17.1367 126.453 17.0273 125.979 16.8086C125.506 16.5898 125.136 16.2891 124.872 15.9062C124.608 15.5234 124.476 15.111 124.476 14.6689H126.089C126.112 15.0609 126.26 15.3639 126.533 15.5781C126.807 15.7878 127.169 15.8926 127.62 15.8926C128.058 15.8926 128.39 15.8105 128.618 15.6465C128.846 15.4779 128.96 15.2591 128.96 14.9902ZM134.128 7.80566V9.60352H135.434V10.834H134.128V14.9629C134.128 15.2454 134.183 15.4505 134.292 15.5781C134.406 15.7012 134.606 15.7627 134.894 15.7627C135.085 15.7627 135.279 15.7399 135.475 15.6943V16.9795C135.096 17.0843 134.732 17.1367 134.381 17.1367C133.105 17.1367 132.467 16.4326 132.467 15.0244V10.834H131.25V9.60352H132.467V7.80566H134.128ZM142.598 7.04688L145.469 14.6758L148.333 7.04688H150.568V17H148.846V13.7188L149.017 9.33008L146.077 17H144.84L141.907 9.33691L142.078 13.7188V17H140.355V7.04688H142.598ZM152.147 13.2334C152.147 12.5088 152.291 11.8571 152.578 11.2783C152.865 10.695 153.269 10.2484 153.788 9.93848C154.308 9.62402 154.905 9.4668 155.579 9.4668C156.577 9.4668 157.386 9.78809 158.006 10.4307C158.63 11.0732 158.967 11.9255 159.018 12.9873L159.024 13.377C159.024 14.1061 158.883 14.7578 158.601 15.332C158.323 15.9062 157.922 16.3506 157.397 16.665C156.878 16.9795 156.276 17.1367 155.593 17.1367C154.549 17.1367 153.713 16.7904 153.084 16.0977C152.46 15.4004 152.147 14.473 152.147 13.3154V13.2334ZM153.809 13.377C153.809 14.138 153.966 14.735 154.28 15.168C154.595 15.5964 155.032 15.8105 155.593 15.8105C156.153 15.8105 156.589 15.5918 156.898 15.1543C157.213 14.7168 157.37 14.0765 157.37 13.2334C157.37 12.486 157.208 11.8936 156.885 11.4561C156.566 11.0186 156.131 10.7998 155.579 10.7998C155.037 10.7998 154.606 11.0163 154.287 11.4492C153.968 11.8776 153.809 12.5202 153.809 13.377ZM160.118 13.2471C160.118 12.1077 160.382 11.194 160.911 10.5059C161.44 9.81315 162.148 9.4668 163.037 9.4668C163.821 9.4668 164.454 9.74023 164.938 10.2871V6.5H166.599V17H165.095L165.013 16.2344C164.516 16.8359 163.853 17.1367 163.023 17.1367C162.158 17.1367 161.456 16.7881 160.918 16.0908C160.385 15.3936 160.118 14.4456 160.118 13.2471ZM161.779 13.3906C161.779 14.1426 161.923 14.7305 162.21 15.1543C162.502 15.5736 162.914 15.7832 163.447 15.7832C164.126 15.7832 164.623 15.4801 164.938 14.874V11.7158C164.632 11.1234 164.14 10.8271 163.461 10.8271C162.923 10.8271 162.508 11.0413 162.217 11.4697C161.925 11.8936 161.779 12.5339 161.779 13.3906ZM171.589 17.1367C170.536 17.1367 169.682 16.8063 169.025 16.1455C168.374 15.4801 168.048 14.596 168.048 13.4932V13.2881C168.048 12.5498 168.189 11.8913 168.472 11.3125C168.759 10.7292 169.16 10.2757 169.675 9.95215C170.19 9.62858 170.764 9.4668 171.397 9.4668C172.405 9.4668 173.182 9.78809 173.729 10.4307C174.28 11.0732 174.556 11.9824 174.556 13.1582V13.8281H169.723C169.773 14.4388 169.976 14.9219 170.331 15.2773C170.691 15.6328 171.142 15.8105 171.685 15.8105C172.446 15.8105 173.065 15.5029 173.544 14.8877L174.439 15.7422C174.143 16.1842 173.747 16.5283 173.25 16.7744C172.758 17.016 172.204 17.1367 171.589 17.1367ZM171.391 10.7998C170.935 10.7998 170.566 10.9593 170.283 11.2783C170.005 11.5973 169.827 12.0417 169.75 12.6113H172.915V12.4883C172.879 11.9323 172.73 11.513 172.471 11.2305C172.211 10.9434 171.851 10.7998 171.391 10.7998Z" fill="#4D56DB"/>
<rect x="185" width="65" height="24" rx="3" fill="#4D56DB"/>
<rect x="188" y="3" width="24" height="18" rx="3" fill="white"/>
<path d="M230.289 12.249C230.289 13.2288 230.116 14.0879 229.77 14.8262C229.423 15.5645 228.926 16.1341 228.279 16.5352C227.637 16.9362 226.898 17.1367 226.064 17.1367C225.24 17.1367 224.504 16.9385 223.856 16.542C223.209 16.1455 222.708 15.5804 222.353 14.8467C221.997 14.1084 221.817 13.2607 221.812 12.3037V11.8115C221.812 10.8317 221.988 9.97038 222.339 9.22754C222.694 8.48014 223.193 7.9082 223.836 7.51172C224.483 7.11068 225.221 6.91016 226.051 6.91016C226.88 6.91016 227.616 7.11068 228.259 7.51172C228.906 7.9082 229.405 8.48014 229.756 9.22754C230.111 9.97038 230.289 10.8294 230.289 11.8047V12.249ZM228.211 11.7979C228.211 10.7542 228.024 9.96126 227.65 9.41895C227.277 8.87663 226.743 8.60547 226.051 8.60547C225.363 8.60547 224.832 8.87435 224.458 9.41211C224.084 9.94531 223.895 10.7292 223.891 11.7637V12.249C223.891 13.2653 224.077 14.0537 224.451 14.6143C224.825 15.1748 225.363 15.4551 226.064 15.4551C226.753 15.4551 227.281 15.1862 227.65 14.6484C228.02 14.1061 228.206 13.3177 228.211 12.2832V11.7979ZM239.873 17H237.822L233.83 10.4512V17H231.779V7.04688H233.83L237.829 13.6094V7.04688H239.873V17Z" fill="#FAFAFA"/>
<rect y="34" width="346" height="74" rx="4" fill="#DBDDF8"/>
<path d="M10.8271 62.1387L12.3652 61.9473V54.4893L10.7998 54.5166V53.6758L13.7119 53.0469V61.9473L15.2432 62.1387V63H10.8271V62.1387ZM18.1074 63H16.7607V61.6191H18.1074V63ZM30.3232 55.9863H29.3047L29.0518 54.5645C28.8467 54.3913 28.5732 54.2477 28.2314 54.1338C27.8896 54.0199 27.4932 53.9629 27.042 53.9629C26.3265 53.9629 25.7773 54.1156 25.3945 54.4209C25.0117 54.7217 24.8203 55.1159 24.8203 55.6035C24.8203 56.0365 25.014 56.3988 25.4014 56.6904C25.7933 56.9775 26.4245 57.2305 27.2949 57.4492C28.3431 57.709 29.1383 58.0918 29.6807 58.5977C30.2275 59.1035 30.501 59.7301 30.501 60.4775C30.501 61.2796 30.1729 61.9245 29.5166 62.4121C28.8649 62.8997 28.0104 63.1436 26.9531 63.1436C26.1875 63.1436 25.5062 63.0182 24.9092 62.7676C24.3167 62.5169 23.8337 62.1888 23.46 61.7832V59.9307H24.4717L24.7314 61.3594C24.9912 61.5736 25.3011 61.749 25.6611 61.8857C26.0212 62.0225 26.4518 62.0908 26.9531 62.0908C27.6322 62.0908 28.1676 61.9473 28.5596 61.6602C28.9561 61.373 29.1543 60.9834 29.1543 60.4912C29.1543 60.0355 28.9834 59.6549 28.6416 59.3496C28.2998 59.0397 27.696 58.7799 26.8301 58.5703C25.7773 58.3197 24.9548 57.9505 24.3623 57.4629C23.7699 56.9753 23.4736 56.3623 23.4736 55.624C23.4736 54.8447 23.804 54.1976 24.4648 53.6826C25.1257 53.1631 25.9847 52.9033 27.042 52.9033C27.7393 52.9033 28.3727 53.0241 28.9424 53.2656C29.5166 53.5026 29.9769 53.792 30.3232 54.1338V55.9863ZM34.124 53.8193V55.6035H35.5254V56.6016H34.124V61.0928C34.124 61.4391 34.1947 61.6829 34.3359 61.8242C34.4818 61.9655 34.6732 62.0361 34.9102 62.0361C35.0286 62.0361 35.1608 62.027 35.3066 62.0088C35.457 61.986 35.5824 61.9632 35.6826 61.9404L35.8672 62.8633C35.7396 62.9453 35.5527 63.0114 35.3066 63.0615C35.0605 63.1162 34.8145 63.1436 34.5684 63.1436C34.0215 63.1436 33.5863 62.9795 33.2627 62.6514C32.9391 62.3187 32.7773 61.7992 32.7773 61.0928V56.6016H31.6084V55.6035H32.7773V53.8193H34.124ZM41.7256 63C41.6846 62.7995 41.6527 62.6195 41.6299 62.46C41.6071 62.3005 41.5911 62.141 41.582 61.9814C41.3223 62.3141 40.9964 62.5921 40.6045 62.8154C40.2171 63.0342 39.8024 63.1436 39.3604 63.1436C38.5902 63.1436 38.0046 62.9567 37.6035 62.583C37.2025 62.2048 37.002 61.6738 37.002 60.9902C37.002 60.2884 37.2845 59.7484 37.8496 59.3701C38.4193 58.9873 39.1986 58.7959 40.1875 58.7959H41.5752V57.9346C41.5752 57.5016 41.4385 57.1598 41.165 56.9092C40.8916 56.654 40.5111 56.5264 40.0234 56.5264C39.6862 56.5264 39.3877 56.5697 39.1279 56.6562C38.8727 56.7428 38.6654 56.8613 38.5059 57.0117L38.3623 57.791H37.3232V56.3555C37.6605 56.0866 38.0684 55.8724 38.5469 55.7129C39.0254 55.5488 39.5449 55.4668 40.1055 55.4668C40.944 55.4668 41.623 55.681 42.1426 56.1094C42.6621 56.5378 42.9219 57.1507 42.9219 57.9482V61.5098C42.9219 61.6055 42.9219 61.6989 42.9219 61.79C42.9264 61.8812 42.9333 61.9723 42.9424 62.0635L43.4893 62.1387V63H41.7256ZM39.5586 62.0156C40.0052 62.0156 40.4131 61.9085 40.7822 61.6943C41.1514 61.4801 41.4157 61.2227 41.5752 60.9219V59.7051H40.1396C39.5882 59.7051 39.1507 59.8327 38.8271 60.0879C38.5081 60.3431 38.3486 60.653 38.3486 61.0176C38.3486 61.3411 38.4489 61.5895 38.6494 61.7627C38.8499 61.9313 39.153 62.0156 39.5586 62.0156ZM44.6104 56.4717V55.6035H46.9277L47.0576 56.6768C47.2673 56.2985 47.5247 56.0023 47.8301 55.7881C48.14 55.5739 48.4932 55.4668 48.8896 55.4668C48.9945 55.4668 49.1016 55.4759 49.2109 55.4941C49.3249 55.5078 49.4115 55.5238 49.4707 55.542L49.293 56.793L48.5273 56.752C48.1719 56.752 47.8734 56.8363 47.6318 57.0049C47.3903 57.1689 47.2035 57.4014 47.0713 57.7021V61.9473L48.1855 62.1387V63H44.6104V62.1387L45.7246 61.9473V56.6631L44.6104 56.4717ZM52.9775 53.8193V55.6035H54.3789V56.6016H52.9775V61.0928C52.9775 61.4391 53.0482 61.6829 53.1895 61.8242C53.3353 61.9655 53.5267 62.0361 53.7637 62.0361C53.8822 62.0361 54.0143 62.027 54.1602 62.0088C54.3105 61.986 54.4359 61.9632 54.5361 61.9404L54.7207 62.8633C54.5931 62.9453 54.4062 63.0114 54.1602 63.0615C53.9141 63.1162 53.668 63.1436 53.4219 63.1436C52.875 63.1436 52.4398 62.9795 52.1162 62.6514C51.7926 62.3187 51.6309 61.7992 51.6309 61.0928V56.6016H50.4619V55.6035H51.6309V53.8193H52.9775ZM64.2227 62.1182C63.9811 62.4554 63.6849 62.7106 63.334 62.8838C62.9876 63.057 62.5843 63.1436 62.124 63.1436C61.2217 63.1436 60.5153 62.8177 60.0049 62.166C59.499 61.5098 59.2461 60.6484 59.2461 59.582V59.4385C59.2461 58.249 59.499 57.2897 60.0049 56.5605C60.5153 55.8314 61.2262 55.4668 62.1377 55.4668C62.5752 55.4668 62.9603 55.5488 63.293 55.7129C63.6302 55.8724 63.9173 56.1048 64.1543 56.4102V53.3955L63.04 53.2041V52.3359H64.1543H65.501V61.9473L66.6152 62.1387V63H64.332L64.2227 62.1182ZM60.5928 59.582C60.5928 60.3249 60.7454 60.9219 61.0508 61.373C61.3561 61.8242 61.8278 62.0498 62.4658 62.0498C62.8669 62.0498 63.2041 61.9587 63.4775 61.7764C63.751 61.5941 63.9766 61.3366 64.1543 61.0039V57.5723C63.9811 57.2624 63.7555 57.0163 63.4775 56.834C63.1995 56.6517 62.8669 56.5605 62.4795 56.5605C61.8369 56.5605 61.3607 56.8271 61.0508 57.3604C60.7454 57.8936 60.5928 58.5863 60.5928 59.4385V59.582ZM67.6543 59.2334C67.6543 58.1396 67.9505 57.2396 68.543 56.5332C69.1354 55.8223 69.9398 55.4668 70.9561 55.4668C71.9769 55.4668 72.7835 55.82 73.376 56.5264C73.973 57.2327 74.2715 58.1351 74.2715 59.2334V59.3838C74.2715 60.4867 73.9753 61.389 73.3828 62.0908C72.7904 62.7926 71.986 63.1436 70.9697 63.1436C69.9443 63.1436 69.1354 62.7926 68.543 62.0908C67.9505 61.3844 67.6543 60.4821 67.6543 59.3838V59.2334ZM69.001 59.3838C69.001 60.1676 69.165 60.8148 69.4932 61.3252C69.8258 61.8356 70.318 62.0908 70.9697 62.0908C71.6077 62.0908 72.0931 61.8356 72.4258 61.3252C72.7585 60.8148 72.9248 60.1676 72.9248 59.3838V59.2334C72.9248 58.4587 72.7585 57.8138 72.4258 57.2988C72.0931 56.7839 71.6032 56.5264 70.9561 56.5264C70.3089 56.5264 69.8213 56.7839 69.4932 57.2988C69.165 57.8138 69.001 58.4587 69.001 59.2334V59.3838ZM75.5088 62.1387L76.623 61.9473V56.6631L75.5088 56.4717V55.6035H77.9697V61.9473L79.084 62.1387V63H75.5088V62.1387ZM77.9697 53.71H76.623V52.3359H77.9697V53.71ZM79.918 62.1387L81.0322 61.9473V56.6631L79.918 56.4717V55.6035H82.2354L82.3311 56.7041C82.5771 56.3122 82.8848 56.0091 83.2539 55.7949C83.6276 55.5762 84.0514 55.4668 84.5254 55.4668C85.3229 55.4668 85.9404 55.7015 86.3779 56.1709C86.8154 56.6357 87.0342 57.3558 87.0342 58.3311V61.9473L88.1484 62.1387V63H84.5732V62.1387L85.6875 61.9473V58.3584C85.6875 57.7067 85.5576 57.2441 85.2979 56.9707C85.0426 56.6973 84.6507 56.5605 84.1221 56.5605C83.7347 56.5605 83.3906 56.654 83.0898 56.8408C82.7936 57.0277 82.5566 57.2829 82.3789 57.6064V61.9473L83.4932 62.1387V63H79.918V62.1387ZM89.0645 59.4385C89.0645 58.249 89.3242 57.2897 89.8438 56.5605C90.3633 55.8314 91.0811 55.4668 91.9971 55.4668C92.4619 55.4668 92.8698 55.5579 93.2207 55.7402C93.5716 55.9225 93.8656 56.1868 94.1025 56.5332L94.2256 55.6035H95.3604V62.9043C95.3604 63.8613 95.0938 64.6133 94.5605 65.1602C94.0273 65.7116 93.2686 65.9873 92.2842 65.9873C91.9287 65.9873 91.5436 65.9372 91.1289 65.8369C90.7142 65.7412 90.3496 65.609 90.0352 65.4404L90.3838 64.3945C90.6344 64.5267 90.9307 64.6361 91.2725 64.7227C91.6143 64.8092 91.9469 64.8525 92.2705 64.8525C92.8721 64.8525 93.3118 64.6839 93.5898 64.3467C93.8724 64.0094 94.0137 63.5286 94.0137 62.9043V62.2002C93.7721 62.5101 93.4827 62.7448 93.1455 62.9043C92.8083 63.0638 92.4209 63.1436 91.9834 63.1436C91.0765 63.1436 90.3633 62.8154 89.8438 62.1592C89.3242 61.5029 89.0645 60.6439 89.0645 59.582V59.4385ZM90.4111 59.582C90.4111 60.3249 90.5684 60.9219 90.8828 61.373C91.1973 61.8242 91.6758 62.0498 92.3184 62.0498C92.724 62.0498 93.0635 61.9587 93.3369 61.7764C93.6104 61.5895 93.8359 61.3275 94.0137 60.9902V57.5859C93.8405 57.2715 93.6149 57.0231 93.3369 56.8408C93.0589 56.654 92.724 56.5605 92.332 56.5605C91.6895 56.5605 91.2087 56.8294 90.8896 57.3672C90.5706 57.9049 90.4111 58.5954 90.4111 59.4385V59.582ZM100.474 56.4717V55.6035H102.791L102.921 56.6768C103.131 56.2985 103.388 56.0023 103.693 55.7881C104.003 55.5739 104.356 55.4668 104.753 55.4668C104.858 55.4668 104.965 55.4759 105.074 55.4941C105.188 55.5078 105.275 55.5238 105.334 55.542L105.156 56.793L104.391 56.752C104.035 56.752 103.737 56.8363 103.495 57.0049C103.254 57.1689 103.067 57.4014 102.935 57.7021V61.9473L104.049 62.1387V63H100.474V62.1387L101.588 61.9473V56.6631L100.474 56.4717ZM109.511 63.1436C108.481 63.1436 107.66 62.8018 107.05 62.1182C106.444 61.43 106.141 60.5391 106.141 59.4453V59.1445C106.141 58.0918 106.453 57.2168 107.077 56.5195C107.706 55.8177 108.449 55.4668 109.306 55.4668C110.299 55.4668 111.051 55.7676 111.562 56.3691C112.076 56.9707 112.334 57.7728 112.334 58.7754V59.6162H107.535L107.515 59.6504C107.528 60.3613 107.708 60.9469 108.055 61.4072C108.401 61.863 108.886 62.0908 109.511 62.0908C109.966 62.0908 110.365 62.027 110.707 61.8994C111.053 61.7673 111.352 61.5872 111.603 61.3594L112.129 62.2344C111.865 62.4896 111.514 62.7061 111.076 62.8838C110.643 63.057 110.121 63.1436 109.511 63.1436ZM109.306 56.5264C108.854 56.5264 108.469 56.7178 108.15 57.1006C107.831 57.4788 107.635 57.9551 107.562 58.5293L107.576 58.5635H110.987V58.3857C110.987 57.8571 110.846 57.415 110.563 57.0596C110.281 56.7041 109.862 56.5264 109.306 56.5264ZM119.327 57.9277H118.315L118.097 57.0391C117.933 56.8841 117.725 56.7611 117.475 56.6699C117.229 56.5742 116.948 56.5264 116.634 56.5264C116.155 56.5264 115.8 56.6312 115.567 56.8408C115.335 57.0505 115.219 57.3034 115.219 57.5996C115.219 57.8913 115.321 58.1214 115.526 58.29C115.731 58.4587 116.148 58.609 116.777 58.7412C117.712 58.9417 118.407 59.2152 118.862 59.5615C119.318 59.9033 119.546 60.3636 119.546 60.9424C119.546 61.5986 119.279 62.1296 118.746 62.5352C118.217 62.9408 117.525 63.1436 116.668 63.1436C116.107 63.1436 115.604 63.0798 115.157 62.9521C114.711 62.82 114.312 62.6309 113.961 62.3848L113.954 60.6963H114.966L115.219 61.6875C115.374 61.8288 115.583 61.9313 115.848 61.9951C116.117 62.0589 116.39 62.0908 116.668 62.0908C117.146 62.0908 117.52 61.9951 117.789 61.8037C118.062 61.6077 118.199 61.3525 118.199 61.0381C118.199 60.7419 118.085 60.498 117.857 60.3066C117.634 60.1152 117.208 59.9489 116.579 59.8076C115.681 59.6117 115.005 59.3451 114.549 59.0078C114.093 58.6706 113.865 58.2148 113.865 57.6406C113.865 57.0391 114.12 56.5264 114.631 56.1025C115.146 55.6787 115.813 55.4668 116.634 55.4668C117.194 55.4668 117.698 55.5397 118.145 55.6855C118.591 55.8314 118.963 56.0342 119.259 56.2939L119.327 57.9277ZM124.181 63.1436C123.151 63.1436 122.33 62.8018 121.72 62.1182C121.114 61.43 120.811 60.5391 120.811 59.4453V59.1445C120.811 58.0918 121.123 57.2168 121.747 56.5195C122.376 55.8177 123.119 55.4668 123.976 55.4668C124.969 55.4668 125.721 55.7676 126.231 56.3691C126.746 56.9707 127.004 57.7728 127.004 58.7754V59.6162H122.205L122.185 59.6504C122.198 60.3613 122.378 60.9469 122.725 61.4072C123.071 61.863 123.556 62.0908 124.181 62.0908C124.636 62.0908 125.035 62.027 125.377 61.8994C125.723 61.7673 126.022 61.5872 126.272 61.3594L126.799 62.2344C126.535 62.4896 126.184 62.7061 125.746 62.8838C125.313 63.057 124.791 63.1436 124.181 63.1436ZM123.976 56.5264C123.524 56.5264 123.139 56.7178 122.82 57.1006C122.501 57.4788 122.305 57.9551 122.232 58.5293L122.246 58.5635H125.657V58.3857C125.657 57.8571 125.516 57.415 125.233 57.0596C124.951 56.7041 124.532 56.5264 123.976 56.5264ZM133.163 63C133.122 62.7995 133.09 62.6195 133.067 62.46C133.045 62.3005 133.029 62.141 133.02 61.9814C132.76 62.3141 132.434 62.5921 132.042 62.8154C131.655 63.0342 131.24 63.1436 130.798 63.1436C130.028 63.1436 129.442 62.9567 129.041 62.583C128.64 62.2048 128.439 61.6738 128.439 60.9902C128.439 60.2884 128.722 59.7484 129.287 59.3701C129.857 58.9873 130.636 58.7959 131.625 58.7959H133.013V57.9346C133.013 57.5016 132.876 57.1598 132.603 56.9092C132.329 56.654 131.949 56.5264 131.461 56.5264C131.124 56.5264 130.825 56.5697 130.565 56.6562C130.31 56.7428 130.103 56.8613 129.943 57.0117L129.8 57.791H128.761V56.3555C129.098 56.0866 129.506 55.8724 129.984 55.7129C130.463 55.5488 130.982 55.4668 131.543 55.4668C132.382 55.4668 133.061 55.681 133.58 56.1094C134.1 56.5378 134.359 57.1507 134.359 57.9482V61.5098C134.359 61.6055 134.359 61.6989 134.359 61.79C134.364 61.8812 134.371 61.9723 134.38 62.0635L134.927 62.1387V63H133.163ZM130.996 62.0156C131.443 62.0156 131.851 61.9085 132.22 61.6943C132.589 61.4801 132.853 61.2227 133.013 60.9219V59.7051H131.577C131.026 59.7051 130.588 59.8327 130.265 60.0879C129.946 60.3431 129.786 60.653 129.786 61.0176C129.786 61.3411 129.886 61.5895 130.087 61.7627C130.287 61.9313 130.59 62.0156 130.996 62.0156ZM136.048 56.4717V55.6035H138.365L138.495 56.6768C138.705 56.2985 138.962 56.0023 139.268 55.7881C139.577 55.5739 139.931 55.4668 140.327 55.4668C140.432 55.4668 140.539 55.4759 140.648 55.4941C140.762 55.5078 140.849 55.5238 140.908 55.542L140.73 56.793L139.965 56.752C139.609 56.752 139.311 56.8363 139.069 57.0049C138.828 57.1689 138.641 57.4014 138.509 57.7021V61.9473L139.623 62.1387V63H136.048V62.1387L137.162 61.9473V56.6631L136.048 56.4717ZM145.03 62.0908C145.477 62.0908 145.869 61.9541 146.206 61.6807C146.548 61.4027 146.719 61.0632 146.719 60.6621H147.929L147.942 60.7031C147.965 61.3411 147.68 61.9085 147.088 62.4053C146.5 62.8975 145.814 63.1436 145.03 63.1436C143.955 63.1436 143.132 62.7926 142.562 62.0908C141.997 61.389 141.715 60.5072 141.715 59.4453V59.1582C141.715 58.1055 142 57.2282 142.569 56.5264C143.139 55.82 143.959 55.4668 145.03 55.4668C145.623 55.4668 146.154 55.5648 146.623 55.7607C147.097 55.9567 147.489 56.2256 147.799 56.5674L147.86 58.208H146.787L146.493 57.0459C146.334 56.891 146.129 56.7656 145.878 56.6699C145.627 56.5742 145.345 56.5264 145.03 56.5264C144.324 56.5264 143.818 56.7816 143.513 57.292C143.212 57.7979 143.062 58.4199 143.062 59.1582V59.4453C143.062 60.2018 143.212 60.833 143.513 61.3389C143.813 61.8402 144.319 62.0908 145.03 62.0908ZM149.07 62.1387L150.185 61.9473V53.3955L149.07 53.2041V52.3359H151.531V56.5879C151.786 56.2324 152.099 55.9567 152.468 55.7607C152.837 55.5648 153.247 55.4668 153.698 55.4668C154.491 55.4668 155.106 55.7038 155.544 56.1777C155.981 56.6517 156.2 57.3809 156.2 58.3652V61.9473L157.314 62.1387V63H153.739V62.1387L154.854 61.9473V58.3516C154.854 57.7409 154.721 57.2897 154.457 56.998C154.197 56.7064 153.808 56.5605 153.288 56.5605C152.919 56.5605 152.582 56.6494 152.276 56.8271C151.976 57.0003 151.727 57.2373 151.531 57.5381V61.9473L152.646 62.1387V63H149.07V62.1387ZM161.833 63V62.0771L165.094 58.4541C165.677 57.8024 166.071 57.2852 166.276 56.9023C166.486 56.5195 166.591 56.1276 166.591 55.7266C166.591 55.2298 166.445 54.8128 166.153 54.4756C165.862 54.1338 165.477 53.9629 164.998 53.9629C164.31 53.9629 163.804 54.1383 163.48 54.4893C163.157 54.8402 162.995 55.3369 162.995 55.9795H161.703L161.689 55.9385C161.667 55.0817 161.949 54.3617 162.537 53.7783C163.13 53.195 163.95 52.9033 164.998 52.9033C165.896 52.9033 166.609 53.1654 167.138 53.6895C167.671 54.209 167.938 54.8721 167.938 55.6787C167.938 56.221 167.776 56.7633 167.452 57.3057C167.133 57.848 166.682 58.4336 166.099 59.0625L163.48 61.9131L163.494 61.9473H167.028L167.138 60.8057H168.279V63H161.833ZM171.246 63H169.899V61.6191H171.246V63ZM180.618 53.0469C181.657 53.0469 182.468 53.2725 183.052 53.7236C183.64 54.1702 183.934 54.8424 183.934 55.7402C183.934 56.1823 183.792 56.5788 183.51 56.9297C183.232 57.276 182.863 57.5335 182.402 57.7021C182.999 57.8298 183.471 58.1237 183.817 58.584C184.164 59.0443 184.337 59.5798 184.337 60.1904C184.337 61.1019 184.041 61.7992 183.448 62.2822C182.856 62.7607 182.054 63 181.042 63H176.257V62.1387L177.371 61.9473V54.1064L176.257 53.915V53.0469H177.371H180.618ZM178.718 58.3311V61.9473H181.042C181.657 61.9473 182.133 61.7969 182.471 61.4961C182.812 61.1908 182.983 60.7601 182.983 60.2041C182.983 59.6208 182.84 59.1628 182.553 58.8301C182.27 58.4974 181.835 58.3311 181.247 58.3311H178.718ZM178.718 57.2783H180.967C181.45 57.2646 181.84 57.1211 182.136 56.8477C182.437 56.5742 182.587 56.196 182.587 55.7129C182.587 55.1751 182.418 54.7741 182.081 54.5098C181.744 54.2409 181.256 54.1064 180.618 54.1064H178.718V57.2783ZM188.958 63.1436C187.928 63.1436 187.108 62.8018 186.497 62.1182C185.891 61.43 185.588 60.5391 185.588 59.4453V59.1445C185.588 58.0918 185.9 57.2168 186.524 56.5195C187.153 55.8177 187.896 55.4668 188.753 55.4668C189.746 55.4668 190.498 55.7676 191.009 56.3691C191.524 56.9707 191.781 57.7728 191.781 58.7754V59.6162H186.982L186.962 59.6504C186.976 60.3613 187.156 60.9469 187.502 61.4072C187.848 61.863 188.334 62.0908 188.958 62.0908C189.414 62.0908 189.812 62.027 190.154 61.8994C190.501 61.7673 190.799 61.5872 191.05 61.3594L191.576 62.2344C191.312 62.4896 190.961 62.7061 190.523 62.8838C190.09 63.057 189.569 63.1436 188.958 63.1436ZM188.753 56.5264C188.302 56.5264 187.917 56.7178 187.598 57.1006C187.279 57.4788 187.083 57.9551 187.01 58.5293L187.023 58.5635H190.435V58.3857C190.435 57.8571 190.293 57.415 190.011 57.0596C189.728 56.7041 189.309 56.5264 188.753 56.5264ZM199.923 62.0908C200.369 62.0908 200.761 61.9541 201.099 61.6807C201.44 61.4027 201.611 61.0632 201.611 60.6621H202.821L202.835 60.7031C202.858 61.3411 202.573 61.9085 201.98 62.4053C201.393 62.8975 200.707 63.1436 199.923 63.1436C198.847 63.1436 198.025 62.7926 197.455 62.0908C196.89 61.389 196.607 60.5072 196.607 59.4453V59.1582C196.607 58.1055 196.892 57.2282 197.462 56.5264C198.032 55.82 198.852 55.4668 199.923 55.4668C200.515 55.4668 201.046 55.5648 201.516 55.7607C201.99 55.9567 202.382 56.2256 202.691 56.5674L202.753 58.208H201.68L201.386 57.0459C201.226 56.891 201.021 56.7656 200.771 56.6699C200.52 56.5742 200.237 56.5264 199.923 56.5264C199.216 56.5264 198.711 56.7816 198.405 57.292C198.104 57.7979 197.954 58.4199 197.954 59.1582V59.4453C197.954 60.2018 198.104 60.833 198.405 61.3389C198.706 61.8402 199.212 62.0908 199.923 62.0908ZM209.438 61.9062C209.206 62.3027 208.905 62.6081 208.536 62.8223C208.172 63.0365 207.75 63.1436 207.271 63.1436C206.469 63.1436 205.843 62.8861 205.392 62.3711C204.94 61.8561 204.715 61.054 204.715 59.9648V56.6631L203.867 56.4717V55.6035H204.715H206.062V59.9785C206.062 60.7669 206.178 61.3092 206.41 61.6055C206.643 61.9017 207.005 62.0498 207.497 62.0498C207.976 62.0498 208.37 61.9541 208.68 61.7627C208.994 61.5667 209.231 61.291 209.391 60.9355V56.6631L208.399 56.4717V55.6035H209.391H210.737V61.9473L211.585 62.1387V63H209.527L209.438 61.9062ZM212.651 56.4717V55.6035H214.969L215.099 56.6768C215.308 56.2985 215.566 56.0023 215.871 55.7881C216.181 55.5739 216.534 55.4668 216.931 55.4668C217.035 55.4668 217.143 55.4759 217.252 55.4941C217.366 55.5078 217.452 55.5238 217.512 55.542L217.334 56.793L216.568 56.752C216.213 56.752 215.914 56.8363 215.673 57.0049C215.431 57.1689 215.244 57.4014 215.112 57.7021V61.9473L216.227 62.1387V63H212.651V62.1387L213.766 61.9473V56.6631L212.651 56.4717ZM218.448 62.1387L219.562 61.9473V56.6631L218.448 56.4717V55.6035H220.909V61.9473L222.023 62.1387V63H218.448V62.1387ZM220.909 53.71H219.562V52.3359H220.909V53.71ZM223.062 59.2334C223.062 58.1396 223.359 57.2396 223.951 56.5332C224.544 55.8223 225.348 55.4668 226.364 55.4668C227.385 55.4668 228.192 55.82 228.784 56.5264C229.381 57.2327 229.68 58.1351 229.68 59.2334V59.3838C229.68 60.4867 229.383 61.389 228.791 62.0908C228.199 62.7926 227.394 63.1436 226.378 63.1436C225.353 63.1436 224.544 62.7926 223.951 62.0908C223.359 61.3844 223.062 60.4821 223.062 59.3838V59.2334ZM224.409 59.3838C224.409 60.1676 224.573 60.8148 224.901 61.3252C225.234 61.8356 225.726 62.0908 226.378 62.0908C227.016 62.0908 227.501 61.8356 227.834 61.3252C228.167 60.8148 228.333 60.1676 228.333 59.3838V59.2334C228.333 58.4587 228.167 57.8138 227.834 57.2988C227.501 56.7839 227.011 56.5264 226.364 56.5264C225.717 56.5264 225.229 56.7839 224.901 57.2988C224.573 57.8138 224.409 58.4587 224.409 59.2334V59.3838ZM236.208 61.9062C235.976 62.3027 235.675 62.6081 235.306 62.8223C234.941 63.0365 234.52 63.1436 234.041 63.1436C233.239 63.1436 232.612 62.8861 232.161 62.3711C231.71 61.8561 231.484 61.054 231.484 59.9648V56.6631L230.637 56.4717V55.6035H231.484H232.831V59.9785C232.831 60.7669 232.947 61.3092 233.18 61.6055C233.412 61.9017 233.774 62.0498 234.267 62.0498C234.745 62.0498 235.139 61.9541 235.449 61.7627C235.764 61.5667 236.001 61.291 236.16 60.9355V56.6631L235.169 56.4717V55.6035H236.16H237.507V61.9473L238.354 62.1387V63H236.297L236.208 61.9062ZM245.081 57.9277H244.069L243.851 57.0391C243.687 56.8841 243.479 56.7611 243.229 56.6699C242.982 56.5742 242.702 56.5264 242.388 56.5264C241.909 56.5264 241.554 56.6312 241.321 56.8408C241.089 57.0505 240.973 57.3034 240.973 57.5996C240.973 57.8913 241.075 58.1214 241.28 58.29C241.485 58.4587 241.902 58.609 242.531 58.7412C243.465 58.9417 244.16 59.2152 244.616 59.5615C245.072 59.9033 245.3 60.3636 245.3 60.9424C245.3 61.5986 245.033 62.1296 244.5 62.5352C243.971 62.9408 243.279 63.1436 242.422 63.1436C241.861 63.1436 241.358 63.0798 240.911 62.9521C240.465 62.82 240.066 62.6309 239.715 62.3848L239.708 60.6963H240.72L240.973 61.6875C241.128 61.8288 241.337 61.9313 241.602 61.9951C241.87 62.0589 242.144 62.0908 242.422 62.0908C242.9 62.0908 243.274 61.9951 243.543 61.8037C243.816 61.6077 243.953 61.3525 243.953 61.0381C243.953 60.7419 243.839 60.498 243.611 60.3066C243.388 60.1152 242.962 59.9489 242.333 59.8076C241.435 59.6117 240.758 59.3451 240.303 59.0078C239.847 58.6706 239.619 58.2148 239.619 57.6406C239.619 57.0391 239.874 56.5264 240.385 56.1025C240.9 55.6787 241.567 55.4668 242.388 55.4668C242.948 55.4668 243.452 55.5397 243.898 55.6855C244.345 55.8314 244.716 56.0342 245.013 56.2939L245.081 57.9277ZM248.273 59.7324H246.927V53.0469H248.273V59.7324ZM248.273 63H246.927V61.6055H248.273V63ZM255.226 57.4014H256.401C256.998 57.4014 257.42 57.2533 257.666 56.957C257.917 56.6562 258.042 56.2393 258.042 55.7061C258.042 55.1364 257.901 54.7035 257.618 54.4072C257.336 54.111 256.919 53.9629 256.367 53.9629C255.843 53.9629 255.422 54.1178 255.103 54.4277C254.788 54.7331 254.631 55.141 254.631 55.6514H253.339L253.325 55.6104C253.302 54.8584 253.574 54.2204 254.139 53.6963C254.708 53.1676 255.451 52.9033 256.367 52.9033C257.288 52.9033 258.021 53.1494 258.568 53.6416C259.115 54.1292 259.389 54.8265 259.389 55.7334C259.389 56.1436 259.263 56.5537 259.013 56.9639C258.767 57.3695 258.395 57.6794 257.898 57.8936C258.495 58.0895 258.917 58.3971 259.163 58.8164C259.414 59.2357 259.539 59.7051 259.539 60.2246C259.539 61.1315 259.241 61.8447 258.644 62.3643C258.051 62.8838 257.292 63.1436 256.367 63.1436C255.456 63.1436 254.704 62.8997 254.111 62.4121C253.519 61.9199 253.234 61.2546 253.257 60.416L253.277 60.375H254.562C254.562 60.8991 254.722 61.3161 255.041 61.626C255.365 61.9359 255.807 62.0908 256.367 62.0908C256.937 62.0908 257.383 61.9359 257.707 61.626C258.031 61.3161 258.192 60.8581 258.192 60.252C258.192 59.6367 258.049 59.1833 257.762 58.8916C257.475 58.5999 257.021 58.4541 256.401 58.4541H255.226V57.4014ZM262.643 63H261.296V61.6191H262.643V63ZM274.858 55.9863H273.84L273.587 54.5645C273.382 54.3913 273.108 54.2477 272.767 54.1338C272.425 54.0199 272.028 53.9629 271.577 53.9629C270.862 53.9629 270.312 54.1156 269.93 54.4209C269.547 54.7217 269.355 55.1159 269.355 55.6035C269.355 56.0365 269.549 56.3988 269.937 56.6904C270.328 56.9775 270.96 57.2305 271.83 57.4492C272.878 57.709 273.674 58.0918 274.216 58.5977C274.763 59.1035 275.036 59.7301 275.036 60.4775C275.036 61.2796 274.708 61.9245 274.052 62.4121C273.4 62.8997 272.546 63.1436 271.488 63.1436C270.723 63.1436 270.041 63.0182 269.444 62.7676C268.852 62.5169 268.369 62.1888 267.995 61.7832V59.9307H269.007L269.267 61.3594C269.526 61.5736 269.836 61.749 270.196 61.8857C270.556 62.0225 270.987 62.0908 271.488 62.0908C272.167 62.0908 272.703 61.9473 273.095 61.6602C273.491 61.373 273.689 60.9834 273.689 60.4912C273.689 60.0355 273.519 59.6549 273.177 59.3496C272.835 59.0397 272.231 58.7799 271.365 58.5703C270.312 58.3197 269.49 57.9505 268.897 57.4629C268.305 56.9753 268.009 56.3623 268.009 55.624C268.009 54.8447 268.339 54.1976 269 53.6826C269.661 53.1631 270.52 52.9033 271.577 52.9033C272.274 52.9033 272.908 53.0241 273.478 53.2656C274.052 53.5026 274.512 53.792 274.858 54.1338V55.9863ZM278.659 53.8193V55.6035H280.061V56.6016H278.659V61.0928C278.659 61.4391 278.73 61.6829 278.871 61.8242C279.017 61.9655 279.208 62.0361 279.445 62.0361C279.564 62.0361 279.696 62.027 279.842 62.0088C279.992 61.986 280.118 61.9632 280.218 61.9404L280.402 62.8633C280.275 62.9453 280.088 63.0114 279.842 63.0615C279.596 63.1162 279.35 63.1436 279.104 63.1436C278.557 63.1436 278.121 62.9795 277.798 62.6514C277.474 62.3187 277.312 61.7992 277.312 61.0928V56.6016H276.144V55.6035H277.312V53.8193H278.659ZM286.261 63C286.22 62.7995 286.188 62.6195 286.165 62.46C286.142 62.3005 286.126 62.141 286.117 61.9814C285.857 62.3141 285.532 62.5921 285.14 62.8154C284.752 63.0342 284.338 63.1436 283.896 63.1436C283.125 63.1436 282.54 62.9567 282.139 62.583C281.738 62.2048 281.537 61.6738 281.537 60.9902C281.537 60.2884 281.82 59.7484 282.385 59.3701C282.954 58.9873 283.734 58.7959 284.723 58.7959H286.11V57.9346C286.11 57.5016 285.974 57.1598 285.7 56.9092C285.427 56.654 285.046 56.5264 284.559 56.5264C284.221 56.5264 283.923 56.5697 283.663 56.6562C283.408 56.7428 283.201 56.8613 283.041 57.0117L282.897 57.791H281.858V56.3555C282.196 56.0866 282.604 55.8724 283.082 55.7129C283.561 55.5488 284.08 55.4668 284.641 55.4668C285.479 55.4668 286.158 55.681 286.678 56.1094C287.197 56.5378 287.457 57.1507 287.457 57.9482V61.5098C287.457 61.6055 287.457 61.6989 287.457 61.79C287.462 61.8812 287.468 61.9723 287.478 62.0635L288.024 62.1387V63H286.261ZM284.094 62.0156C284.54 62.0156 284.948 61.9085 285.317 61.6943C285.687 61.4801 285.951 61.2227 286.11 60.9219V59.7051H284.675C284.123 59.7051 283.686 59.8327 283.362 60.0879C283.043 60.3431 282.884 60.653 282.884 61.0176C282.884 61.3411 282.984 61.5895 283.185 61.7627C283.385 61.9313 283.688 62.0156 284.094 62.0156ZM289.146 56.4717V55.6035H291.463L291.593 56.6768C291.802 56.2985 292.06 56.0023 292.365 55.7881C292.675 55.5739 293.028 55.4668 293.425 55.4668C293.53 55.4668 293.637 55.4759 293.746 55.4941C293.86 55.5078 293.947 55.5238 294.006 55.542L293.828 56.793L293.062 56.752C292.707 56.752 292.409 56.8363 292.167 57.0049C291.925 57.1689 291.739 57.4014 291.606 57.7021V61.9473L292.721 62.1387V63H289.146V62.1387L290.26 61.9473V56.6631L289.146 56.4717ZM297.513 53.8193V55.6035H298.914V56.6016H297.513V61.0928C297.513 61.4391 297.583 61.6829 297.725 61.8242C297.87 61.9655 298.062 62.0361 298.299 62.0361C298.417 62.0361 298.549 62.027 298.695 62.0088C298.846 61.986 298.971 61.9632 299.071 61.9404L299.256 62.8633C299.128 62.9453 298.941 63.0114 298.695 63.0615C298.449 63.1162 298.203 63.1436 297.957 63.1436C297.41 63.1436 296.975 62.9795 296.651 62.6514C296.328 62.3187 296.166 61.7992 296.166 61.0928V56.6016H294.997V55.6035H296.166V53.8193H297.513ZM10.3418 89.1387L11.4561 88.9473V83.6631L10.3418 83.4717V82.6035H12.666L12.7549 83.5674C12.9919 83.2165 13.2972 82.9453 13.6709 82.7539C14.0446 82.5625 14.4775 82.4668 14.9697 82.4668C15.4619 82.4668 15.8835 82.5807 16.2344 82.8086C16.5898 83.0365 16.8564 83.3783 17.0342 83.834C17.2666 83.4147 17.5742 83.082 17.957 82.8359C18.3398 82.5898 18.7865 82.4668 19.2969 82.4668C20.0534 82.4668 20.6504 82.7266 21.0879 83.2461C21.5254 83.7611 21.7441 84.5381 21.7441 85.5771V88.9473L22.8584 89.1387V90H19.2764V89.1387L20.3906 88.9473V85.5635C20.3906 84.8343 20.2653 84.3193 20.0146 84.0186C19.764 83.7132 19.3926 83.5605 18.9004 83.5605C18.431 83.5605 18.0527 83.7269 17.7656 84.0596C17.4831 84.3877 17.319 84.8024 17.2734 85.3037V88.9473L18.3877 89.1387V90H14.8125V89.1387L15.9268 88.9473V85.5635C15.9268 84.8708 15.7969 84.3649 15.5371 84.0459C15.2819 83.7223 14.9105 83.5605 14.4229 83.5605C14.0127 83.5605 13.6755 83.6449 13.4111 83.8135C13.1468 83.9821 12.944 84.2191 12.8027 84.5244V88.9473L13.917 89.1387V90H10.3418V89.1387ZM28.6689 90C28.6279 89.7995 28.596 89.6195 28.5732 89.46C28.5505 89.3005 28.5345 89.141 28.5254 88.9814C28.2656 89.3141 27.9398 89.5921 27.5479 89.8154C27.1605 90.0342 26.7458 90.1436 26.3037 90.1436C25.5335 90.1436 24.9479 89.9567 24.5469 89.583C24.1458 89.2048 23.9453 88.6738 23.9453 87.9902C23.9453 87.2884 24.2279 86.7484 24.793 86.3701C25.3626 85.9873 26.1419 85.7959 27.1309 85.7959H28.5186V84.9346C28.5186 84.5016 28.3818 84.1598 28.1084 83.9092C27.835 83.654 27.4544 83.5264 26.9668 83.5264C26.6296 83.5264 26.3311 83.5697 26.0713 83.6562C25.8161 83.7428 25.6087 83.8613 25.4492 84.0117L25.3057 84.791H24.2666V83.3555C24.6038 83.0866 25.0117 82.8724 25.4902 82.7129C25.9688 82.5488 26.4883 82.4668 27.0488 82.4668C27.8874 82.4668 28.5664 82.681 29.0859 83.1094C29.6055 83.5378 29.8652 84.1507 29.8652 84.9482V88.5098C29.8652 88.6055 29.8652 88.6989 29.8652 88.79C29.8698 88.8812 29.8766 88.9723 29.8857 89.0635L30.4326 89.1387V90H28.6689ZM26.502 89.0156C26.9486 89.0156 27.3564 88.9085 27.7256 88.6943C28.0947 88.4801 28.359 88.2227 28.5186 87.9219V86.7051H27.083C26.5316 86.7051 26.0941 86.8327 25.7705 87.0879C25.4515 87.3431 25.292 87.653 25.292 88.0176C25.292 88.3411 25.3923 88.5895 25.5928 88.7627C25.7933 88.9313 26.0964 89.0156 26.502 89.0156ZM31.3691 80.2041V79.3359H33.8301V85.5156H34.6914L36.2705 83.5605L35.5938 83.4717V82.6035H38.6904V83.4717L37.7881 83.6494L35.8398 85.9736L38.2119 88.9746L39.0527 89.1387V90H35.9834V89.1387L36.6738 89.0498L34.7119 86.5889H33.8301V88.9473L34.9443 89.1387V90H31.3691V89.1387L32.4834 88.9473V80.3955L31.3691 80.2041ZM40.0713 89.1387L41.1855 88.9473V83.6631L40.0713 83.4717V82.6035H42.5322V88.9473L43.6465 89.1387V90H40.0713V89.1387ZM42.5322 80.71H41.1855V79.3359H42.5322V80.71ZM44.4805 89.1387L45.5947 88.9473V83.6631L44.4805 83.4717V82.6035H46.7979L46.8936 83.7041C47.1396 83.3122 47.4473 83.0091 47.8164 82.7949C48.1901 82.5762 48.6139 82.4668 49.0879 82.4668C49.8854 82.4668 50.5029 82.7015 50.9404 83.1709C51.3779 83.6357 51.5967 84.3558 51.5967 85.3311V88.9473L52.7109 89.1387V90H49.1357V89.1387L50.25 88.9473V85.3584C50.25 84.7067 50.1201 84.2441 49.8604 83.9707C49.6051 83.6973 49.2132 83.5605 48.6846 83.5605C48.2972 83.5605 47.9531 83.654 47.6523 83.8408C47.3561 84.0277 47.1191 84.2829 46.9414 84.6064V88.9473L48.0557 89.1387V90H44.4805V89.1387ZM53.627 86.4385C53.627 85.249 53.8867 84.2897 54.4062 83.5605C54.9258 82.8314 55.6436 82.4668 56.5596 82.4668C57.0244 82.4668 57.4323 82.5579 57.7832 82.7402C58.1341 82.9225 58.4281 83.1868 58.665 83.5332L58.7881 82.6035H59.9229V89.9043C59.9229 90.8613 59.6562 91.6133 59.123 92.1602C58.5898 92.7116 57.8311 92.9873 56.8467 92.9873C56.4912 92.9873 56.1061 92.9372 55.6914 92.8369C55.2767 92.7412 54.9121 92.609 54.5977 92.4404L54.9463 91.3945C55.1969 91.5267 55.4932 91.6361 55.835 91.7227C56.1768 91.8092 56.5094 91.8525 56.833 91.8525C57.4346 91.8525 57.8743 91.6839 58.1523 91.3467C58.4349 91.0094 58.5762 90.5286 58.5762 89.9043V89.2002C58.3346 89.5101 58.0452 89.7448 57.708 89.9043C57.3708 90.0638 56.9834 90.1436 56.5459 90.1436C55.639 90.1436 54.9258 89.8154 54.4062 89.1592C53.8867 88.5029 53.627 87.6439 53.627 86.582V86.4385ZM54.9736 86.582C54.9736 87.3249 55.1309 87.9219 55.4453 88.373C55.7598 88.8242 56.2383 89.0498 56.8809 89.0498C57.2865 89.0498 57.626 88.9587 57.8994 88.7764C58.1729 88.5895 58.3984 88.3275 58.5762 87.9902V84.5859C58.403 84.2715 58.1774 84.0231 57.8994 83.8408C57.6214 83.654 57.2865 83.5605 56.8945 83.5605C56.252 83.5605 55.7712 83.8294 55.4521 84.3672C55.1331 84.9049 54.9736 85.5954 54.9736 86.4385V86.582ZM64.8516 89.1387L65.9658 88.9473V80.3955L64.8516 80.2041V79.3359H67.3125V83.5879C67.5677 83.2324 67.8799 82.9567 68.249 82.7607C68.6182 82.5648 69.0283 82.4668 69.4795 82.4668C70.2725 82.4668 70.8877 82.7038 71.3252 83.1777C71.7627 83.6517 71.9814 84.3809 71.9814 85.3652V88.9473L73.0957 89.1387V90H69.5205V89.1387L70.6348 88.9473V85.3516C70.6348 84.7409 70.5026 84.2897 70.2383 83.998C69.9785 83.7064 69.5889 83.5605 69.0693 83.5605C68.7002 83.5605 68.363 83.6494 68.0576 83.8271C67.7568 84.0003 67.5085 84.2373 67.3125 84.5381V88.9473L68.4268 89.1387V90H64.8516V89.1387ZM81.1006 83.4717L80.4375 83.5742L77.6211 91.1348C77.4342 91.6315 77.1654 92.0645 76.8145 92.4336C76.4635 92.8027 75.9919 92.9873 75.3994 92.9873C75.2946 92.9873 75.1579 92.9736 74.9893 92.9463C74.8206 92.9235 74.6908 92.9007 74.5996 92.8779L74.7363 91.8184C74.709 91.8138 74.7887 91.8184 74.9756 91.832C75.167 91.8457 75.2878 91.8525 75.3379 91.8525C75.625 91.8525 75.8574 91.7272 76.0352 91.4766C76.2129 91.2305 76.3678 90.9456 76.5 90.6221L76.8213 89.8564L74.3809 83.5811L73.7041 83.4717V82.6035H76.6914V83.4717L75.8574 83.6084L77.1357 87.2588L77.3818 88.2021H77.4229L78.9609 83.6084L78.1201 83.4717V82.6035H81.1006V83.4717ZM81.8525 91.9756L82.9668 91.7842V83.6631L81.8525 83.4717V82.6035H84.1221L84.2451 83.5059C84.4912 83.1686 84.7897 82.9111 85.1406 82.7334C85.4961 82.5557 85.9062 82.4668 86.3711 82.4668C87.2871 82.4668 87.998 82.8314 88.5039 83.5605C89.0143 84.2852 89.2695 85.2445 89.2695 86.4385V86.582C89.2695 87.6484 89.0143 88.5098 88.5039 89.166C87.9935 89.8177 87.2894 90.1436 86.3916 90.1436C85.9359 90.1436 85.5348 90.0684 85.1885 89.918C84.8467 89.763 84.555 89.5352 84.3135 89.2344V91.7842L85.4277 91.9756V92.8438H81.8525V91.9756ZM87.916 86.4385C87.916 85.5954 87.752 84.9049 87.4238 84.3672C87.0957 83.8294 86.6081 83.5605 85.9609 83.5605C85.5781 83.5605 85.25 83.6471 84.9766 83.8203C84.7031 83.9935 84.4821 84.2305 84.3135 84.5312V88.1338C84.4821 88.4391 84.7008 88.6761 84.9697 88.8447C85.2432 89.0088 85.5781 89.0908 85.9746 89.0908C86.6126 89.0908 87.0957 88.8584 87.4238 88.3936C87.752 87.9287 87.916 87.3249 87.916 86.582V86.4385ZM90.5 86.2334C90.5 85.1396 90.7962 84.2396 91.3887 83.5332C91.9811 82.8223 92.7855 82.4668 93.8018 82.4668C94.8226 82.4668 95.6292 82.82 96.2217 83.5264C96.8187 84.2327 97.1172 85.1351 97.1172 86.2334V86.3838C97.1172 87.4867 96.821 88.389 96.2285 89.0908C95.6361 89.7926 94.8317 90.1436 93.8154 90.1436C92.79 90.1436 91.9811 89.7926 91.3887 89.0908C90.7962 88.3844 90.5 87.4821 90.5 86.3838V86.2334ZM91.8467 86.3838C91.8467 87.1676 92.0107 87.8148 92.3389 88.3252C92.6715 88.8356 93.1637 89.0908 93.8154 89.0908C94.4535 89.0908 94.9388 88.8356 95.2715 88.3252C95.6042 87.8148 95.7705 87.1676 95.7705 86.3838V86.2334C95.7705 85.4587 95.6042 84.8138 95.2715 84.2988C94.9388 83.7839 94.4489 83.5264 93.8018 83.5264C93.1546 83.5264 92.667 83.7839 92.3389 84.2988C92.0107 84.8138 91.8467 85.4587 91.8467 86.2334V86.3838ZM100.706 80.8193V82.6035H102.107V83.6016H100.706V88.0928C100.706 88.4391 100.777 88.6829 100.918 88.8242C101.064 88.9655 101.255 89.0361 101.492 89.0361C101.611 89.0361 101.743 89.027 101.889 89.0088C102.039 88.986 102.164 88.9632 102.265 88.9404L102.449 89.8633C102.322 89.9453 102.135 90.0114 101.889 90.0615C101.643 90.1162 101.396 90.1436 101.15 90.1436C100.604 90.1436 100.168 89.9795 99.8447 89.6514C99.5212 89.3187 99.3594 88.7992 99.3594 88.0928V83.6016H98.1904V82.6035H99.3594V80.8193H100.706ZM103.297 89.1387L104.411 88.9473V80.3955L103.297 80.2041V79.3359H105.758V83.5879C106.013 83.2324 106.325 82.9567 106.694 82.7607C107.063 82.5648 107.474 82.4668 107.925 82.4668C108.718 82.4668 109.333 82.7038 109.771 83.1777C110.208 83.6517 110.427 84.3809 110.427 85.3652V88.9473L111.541 89.1387V90H107.966V89.1387L109.08 88.9473V85.3516C109.08 84.7409 108.948 84.2897 108.684 83.998C108.424 83.7064 108.034 83.5605 107.515 83.5605C107.146 83.5605 106.808 83.6494 106.503 83.8271C106.202 84.0003 105.954 84.2373 105.758 84.5381V88.9473L106.872 89.1387V90H103.297V89.1387ZM115.827 90.1436C114.797 90.1436 113.977 89.8018 113.366 89.1182C112.76 88.43 112.457 87.5391 112.457 86.4453V86.1445C112.457 85.0918 112.769 84.2168 113.394 83.5195C114.022 82.8177 114.765 82.4668 115.622 82.4668C116.616 82.4668 117.368 82.7676 117.878 83.3691C118.393 83.9707 118.65 84.7728 118.65 85.7754V86.6162H113.852L113.831 86.6504C113.845 87.3613 114.025 87.9469 114.371 88.4072C114.717 88.863 115.203 89.0908 115.827 89.0908C116.283 89.0908 116.682 89.027 117.023 88.8994C117.37 88.7673 117.668 88.5872 117.919 88.3594L118.445 89.2344C118.181 89.4896 117.83 89.7061 117.393 89.8838C116.96 90.057 116.438 90.1436 115.827 90.1436ZM115.622 83.5264C115.171 83.5264 114.786 83.7178 114.467 84.1006C114.148 84.4788 113.952 84.9551 113.879 85.5293L113.893 85.5635H117.304V85.3857C117.304 84.8571 117.162 84.415 116.88 84.0596C116.597 83.7041 116.178 83.5264 115.622 83.5264ZM125.644 84.9277H124.632L124.413 84.0391C124.249 83.8841 124.042 83.7611 123.791 83.6699C123.545 83.5742 123.265 83.5264 122.95 83.5264C122.472 83.5264 122.116 83.6312 121.884 83.8408C121.651 84.0505 121.535 84.3034 121.535 84.5996C121.535 84.8913 121.638 85.1214 121.843 85.29C122.048 85.4587 122.465 85.609 123.094 85.7412C124.028 85.9417 124.723 86.2152 125.179 86.5615C125.634 86.9033 125.862 87.3636 125.862 87.9424C125.862 88.5986 125.596 89.1296 125.062 89.5352C124.534 89.9408 123.841 90.1436 122.984 90.1436C122.424 90.1436 121.92 90.0798 121.474 89.9521C121.027 89.82 120.628 89.6309 120.277 89.3848L120.271 87.6963H121.282L121.535 88.6875C121.69 88.8288 121.9 88.9313 122.164 88.9951C122.433 89.0589 122.706 89.0908 122.984 89.0908C123.463 89.0908 123.837 88.9951 124.105 88.8037C124.379 88.6077 124.516 88.3525 124.516 88.0381C124.516 87.7419 124.402 87.498 124.174 87.3066C123.951 87.1152 123.524 86.9489 122.896 86.8076C121.998 86.6117 121.321 86.3451 120.865 86.0078C120.41 85.6706 120.182 85.2148 120.182 84.6406C120.182 84.0391 120.437 83.5264 120.947 83.1025C121.462 82.6787 122.13 82.4668 122.95 82.4668C123.511 82.4668 124.014 82.5397 124.461 82.6855C124.908 82.8314 125.279 83.0342 125.575 83.2939L125.644 84.9277ZM130.497 90.1436C129.467 90.1436 128.647 89.8018 128.036 89.1182C127.43 88.43 127.127 87.5391 127.127 86.4453V86.1445C127.127 85.0918 127.439 84.2168 128.063 83.5195C128.692 82.8177 129.435 82.4668 130.292 82.4668C131.285 82.4668 132.037 82.7676 132.548 83.3691C133.063 83.9707 133.32 84.7728 133.32 85.7754V86.6162H128.521L128.501 86.6504C128.515 87.3613 128.695 87.9469 129.041 88.4072C129.387 88.863 129.873 89.0908 130.497 89.0908C130.953 89.0908 131.352 89.027 131.693 88.8994C132.04 88.7673 132.338 88.5872 132.589 88.3594L133.115 89.2344C132.851 89.4896 132.5 89.7061 132.062 89.8838C131.63 90.057 131.108 90.1436 130.497 90.1436ZM130.292 83.5264C129.841 83.5264 129.456 83.7178 129.137 84.1006C128.818 84.4788 128.622 84.9551 128.549 85.5293L128.562 85.5635H131.974V85.3857C131.974 84.8571 131.832 84.415 131.55 84.0596C131.267 83.7041 130.848 83.5264 130.292 83.5264ZM140.313 84.9277H139.302L139.083 84.0391C138.919 83.8841 138.712 83.7611 138.461 83.6699C138.215 83.5742 137.935 83.5264 137.62 83.5264C137.142 83.5264 136.786 83.6312 136.554 83.8408C136.321 84.0505 136.205 84.3034 136.205 84.5996C136.205 84.8913 136.308 85.1214 136.513 85.29C136.718 85.4587 137.135 85.609 137.764 85.7412C138.698 85.9417 139.393 86.2152 139.849 86.5615C140.304 86.9033 140.532 87.3636 140.532 87.9424C140.532 88.5986 140.266 89.1296 139.732 89.5352C139.204 89.9408 138.511 90.1436 137.654 90.1436C137.094 90.1436 136.59 90.0798 136.144 89.9521C135.697 89.82 135.298 89.6309 134.947 89.3848L134.94 87.6963H135.952L136.205 88.6875C136.36 88.8288 136.57 88.9313 136.834 88.9951C137.103 89.0589 137.376 89.0908 137.654 89.0908C138.133 89.0908 138.507 88.9951 138.775 88.8037C139.049 88.6077 139.186 88.3525 139.186 88.0381C139.186 87.7419 139.072 87.498 138.844 87.3066C138.62 87.1152 138.194 86.9489 137.565 86.8076C136.668 86.6117 135.991 86.3451 135.535 86.0078C135.079 85.6706 134.852 85.2148 134.852 84.6406C134.852 84.0391 135.107 83.5264 135.617 83.1025C136.132 82.6787 136.8 82.4668 137.62 82.4668C138.181 82.4668 138.684 82.5397 139.131 82.6855C139.577 82.8314 139.949 83.0342 140.245 83.2939L140.313 84.9277ZM145.174 87.3203C145.174 86.7643 145.333 86.279 145.652 85.8643C145.976 85.445 146.457 85.0257 147.095 84.6064C146.739 84.1553 146.475 83.7542 146.302 83.4033C146.129 83.0479 146.042 82.6833 146.042 82.3096C146.042 81.5394 146.263 80.9469 146.705 80.5322C147.152 80.113 147.765 79.9033 148.544 79.9033C149.264 79.9033 149.85 80.1107 150.301 80.5254C150.752 80.9401 150.978 81.4391 150.978 82.0225C150.978 82.4691 150.857 82.8564 150.615 83.1846C150.378 83.5081 150.025 83.8408 149.556 84.1826L148.811 84.7295L151.135 87.5254C151.322 87.2292 151.467 86.901 151.572 86.541C151.677 86.181 151.729 85.8005 151.729 85.3994H152.933C152.933 85.9964 152.844 86.5501 152.666 87.0605C152.488 87.571 152.231 88.029 151.894 88.4346L153.158 89.9658L153.145 90H151.579L150.998 89.3027C150.633 89.5762 150.23 89.7858 149.788 89.9316C149.346 90.0729 148.888 90.1436 148.414 90.1436C147.425 90.1436 146.637 89.8815 146.049 89.3574C145.465 88.8333 145.174 88.1543 145.174 87.3203ZM148.414 89.0908C148.742 89.0908 149.066 89.0361 149.385 88.9268C149.704 88.8128 150.005 88.651 150.287 88.4414L147.819 85.4678L147.546 85.666C147.131 85.9759 146.855 86.2721 146.719 86.5547C146.587 86.8372 146.521 87.0924 146.521 87.3203C146.521 87.8353 146.682 88.2591 147.006 88.5918C147.329 88.9245 147.799 89.0908 148.414 89.0908ZM147.389 82.2959C147.389 82.5374 147.45 82.7904 147.573 83.0547C147.696 83.3145 147.881 83.5993 148.127 83.9092L149.07 83.2598C149.33 83.0866 149.506 82.8997 149.597 82.6992C149.692 82.4941 149.74 82.2686 149.74 82.0225C149.74 81.7445 149.629 81.4984 149.405 81.2842C149.187 81.07 148.899 80.9629 148.544 80.9629C148.175 80.9629 147.89 81.0928 147.689 81.3525C147.489 81.6077 147.389 81.9222 147.389 82.2959ZM157.396 89.1387L158.511 88.9473V80.3955L157.396 80.2041V79.3359H159.857V83.5879C160.113 83.2324 160.425 82.9567 160.794 82.7607C161.163 82.5648 161.573 82.4668 162.024 82.4668C162.817 82.4668 163.433 82.7038 163.87 83.1777C164.308 83.6517 164.526 84.3809 164.526 85.3652V88.9473L165.641 89.1387V90H162.065V89.1387L163.18 88.9473V85.3516C163.18 84.7409 163.048 84.2897 162.783 83.998C162.523 83.7064 162.134 83.5605 161.614 83.5605C161.245 83.5605 160.908 83.6494 160.603 83.8271C160.302 84.0003 160.053 84.2373 159.857 84.5381V88.9473L160.972 89.1387V90H157.396V89.1387ZM166.557 86.2334C166.557 85.1396 166.853 84.2396 167.445 83.5332C168.038 82.8223 168.842 82.4668 169.858 82.4668C170.879 82.4668 171.686 82.82 172.278 83.5264C172.875 84.2327 173.174 85.1351 173.174 86.2334V86.3838C173.174 87.4867 172.878 88.389 172.285 89.0908C171.693 89.7926 170.888 90.1436 169.872 90.1436C168.847 90.1436 168.038 89.7926 167.445 89.0908C166.853 88.3844 166.557 87.4821 166.557 86.3838V86.2334ZM167.903 86.3838C167.903 87.1676 168.067 87.8148 168.396 88.3252C168.728 88.8356 169.22 89.0908 169.872 89.0908C170.51 89.0908 170.995 88.8356 171.328 88.3252C171.661 87.8148 171.827 87.1676 171.827 86.3838V86.2334C171.827 85.4587 171.661 84.8138 171.328 84.2988C170.995 83.7839 170.506 83.5264 169.858 83.5264C169.211 83.5264 168.724 83.7839 168.396 84.2988C168.067 84.8138 167.903 85.4587 167.903 86.2334V86.3838ZM177.036 83.4717L176.188 83.6221L177.152 87.3066L177.31 88.2021H177.351L177.542 87.3066L179.019 82.6035H180.099L181.582 87.3066L181.794 88.3047H181.835L182.033 87.3066L182.942 83.6221L182.081 83.4717V82.6035H184.897V83.4717L184.255 83.5674L182.389 90H181.302L179.866 85.4951L179.559 84.251L179.518 84.2578L179.23 85.4951L177.822 90H176.735L174.869 83.5674L174.22 83.4717V82.6035H177.036V83.4717ZM196.505 83.4717L195.842 83.5742L193.025 91.1348C192.839 91.6315 192.57 92.0645 192.219 92.4336C191.868 92.8027 191.396 92.9873 190.804 92.9873C190.699 92.9873 190.562 92.9736 190.394 92.9463C190.225 92.9235 190.095 92.9007 190.004 92.8779L190.141 91.8184C190.113 91.8138 190.193 91.8184 190.38 91.832C190.571 91.8457 190.692 91.8525 190.742 91.8525C191.029 91.8525 191.262 91.7272 191.439 91.4766C191.617 91.2305 191.772 90.9456 191.904 90.6221L192.226 89.8564L189.785 83.5811L189.108 83.4717V82.6035H192.096V83.4717L191.262 83.6084L192.54 87.2588L192.786 88.2021H192.827L194.365 83.6084L193.524 83.4717V82.6035H196.505V83.4717ZM197.318 86.2334C197.318 85.1396 197.615 84.2396 198.207 83.5332C198.799 82.8223 199.604 82.4668 200.62 82.4668C201.641 82.4668 202.448 82.82 203.04 83.5264C203.637 84.2327 203.936 85.1351 203.936 86.2334V86.3838C203.936 87.4867 203.639 88.389 203.047 89.0908C202.454 89.7926 201.65 90.1436 200.634 90.1436C199.608 90.1436 198.799 89.7926 198.207 89.0908C197.615 88.3844 197.318 87.4821 197.318 86.3838V86.2334ZM198.665 86.3838C198.665 87.1676 198.829 87.8148 199.157 88.3252C199.49 88.8356 199.982 89.0908 200.634 89.0908C201.272 89.0908 201.757 88.8356 202.09 88.3252C202.423 87.8148 202.589 87.1676 202.589 86.3838V86.2334C202.589 85.4587 202.423 84.8138 202.09 84.2988C201.757 83.7839 201.267 83.5264 200.62 83.5264C199.973 83.5264 199.485 83.7839 199.157 84.2988C198.829 84.8138 198.665 85.4587 198.665 86.2334V86.3838ZM210.464 88.9062C210.231 89.3027 209.931 89.6081 209.562 89.8223C209.197 90.0365 208.775 90.1436 208.297 90.1436C207.495 90.1436 206.868 89.8861 206.417 89.3711C205.966 88.8561 205.74 88.054 205.74 86.9648V83.6631L204.893 83.4717V82.6035H205.74H207.087V86.9785C207.087 87.7669 207.203 88.3092 207.436 88.6055C207.668 88.9017 208.03 89.0498 208.522 89.0498C209.001 89.0498 209.395 88.9541 209.705 88.7627C210.02 88.5667 210.257 88.291 210.416 87.9355V83.6631L209.425 83.4717V82.6035H210.416H211.763V88.9473L212.61 89.1387V90H210.553L210.464 88.9062ZM216.896 89.1387L218.011 88.9473V83.6631L216.896 83.4717V82.6035H219.221L219.31 83.5674C219.547 83.2165 219.852 82.9453 220.226 82.7539C220.599 82.5625 221.032 82.4668 221.524 82.4668C222.017 82.4668 222.438 82.5807 222.789 82.8086C223.145 83.0365 223.411 83.3783 223.589 83.834C223.821 83.4147 224.129 83.082 224.512 82.8359C224.895 82.5898 225.341 82.4668 225.852 82.4668C226.608 82.4668 227.205 82.7266 227.643 83.2461C228.08 83.7611 228.299 84.5381 228.299 85.5771V88.9473L229.413 89.1387V90H225.831V89.1387L226.945 88.9473V85.5635C226.945 84.8343 226.82 84.3193 226.569 84.0186C226.319 83.7132 225.947 83.5605 225.455 83.5605C224.986 83.5605 224.607 83.7269 224.32 84.0596C224.038 84.3877 223.874 84.8024 223.828 85.3037V88.9473L224.942 89.1387V90H221.367V89.1387L222.481 88.9473V85.5635C222.481 84.8708 222.352 84.3649 222.092 84.0459C221.837 83.7223 221.465 83.5605 220.978 83.5605C220.567 83.5605 220.23 83.6449 219.966 83.8135C219.701 83.9821 219.499 84.2191 219.357 84.5244V88.9473L220.472 89.1387V90H216.896V89.1387ZM230.397 89.1387L231.512 88.9473V83.6631L230.397 83.4717V82.6035H232.858V88.9473L233.973 89.1387V90H230.397V89.1387ZM232.858 80.71H231.512V79.3359H232.858V80.71ZM235.012 86.4385C235.012 85.249 235.271 84.2897 235.791 83.5605C236.311 82.8314 237.028 82.4668 237.944 82.4668C238.409 82.4668 238.817 82.5579 239.168 82.7402C239.519 82.9225 239.813 83.1868 240.05 83.5332L240.173 82.6035H241.308V89.9043C241.308 90.8613 241.041 91.6133 240.508 92.1602C239.975 92.7116 239.216 92.9873 238.231 92.9873C237.876 92.9873 237.491 92.9372 237.076 92.8369C236.661 92.7412 236.297 92.609 235.982 92.4404L236.331 91.3945C236.582 91.5267 236.878 91.6361 237.22 91.7227C237.562 91.8092 237.894 91.8525 238.218 91.8525C238.819 91.8525 239.259 91.6839 239.537 91.3467C239.82 91.0094 239.961 90.5286 239.961 89.9043V89.2002C239.719 89.5101 239.43 89.7448 239.093 89.9043C238.756 90.0638 238.368 90.1436 237.931 90.1436C237.024 90.1436 236.311 89.8154 235.791 89.1592C235.271 88.5029 235.012 87.6439 235.012 86.582V86.4385ZM236.358 86.582C236.358 87.3249 236.516 87.9219 236.83 88.373C237.145 88.8242 237.623 89.0498 238.266 89.0498C238.671 89.0498 239.011 88.9587 239.284 88.7764C239.558 88.5895 239.783 88.3275 239.961 87.9902V84.5859C239.788 84.2715 239.562 84.0231 239.284 83.8408C239.006 83.654 238.671 83.5605 238.279 83.5605C237.637 83.5605 237.156 83.8294 236.837 84.3672C236.518 84.9049 236.358 85.5954 236.358 86.4385V86.582ZM242.75 89.1387L243.864 88.9473V80.3955L242.75 80.2041V79.3359H245.211V83.5879C245.466 83.2324 245.778 82.9567 246.147 82.7607C246.517 82.5648 246.927 82.4668 247.378 82.4668C248.171 82.4668 248.786 82.7038 249.224 83.1777C249.661 83.6517 249.88 84.3809 249.88 85.3652V88.9473L250.994 89.1387V90H247.419V89.1387L248.533 88.9473V85.3516C248.533 84.7409 248.401 84.2897 248.137 83.998C247.877 83.7064 247.487 83.5605 246.968 83.5605C246.599 83.5605 246.261 83.6494 245.956 83.8271C245.655 84.0003 245.407 84.2373 245.211 84.5381V88.9473L246.325 89.1387V90H242.75V89.1387ZM254.323 80.8193V82.6035H255.725V83.6016H254.323V88.0928C254.323 88.4391 254.394 88.6829 254.535 88.8242C254.681 88.9655 254.872 89.0361 255.109 89.0361C255.228 89.0361 255.36 89.027 255.506 89.0088C255.656 88.986 255.782 88.9632 255.882 88.9404L256.066 89.8633C255.939 89.9453 255.752 90.0114 255.506 90.0615C255.26 90.1162 255.014 90.1436 254.768 90.1436C254.221 90.1436 253.785 89.9795 253.462 89.6514C253.138 89.3187 252.977 88.7992 252.977 88.0928V83.6016H251.808V82.6035H252.977V80.8193H254.323ZM262.937 80.8193V82.6035H264.338V83.6016H262.937V88.0928C262.937 88.4391 263.007 88.6829 263.148 88.8242C263.294 88.9655 263.486 89.0361 263.723 89.0361C263.841 89.0361 263.973 89.027 264.119 89.0088C264.27 88.986 264.395 88.9632 264.495 88.9404L264.68 89.8633C264.552 89.9453 264.365 90.0114 264.119 90.0615C263.873 90.1162 263.627 90.1436 263.381 90.1436C262.834 90.1436 262.399 89.9795 262.075 89.6514C261.752 89.3187 261.59 88.7992 261.59 88.0928V83.6016H260.421V82.6035H261.59V80.8193H262.937ZM269.089 90.1436C268.059 90.1436 267.239 89.8018 266.628 89.1182C266.022 88.43 265.719 87.5391 265.719 86.4453V86.1445C265.719 85.0918 266.031 84.2168 266.655 83.5195C267.284 82.8177 268.027 82.4668 268.884 82.4668C269.877 82.4668 270.629 82.7676 271.14 83.3691C271.655 83.9707 271.912 84.7728 271.912 85.7754V86.6162H267.113L267.093 86.6504C267.106 87.3613 267.286 87.9469 267.633 88.4072C267.979 88.863 268.465 89.0908 269.089 89.0908C269.545 89.0908 269.943 89.027 270.285 88.8994C270.632 88.7673 270.93 88.5872 271.181 88.3594L271.707 89.2344C271.443 89.4896 271.092 89.7061 270.654 89.8838C270.221 90.057 269.7 90.1436 269.089 90.1436ZM268.884 83.5264C268.433 83.5264 268.048 83.7178 267.729 84.1006C267.41 84.4788 267.214 84.9551 267.141 85.5293L267.154 85.5635H270.565V85.3857C270.565 84.8571 270.424 84.415 270.142 84.0596C269.859 83.7041 269.44 83.5264 268.884 83.5264ZM278.905 84.9277H277.894L277.675 84.0391C277.511 83.8841 277.303 83.7611 277.053 83.6699C276.807 83.5742 276.526 83.5264 276.212 83.5264C275.733 83.5264 275.378 83.6312 275.146 83.8408C274.913 84.0505 274.797 84.3034 274.797 84.5996C274.797 84.8913 274.899 85.1214 275.104 85.29C275.31 85.4587 275.727 85.609 276.355 85.7412C277.29 85.9417 277.985 86.2152 278.44 86.5615C278.896 86.9033 279.124 87.3636 279.124 87.9424C279.124 88.5986 278.857 89.1296 278.324 89.5352C277.796 89.9408 277.103 90.1436 276.246 90.1436C275.686 90.1436 275.182 90.0798 274.735 89.9521C274.289 89.82 273.89 89.6309 273.539 89.3848L273.532 87.6963H274.544L274.797 88.6875C274.952 88.8288 275.161 88.9313 275.426 88.9951C275.695 89.0589 275.968 89.0908 276.246 89.0908C276.725 89.0908 277.098 88.9951 277.367 88.8037C277.641 88.6077 277.777 88.3525 277.777 88.0381C277.777 87.7419 277.663 87.498 277.436 87.3066C277.212 87.1152 276.786 86.9489 276.157 86.8076C275.259 86.6117 274.583 86.3451 274.127 86.0078C273.671 85.6706 273.443 85.2148 273.443 84.6406C273.443 84.0391 273.699 83.5264 274.209 83.1025C274.724 82.6787 275.392 82.4668 276.212 82.4668C276.772 82.4668 277.276 82.5397 277.723 82.6855C278.169 82.8314 278.541 83.0342 278.837 83.2939L278.905 84.9277ZM282.733 80.8193V82.6035H284.135V83.6016H282.733V88.0928C282.733 88.4391 282.804 88.6829 282.945 88.8242C283.091 88.9655 283.283 89.0361 283.52 89.0361C283.638 89.0361 283.77 89.027 283.916 89.0088C284.066 88.986 284.192 88.9632 284.292 88.9404L284.477 89.8633C284.349 89.9453 284.162 90.0114 283.916 90.0615C283.67 90.1162 283.424 90.1436 283.178 90.1436C282.631 90.1436 282.196 89.9795 281.872 89.6514C281.549 89.3187 281.387 88.7992 281.387 88.0928V83.6016H280.218V82.6035H281.387V80.8193H282.733ZM291.347 80.8193V82.6035H292.748V83.6016H291.347V88.0928C291.347 88.4391 291.417 88.6829 291.559 88.8242C291.704 88.9655 291.896 89.0361 292.133 89.0361C292.251 89.0361 292.383 89.027 292.529 89.0088C292.68 88.986 292.805 88.9632 292.905 88.9404L293.09 89.8633C292.962 89.9453 292.775 90.0114 292.529 90.0615C292.283 90.1162 292.037 90.1436 291.791 90.1436C291.244 90.1436 290.809 89.9795 290.485 89.6514C290.162 89.3187 290 88.7992 290 88.0928V83.6016H288.831V82.6035H290V80.8193H291.347ZM293.938 89.1387L295.052 88.9473V80.3955L293.938 80.2041V79.3359H296.398V83.5879C296.654 83.2324 296.966 82.9567 297.335 82.7607C297.704 82.5648 298.114 82.4668 298.565 82.4668C299.358 82.4668 299.974 82.7038 300.411 83.1777C300.849 83.6517 301.067 84.3809 301.067 85.3652V88.9473L302.182 89.1387V90H298.606V89.1387L299.721 88.9473V85.3516C299.721 84.7409 299.589 84.2897 299.324 83.998C299.064 83.7064 298.675 83.5605 298.155 83.5605C297.786 83.5605 297.449 83.6494 297.144 83.8271C296.843 84.0003 296.594 84.2373 296.398 84.5381V88.9473L297.513 89.1387V90H293.938V89.1387ZM306.468 90.1436C305.438 90.1436 304.618 89.8018 304.007 89.1182C303.401 88.43 303.098 87.5391 303.098 86.4453V86.1445C303.098 85.0918 303.41 84.2168 304.034 83.5195C304.663 82.8177 305.406 82.4668 306.263 82.4668C307.256 82.4668 308.008 82.7676 308.519 83.3691C309.034 83.9707 309.291 84.7728 309.291 85.7754V86.6162H304.492L304.472 86.6504C304.485 87.3613 304.665 87.9469 305.012 88.4072C305.358 88.863 305.843 89.0908 306.468 89.0908C306.924 89.0908 307.322 89.027 307.664 88.8994C308.01 88.7673 308.309 88.5872 308.56 88.3594L309.086 89.2344C308.822 89.4896 308.471 89.7061 308.033 89.8838C307.6 90.057 307.078 90.1436 306.468 90.1436ZM306.263 83.5264C305.812 83.5264 305.426 83.7178 305.107 84.1006C304.788 84.4788 304.592 84.9551 304.52 85.5293L304.533 85.5635H307.944V85.3857C307.944 84.8571 307.803 84.415 307.521 84.0596C307.238 83.7041 306.819 83.5264 306.263 83.5264ZM310.357 89.1387L311.472 88.9473V83.6631L310.357 83.4717V82.6035H312.682L312.771 83.5674C313.007 83.2165 313.313 82.9453 313.687 82.7539C314.06 82.5625 314.493 82.4668 314.985 82.4668C315.478 82.4668 315.899 82.5807 316.25 82.8086C316.605 83.0365 316.872 83.3783 317.05 83.834C317.282 83.4147 317.59 83.082 317.973 82.8359C318.355 82.5898 318.802 82.4668 319.312 82.4668C320.069 82.4668 320.666 82.7266 321.104 83.2461C321.541 83.7611 321.76 84.5381 321.76 85.5771V88.9473L322.874 89.1387V90H319.292V89.1387L320.406 88.9473V85.5635C320.406 84.8343 320.281 84.3193 320.03 84.0186C319.78 83.7132 319.408 83.5605 318.916 83.5605C318.447 83.5605 318.068 83.7269 317.781 84.0596C317.499 84.3877 317.335 84.8024 317.289 85.3037V88.9473L318.403 89.1387V90H314.828V89.1387L315.942 88.9473V85.5635C315.942 84.8708 315.812 84.3649 315.553 84.0459C315.298 83.7223 314.926 83.5605 314.438 83.5605C314.028 83.5605 313.691 83.6449 313.427 83.8135C313.162 83.9821 312.96 84.2191 312.818 84.5244V88.9473L313.933 89.1387V90H310.357V89.1387Z" fill="#666666"/>
<rect y="118" width="346" height="47" rx="4" fill="#DBDDF8"/>
<path d="M10.3828 138.25V137.047H14.5049V138.25L13.4385 138.455V141.326H17.499V138.455L16.4326 138.25V137.047H17.499H19.4883H20.5547V138.25L19.4883 138.455V145.599L20.5547 145.804V147H16.4326V145.804L17.499 145.599V142.864H13.4385V145.599L14.5049 145.804V147H10.3828V145.804L11.4424 145.599V138.455L10.3828 138.25ZM24.9229 147.144C23.8564 147.144 23.0042 146.802 22.3662 146.118C21.7282 145.435 21.4092 144.566 21.4092 143.514V143.24C21.4092 142.142 21.71 141.237 22.3115 140.526C22.9176 139.815 23.7288 139.462 24.7451 139.467C25.7432 139.467 26.5179 139.768 27.0693 140.369C27.6208 140.971 27.8965 141.784 27.8965 142.81V143.896H23.4805L23.4668 143.938C23.5033 144.425 23.665 144.826 23.9521 145.141C24.2438 145.455 24.638 145.612 25.1348 145.612C25.5768 145.612 25.9437 145.569 26.2354 145.482C26.527 145.391 26.846 145.25 27.1924 145.059L27.7324 146.289C27.4271 146.531 27.0306 146.733 26.543 146.897C26.0599 147.062 25.5199 147.144 24.9229 147.144ZM24.7451 141.005C24.376 141.005 24.0843 141.146 23.8701 141.429C23.6559 141.711 23.5238 142.083 23.4736 142.543L23.4941 142.577H25.9414V142.399C25.9414 141.976 25.8411 141.638 25.6406 141.388C25.4447 141.132 25.1462 141.005 24.7451 141.005ZM28.6348 137.539V136.336H31.6973V145.599L32.6611 145.804V147H28.7373V145.804L29.7012 145.599V137.744L28.6348 137.539ZM33.167 140.807V139.604H36.0654L36.1611 140.465C36.3799 140.146 36.6419 139.9 36.9473 139.727C37.2526 139.553 37.6081 139.467 38.0137 139.467C38.9297 139.467 39.6406 139.825 40.1465 140.54C40.6523 141.256 40.9053 142.197 40.9053 143.363V143.507C40.9053 144.601 40.6523 145.48 40.1465 146.146C39.6406 146.811 38.9342 147.144 38.0273 147.144C37.64 147.144 37.2959 147.073 36.9951 146.932C36.6943 146.786 36.4368 146.574 36.2227 146.296V148.436L37.1865 148.641V149.844H33.2695V148.641L34.2334 148.436V141.012L33.167 140.807ZM38.9092 143.363C38.9092 142.666 38.793 142.101 38.5605 141.668C38.3281 141.235 37.9727 141.019 37.4941 141.019C37.1934 141.019 36.9359 141.08 36.7217 141.203C36.512 141.326 36.3457 141.502 36.2227 141.729V144.97C36.3457 145.179 36.512 145.339 36.7217 145.448C36.9359 145.558 37.1979 145.612 37.5078 145.612C37.9909 145.612 38.3441 145.423 38.5674 145.045C38.7952 144.667 38.9092 144.154 38.9092 143.507V143.363ZM41.9033 145.804L42.8672 145.599V141.005H41.7666V139.604H42.8672V138.783C42.8672 137.954 43.1064 137.316 43.585 136.869C44.0635 136.418 44.7357 136.192 45.6016 136.192C45.7702 136.192 45.9411 136.206 46.1143 136.233C46.292 136.256 46.4857 136.29 46.6953 136.336L46.5244 137.819C46.415 137.801 46.3079 137.785 46.2031 137.771C46.1029 137.758 45.9844 137.751 45.8477 137.751C45.5241 137.751 45.278 137.84 45.1094 138.018C44.9453 138.195 44.8633 138.451 44.8633 138.783V139.604H46.333V141.005H44.8633V145.599L45.8271 145.804V147H41.9033V145.804ZM52.1777 146.063C51.9408 146.41 51.6468 146.676 51.2959 146.863C50.9495 147.05 50.5531 147.144 50.1064 147.144C49.3271 147.144 48.7165 146.895 48.2744 146.398C47.8324 145.897 47.6113 145.12 47.6113 144.067V141.012L46.7979 140.807V139.604H47.6113H49.6074V144.081C49.6074 144.619 49.6963 145.006 49.874 145.243C50.0563 145.476 50.3252 145.592 50.6807 145.592C50.9951 145.592 51.2663 145.542 51.4941 145.441C51.7266 145.337 51.9157 145.188 52.0615 144.997V141.012L51.1865 140.807V139.604H52.0615H54.0576V145.599L54.9531 145.804V147H52.3076L52.1777 146.063ZM55.5273 137.539V136.336H58.5898V145.599L59.5537 145.804V147H55.6299V145.804L56.5938 145.599V137.744L55.5273 137.539ZM67.5996 137.047V138.25L66.5332 138.455V143.65C66.5332 144.307 66.7087 144.799 67.0596 145.127C67.415 145.451 67.9004 145.612 68.5156 145.612C69.14 145.612 69.6299 145.451 69.9854 145.127C70.3408 144.803 70.5186 144.311 70.5186 143.65V138.455L69.459 138.25V137.047H73.5811V138.25L72.5146 138.455V143.65C72.5146 144.767 72.1455 145.628 71.4072 146.234C70.6735 146.84 69.7096 147.144 68.5156 147.144C67.3262 147.144 66.3646 146.84 65.6309 146.234C64.9017 145.628 64.5371 144.767 64.5371 143.65V138.455L63.4775 138.25V137.047H64.5371H66.5332H67.5996ZM74.0186 145.804L74.8594 145.64L77.4912 141.982L74.9277 138.421L74.0938 138.25V137.047H77.915V138.25L77.1016 138.339L78.6396 140.779L80.1846 138.339L79.3848 138.25V137.047H83.2197V138.25L82.3857 138.421L79.8223 141.982L82.5088 145.633L83.3906 145.804V147H79.4736V145.804L80.2666 145.722L78.667 143.206L77.0605 145.722L77.8604 145.804V147H74.0186V145.804ZM92.1953 147C92.1406 146.877 92.0928 146.752 92.0518 146.624C92.0107 146.492 91.9788 146.36 91.9561 146.228C91.7191 146.501 91.4297 146.722 91.0879 146.891C90.7507 147.059 90.3633 147.144 89.9258 147.144C89.2012 147.144 88.6247 146.948 88.1963 146.556C87.7725 146.159 87.5605 145.621 87.5605 144.942C87.5605 144.25 87.8385 143.714 88.3945 143.336C88.9505 142.958 89.7663 142.769 90.8418 142.769H91.8604V142.044C91.8604 141.688 91.7578 141.413 91.5527 141.217C91.3477 141.021 91.0446 140.923 90.6436 140.923C90.4157 140.923 90.2129 140.95 90.0352 141.005C89.8574 141.055 89.7139 141.117 89.6045 141.189L89.4746 141.982H87.9707L87.9775 140.342C88.3421 140.096 88.7591 139.888 89.2285 139.72C89.7025 139.551 90.2174 139.467 90.7734 139.467C91.6895 139.467 92.4323 139.692 93.002 140.144C93.5762 140.59 93.8633 141.228 93.8633 142.058V145.113C93.8633 145.227 93.8633 145.334 93.8633 145.435C93.8678 145.535 93.877 145.631 93.8906 145.722L94.499 145.804V147H92.1953ZM90.4658 145.667C90.7666 145.667 91.04 145.603 91.2861 145.476C91.5322 145.343 91.7236 145.179 91.8604 144.983V143.855H90.8418C90.418 143.855 90.0967 143.956 89.8779 144.156C89.6592 144.352 89.5498 144.589 89.5498 144.867C89.5498 145.118 89.6296 145.314 89.7891 145.455C89.9531 145.596 90.1787 145.667 90.4658 145.667ZM95.333 145.804L96.29 145.599V141.012L95.2305 140.807V139.604H98.1494L98.2383 140.684C98.4115 140.301 98.6348 140.002 98.9082 139.788C99.1816 139.574 99.4984 139.467 99.8584 139.467C99.9632 139.467 100.073 139.476 100.187 139.494C100.305 139.508 100.403 139.526 100.48 139.549L100.269 141.367L99.4482 141.347C99.1566 141.347 98.915 141.404 98.7236 141.518C98.5322 141.632 98.3864 141.793 98.2861 142.003V145.599L99.2432 145.804V147H95.333V145.804ZM104.186 137.792V139.604H105.484V141.005H104.186V144.771C104.186 145.059 104.245 145.264 104.363 145.387C104.482 145.51 104.641 145.571 104.842 145.571C104.979 145.571 105.097 145.567 105.197 145.558C105.302 145.544 105.418 145.523 105.546 145.496L105.717 146.938C105.493 147.007 105.272 147.057 105.054 147.089C104.835 147.125 104.598 147.144 104.343 147.144C103.655 147.144 103.124 146.954 102.75 146.576C102.381 146.198 102.196 145.599 102.196 144.778V141.005H101.109V139.604H102.196V137.792H104.186ZM106.4 145.804L107.364 145.599V141.012L106.298 140.807V139.604H109.36V145.599L110.317 145.804V147H106.4V145.804ZM109.36 137.833H107.364V136.336H109.36V137.833ZM114.446 145.612C114.802 145.612 115.087 145.51 115.301 145.305C115.515 145.095 115.622 144.817 115.622 144.471H117.427L117.447 144.512C117.465 145.259 117.185 145.886 116.606 146.392C116.028 146.893 115.308 147.144 114.446 147.144C113.343 147.144 112.493 146.795 111.896 146.098C111.299 145.4 111.001 144.505 111.001 143.411V143.206C111.001 142.117 111.306 141.221 111.917 140.52C112.532 139.818 113.407 139.467 114.542 139.467C115.139 139.467 115.674 139.556 116.148 139.733C116.622 139.911 117.017 140.162 117.331 140.485L117.358 142.461H115.738L115.41 141.306C115.31 141.219 115.187 141.148 115.041 141.094C114.895 141.035 114.729 141.005 114.542 141.005C113.977 141.005 113.578 141.21 113.346 141.62C113.113 142.03 112.997 142.559 112.997 143.206V143.411C112.997 144.072 113.104 144.605 113.318 145.011C113.533 145.412 113.909 145.612 114.446 145.612ZM118.145 137.539V136.336H121.207V145.599L122.171 145.804V147H118.247V145.804L119.211 145.599V137.744L118.145 137.539ZM126.368 147.144C125.302 147.144 124.45 146.802 123.812 146.118C123.174 145.435 122.854 144.566 122.854 143.514V143.24C122.854 142.142 123.155 141.237 123.757 140.526C124.363 139.815 125.174 139.462 126.19 139.467C127.188 139.467 127.963 139.768 128.515 140.369C129.066 140.971 129.342 141.784 129.342 142.81V143.896H124.926L124.912 143.938C124.949 144.425 125.11 144.826 125.397 145.141C125.689 145.455 126.083 145.612 126.58 145.612C127.022 145.612 127.389 145.569 127.681 145.482C127.972 145.391 128.291 145.25 128.638 145.059L129.178 146.289C128.872 146.531 128.476 146.733 127.988 146.897C127.505 147.062 126.965 147.144 126.368 147.144ZM126.19 141.005C125.821 141.005 125.53 141.146 125.315 141.429C125.101 141.711 124.969 142.083 124.919 142.543L124.939 142.577H127.387V142.399C127.387 141.976 127.286 141.638 127.086 141.388C126.89 141.132 126.591 141.005 126.19 141.005ZM136.328 142.146H134.988L134.776 141.224C134.64 141.114 134.466 141.023 134.257 140.95C134.052 140.877 133.824 140.841 133.573 140.841C133.222 140.841 132.944 140.921 132.739 141.08C132.534 141.235 132.432 141.431 132.432 141.668C132.432 141.891 132.53 142.078 132.726 142.229C132.922 142.374 133.313 142.504 133.901 142.618C134.817 142.8 135.496 143.069 135.938 143.425C136.381 143.776 136.602 144.261 136.602 144.881C136.602 145.546 136.314 146.091 135.74 146.515C135.171 146.934 134.419 147.144 133.484 147.144C132.915 147.144 132.391 147.062 131.912 146.897C131.438 146.729 131.017 146.49 130.647 146.18L130.627 144.519H132.021L132.295 145.482C132.413 145.583 132.575 145.658 132.78 145.708C132.985 145.754 133.2 145.776 133.423 145.776C133.828 145.776 134.136 145.703 134.346 145.558C134.56 145.412 134.667 145.214 134.667 144.963C134.667 144.744 134.56 144.555 134.346 144.396C134.132 144.236 133.737 144.095 133.163 143.972C132.293 143.794 131.634 143.532 131.188 143.186C130.745 142.835 130.524 142.358 130.524 141.757C130.524 141.137 130.78 140.604 131.29 140.157C131.8 139.706 132.527 139.48 133.471 139.48C134.045 139.48 134.587 139.558 135.098 139.713C135.613 139.868 136.016 140.066 136.308 140.308L136.328 142.146ZM139.678 147H137.688V145.25H139.678V147ZM139.678 141.36H137.688V139.61H139.678V141.36ZM147.655 137.047V137.915L146.541 138.106V143.794C146.541 144.546 146.755 145.118 147.184 145.51C147.612 145.897 148.177 146.091 148.879 146.091C149.617 146.091 150.212 145.897 150.663 145.51C151.114 145.122 151.34 144.55 151.34 143.794V138.106L150.226 137.915V137.047H152.687H153.801V137.915L152.687 138.106V143.794C152.687 144.874 152.333 145.703 151.627 146.282C150.925 146.856 150.009 147.144 148.879 147.144C147.781 147.144 146.892 146.856 146.213 146.282C145.534 145.703 145.194 144.874 145.194 143.794V138.106L144.08 137.915V137.047H145.194H147.655ZM154.505 146.139L155.4 145.988L158.23 141.982L155.469 138.065L154.573 137.915V137.047H157.8V137.915L157 138.004L158.989 140.991L160.999 138.004L160.199 137.915V137.047H163.446V137.915L162.551 138.065L159.789 141.982L162.612 145.988L163.515 146.139V147H160.295V146.139L161.081 146.05L159.017 142.987L156.945 146.05L157.745 146.139V147H154.505V146.139ZM172.148 137.054C173.233 137.054 174.065 137.295 174.644 137.778C175.222 138.257 175.512 138.938 175.512 139.822C175.512 140.305 175.377 140.734 175.108 141.107C174.84 141.481 174.454 141.775 173.953 141.989C174.495 142.167 174.885 142.456 175.122 142.857C175.364 143.258 175.484 143.753 175.484 144.341V145.141C175.484 145.446 175.523 145.672 175.601 145.817C175.678 145.963 175.806 146.05 175.983 146.077L176.312 146.118V147H175.587C175.063 147 174.689 146.818 174.466 146.453C174.247 146.089 174.138 145.646 174.138 145.127V144.354C174.138 143.812 173.98 143.377 173.666 143.049C173.352 142.721 172.93 142.557 172.401 142.557H170.241V145.947L171.355 146.139V147H167.78V146.139L168.895 145.947V138.106L167.78 137.915V137.054H168.895H172.148ZM170.241 141.497H172.012C172.764 141.497 173.311 141.354 173.652 141.066C173.994 140.779 174.165 140.36 174.165 139.809C174.165 139.285 174.001 138.87 173.673 138.564C173.345 138.259 172.837 138.106 172.148 138.106H170.241V141.497ZM180.755 147.144C179.725 147.144 178.905 146.802 178.294 146.118C177.688 145.43 177.385 144.539 177.385 143.445V143.145C177.385 142.092 177.697 141.217 178.321 140.52C178.95 139.818 179.693 139.467 180.55 139.467C181.543 139.467 182.295 139.768 182.806 140.369C183.321 140.971 183.578 141.773 183.578 142.775V143.616H178.779L178.759 143.65C178.772 144.361 178.952 144.947 179.299 145.407C179.645 145.863 180.131 146.091 180.755 146.091C181.211 146.091 181.609 146.027 181.951 145.899C182.298 145.767 182.596 145.587 182.847 145.359L183.373 146.234C183.109 146.49 182.758 146.706 182.32 146.884C181.887 147.057 181.366 147.144 180.755 147.144ZM180.55 140.526C180.099 140.526 179.714 140.718 179.395 141.101C179.076 141.479 178.88 141.955 178.807 142.529L178.82 142.563H182.231V142.386C182.231 141.857 182.09 141.415 181.808 141.06C181.525 140.704 181.106 140.526 180.55 140.526ZM190.571 141.928H189.56L189.341 141.039C189.177 140.884 188.969 140.761 188.719 140.67C188.473 140.574 188.192 140.526 187.878 140.526C187.399 140.526 187.044 140.631 186.812 140.841C186.579 141.05 186.463 141.303 186.463 141.6C186.463 141.891 186.565 142.121 186.771 142.29C186.976 142.459 187.393 142.609 188.021 142.741C188.956 142.942 189.651 143.215 190.106 143.562C190.562 143.903 190.79 144.364 190.79 144.942C190.79 145.599 190.523 146.13 189.99 146.535C189.462 146.941 188.769 147.144 187.912 147.144C187.352 147.144 186.848 147.08 186.401 146.952C185.955 146.82 185.556 146.631 185.205 146.385L185.198 144.696H186.21L186.463 145.688C186.618 145.829 186.827 145.931 187.092 145.995C187.361 146.059 187.634 146.091 187.912 146.091C188.391 146.091 188.764 145.995 189.033 145.804C189.307 145.608 189.443 145.353 189.443 145.038C189.443 144.742 189.329 144.498 189.102 144.307C188.878 144.115 188.452 143.949 187.823 143.808C186.925 143.612 186.249 143.345 185.793 143.008C185.337 142.671 185.109 142.215 185.109 141.641C185.109 141.039 185.365 140.526 185.875 140.103C186.39 139.679 187.058 139.467 187.878 139.467C188.438 139.467 188.942 139.54 189.389 139.686C189.835 139.831 190.207 140.034 190.503 140.294L190.571 141.928ZM195.425 147.144C194.395 147.144 193.575 146.802 192.964 146.118C192.358 145.43 192.055 144.539 192.055 143.445V143.145C192.055 142.092 192.367 141.217 192.991 140.52C193.62 139.818 194.363 139.467 195.22 139.467C196.213 139.467 196.965 139.768 197.476 140.369C197.991 140.971 198.248 141.773 198.248 142.775V143.616H193.449L193.429 143.65C193.442 144.361 193.622 144.947 193.969 145.407C194.315 145.863 194.8 146.091 195.425 146.091C195.881 146.091 196.279 146.027 196.621 145.899C196.967 145.767 197.266 145.587 197.517 145.359L198.043 146.234C197.779 146.49 197.428 146.706 196.99 146.884C196.557 147.057 196.035 147.144 195.425 147.144ZM195.22 140.526C194.769 140.526 194.383 140.718 194.064 141.101C193.745 141.479 193.549 141.955 193.477 142.529L193.49 142.563H196.901V142.386C196.901 141.857 196.76 141.415 196.478 141.06C196.195 140.704 195.776 140.526 195.22 140.526ZM204.407 147C204.366 146.799 204.334 146.619 204.312 146.46C204.289 146.3 204.273 146.141 204.264 145.981C204.004 146.314 203.678 146.592 203.286 146.815C202.899 147.034 202.484 147.144 202.042 147.144C201.272 147.144 200.686 146.957 200.285 146.583C199.884 146.205 199.684 145.674 199.684 144.99C199.684 144.288 199.966 143.748 200.531 143.37C201.101 142.987 201.88 142.796 202.869 142.796H204.257V141.935C204.257 141.502 204.12 141.16 203.847 140.909C203.573 140.654 203.193 140.526 202.705 140.526C202.368 140.526 202.069 140.57 201.81 140.656C201.554 140.743 201.347 140.861 201.188 141.012L201.044 141.791H200.005V140.355C200.342 140.087 200.75 139.872 201.229 139.713C201.707 139.549 202.227 139.467 202.787 139.467C203.626 139.467 204.305 139.681 204.824 140.109C205.344 140.538 205.604 141.151 205.604 141.948V145.51C205.604 145.605 205.604 145.699 205.604 145.79C205.608 145.881 205.615 145.972 205.624 146.063L206.171 146.139V147H204.407ZM202.24 146.016C202.687 146.016 203.095 145.909 203.464 145.694C203.833 145.48 204.097 145.223 204.257 144.922V143.705H202.821C202.27 143.705 201.832 143.833 201.509 144.088C201.19 144.343 201.03 144.653 201.03 145.018C201.03 145.341 201.131 145.59 201.331 145.763C201.532 145.931 201.835 146.016 202.24 146.016ZM207.292 140.472V139.604H209.609L209.739 140.677C209.949 140.299 210.206 140.002 210.512 139.788C210.822 139.574 211.175 139.467 211.571 139.467C211.676 139.467 211.783 139.476 211.893 139.494C212.007 139.508 212.093 139.524 212.152 139.542L211.975 140.793L211.209 140.752C210.854 140.752 210.555 140.836 210.313 141.005C210.072 141.169 209.885 141.401 209.753 141.702V145.947L210.867 146.139V147H207.292V146.139L208.406 145.947V140.663L207.292 140.472ZM216.274 146.091C216.721 146.091 217.113 145.954 217.45 145.681C217.792 145.403 217.963 145.063 217.963 144.662H219.173L219.187 144.703C219.209 145.341 218.924 145.909 218.332 146.405C217.744 146.897 217.058 147.144 216.274 147.144C215.199 147.144 214.376 146.793 213.807 146.091C213.242 145.389 212.959 144.507 212.959 143.445V143.158C212.959 142.105 213.244 141.228 213.813 140.526C214.383 139.82 215.203 139.467 216.274 139.467C216.867 139.467 217.398 139.565 217.867 139.761C218.341 139.957 218.733 140.226 219.043 140.567L219.104 142.208H218.031L217.737 141.046C217.578 140.891 217.373 140.766 217.122 140.67C216.871 140.574 216.589 140.526 216.274 140.526C215.568 140.526 215.062 140.782 214.757 141.292C214.456 141.798 214.306 142.42 214.306 143.158V143.445C214.306 144.202 214.456 144.833 214.757 145.339C215.058 145.84 215.563 146.091 216.274 146.091ZM220.314 146.139L221.429 145.947V137.396L220.314 137.204V136.336H222.775V140.588C223.031 140.232 223.343 139.957 223.712 139.761C224.081 139.565 224.491 139.467 224.942 139.467C225.735 139.467 226.351 139.704 226.788 140.178C227.226 140.652 227.444 141.381 227.444 142.365V145.947L228.559 146.139V147H224.983V146.139L226.098 145.947V142.352C226.098 141.741 225.965 141.29 225.701 140.998C225.441 140.706 225.052 140.561 224.532 140.561C224.163 140.561 223.826 140.649 223.521 140.827C223.22 141 222.971 141.237 222.775 141.538V145.947L223.89 146.139V147H220.314V146.139Z" fill="#666666"/>
<path d="M143.67 148.367H228.928V149.051H143.67V148.367Z" fill="#666666"/>
</svg>
