<svg width="1308" height="508" viewBox="0 0 1308 508" fill="none" xmlns="http://www.w3.org/2000/svg">
<circle cx="1304" cy="4" r="4" fill="#DCE0F7" fill-opacity="0.5"/>
<circle cx="1304" cy="54" r="4" fill="#DCE0F7" fill-opacity="0.5"/>
<circle cx="1304" cy="104" r="4" fill="#DCE0F7" fill-opacity="0.5"/>
<circle cx="1304" cy="154" r="4" fill="#DCE0F7" fill-opacity="0.5"/>
<circle cx="1304" cy="204" r="4" fill="#DCE0F7" fill-opacity="0.5"/>
<circle cx="1304" cy="254" r="4" fill="#DCE0F7" fill-opacity="0.5"/>
<circle cx="1304" cy="304" r="4" fill="#DCE0F7" fill-opacity="0.5"/>
<circle cx="1304" cy="354" r="4" fill="#DCE0F7" fill-opacity="0.5"/>
<circle cx="1304" cy="404" r="4" fill="#DCE0F7" fill-opacity="0.5"/>
<circle cx="1304" cy="454" r="4" fill="#DCE0F7" fill-opacity="0.5"/>
<circle cx="1304" cy="504" r="4" fill="#DCE0F7" fill-opacity="0.5"/>
<circle cx="1254" cy="4" r="4" fill="#DCE0F7" fill-opacity="0.5"/>
<circle cx="1254" cy="54" r="4" fill="#DCE0F7" fill-opacity="0.5"/>
<circle cx="1254" cy="104" r="4" fill="#DCE0F7" fill-opacity="0.5"/>
<circle cx="1254" cy="154" r="4" fill="#DCE0F7" fill-opacity="0.5"/>
<circle cx="1254" cy="204" r="4" fill="#DCE0F7" fill-opacity="0.5"/>
<circle cx="1254" cy="254" r="4" fill="#DCE0F7" fill-opacity="0.5"/>
<circle cx="1254" cy="304" r="4" fill="#DCE0F7" fill-opacity="0.5"/>
<circle cx="1254" cy="354" r="4" fill="#DCE0F7" fill-opacity="0.5"/>
<circle cx="1254" cy="404" r="4" fill="#DCE0F7" fill-opacity="0.5"/>
<circle cx="1254" cy="454" r="4" fill="#DCE0F7" fill-opacity="0.5"/>
<circle cx="1254" cy="504" r="4" fill="#DCE0F7" fill-opacity="0.5"/>
<circle cx="1204" cy="4" r="4" fill="#DCE0F7" fill-opacity="0.5"/>
<circle cx="1204" cy="54" r="4" fill="#DCE0F7" fill-opacity="0.5"/>
<circle cx="1204" cy="104" r="4" fill="#DCE0F7" fill-opacity="0.5"/>
<circle cx="1204" cy="154" r="4" fill="#DCE0F7" fill-opacity="0.5"/>
<circle cx="1204" cy="204" r="4" fill="#DCE0F7" fill-opacity="0.5"/>
<circle cx="1204" cy="254" r="4" fill="#DCE0F7" fill-opacity="0.5"/>
<circle cx="1204" cy="304" r="4" fill="#DCE0F7" fill-opacity="0.5"/>
<circle cx="1204" cy="354" r="4" fill="#DCE0F7" fill-opacity="0.5"/>
<circle cx="1204" cy="404" r="4" fill="#DCE0F7" fill-opacity="0.5"/>
<circle cx="1204" cy="454" r="4" fill="#DCE0F7" fill-opacity="0.5"/>
<circle cx="1204" cy="504" r="4" fill="#DCE0F7" fill-opacity="0.5"/>
<circle cx="1154" cy="4" r="4" fill="#DCE0F7" fill-opacity="0.5"/>
<circle cx="1154" cy="54" r="4" fill="#DCE0F7" fill-opacity="0.5"/>
<circle cx="1154" cy="104" r="4" fill="#DCE0F7" fill-opacity="0.5"/>
<circle cx="1154" cy="154" r="4" fill="#DCE0F7" fill-opacity="0.5"/>
<circle cx="1154" cy="204" r="4" fill="#DCE0F7" fill-opacity="0.5"/>
<circle cx="1154" cy="254" r="4" fill="#DCE0F7" fill-opacity="0.5"/>
<circle cx="1154" cy="304" r="4" fill="#DCE0F7" fill-opacity="0.5"/>
<circle cx="1154" cy="354" r="4" fill="#DCE0F7" fill-opacity="0.5"/>
<circle cx="1154" cy="404" r="4" fill="#DCE0F7" fill-opacity="0.5"/>
<circle cx="1154" cy="454" r="4" fill="#DCE0F7" fill-opacity="0.5"/>
<circle cx="1154" cy="504" r="4" fill="#DCE0F7" fill-opacity="0.5"/>
<circle cx="1104" cy="4" r="4" fill="#DCE0F7" fill-opacity="0.5"/>
<circle cx="1104" cy="54" r="4" fill="#DCE0F7" fill-opacity="0.5"/>
<circle cx="1104" cy="104" r="4" fill="#DCE0F7" fill-opacity="0.5"/>
<circle cx="1104" cy="154" r="4" fill="#DCE0F7" fill-opacity="0.5"/>
<circle cx="1104" cy="204" r="4" fill="#DCE0F7" fill-opacity="0.5"/>
<circle cx="1104" cy="254" r="4" fill="#DCE0F7" fill-opacity="0.5"/>
<circle cx="1104" cy="304" r="4" fill="#DCE0F7" fill-opacity="0.5"/>
<circle cx="1104" cy="354" r="4" fill="#DCE0F7" fill-opacity="0.5"/>
<circle cx="1104" cy="404" r="4" fill="#DCE0F7" fill-opacity="0.5"/>
<circle cx="1104" cy="454" r="4" fill="#DCE0F7" fill-opacity="0.5"/>
<circle cx="1104" cy="504" r="4" fill="#DCE0F7" fill-opacity="0.5"/>
<circle cx="1054" cy="4" r="4" fill="#DCE0F7" fill-opacity="0.5"/>
<circle cx="1054" cy="54" r="4" fill="#DCE0F7" fill-opacity="0.5"/>
<circle cx="1054" cy="104" r="4" fill="#DCE0F7" fill-opacity="0.5"/>
<circle cx="1054" cy="154" r="4" fill="#DCE0F7" fill-opacity="0.5"/>
<circle cx="1054" cy="204" r="4" fill="#DCE0F7" fill-opacity="0.5"/>
<circle cx="1054" cy="254" r="4" fill="#DCE0F7" fill-opacity="0.5"/>
<circle cx="1054" cy="304" r="4" fill="#DCE0F7" fill-opacity="0.5"/>
<circle cx="1054" cy="354" r="4" fill="#DCE0F7" fill-opacity="0.5"/>
<circle cx="1054" cy="404" r="4" fill="#DCE0F7" fill-opacity="0.5"/>
<circle cx="1054" cy="454" r="4" fill="#DCE0F7" fill-opacity="0.5"/>
<circle cx="1054" cy="504" r="4" fill="#DCE0F7" fill-opacity="0.5"/>
<circle cx="1004" cy="4" r="4" fill="#DCE0F7" fill-opacity="0.5"/>
<circle cx="1004" cy="54" r="4" fill="#DCE0F7" fill-opacity="0.5"/>
<circle cx="1004" cy="104" r="4" fill="#DCE0F7" fill-opacity="0.5"/>
<circle cx="1004" cy="154" r="4" fill="#DCE0F7" fill-opacity="0.5"/>
<circle cx="1004" cy="204" r="4" fill="#DCE0F7" fill-opacity="0.5"/>
<circle cx="1004" cy="254" r="4" fill="#DCE0F7" fill-opacity="0.5"/>
<circle cx="1004" cy="304" r="4" fill="#DCE0F7" fill-opacity="0.5"/>
<circle cx="1004" cy="354" r="4" fill="#DCE0F7" fill-opacity="0.5"/>
<circle cx="1004" cy="404" r="4" fill="#DCE0F7" fill-opacity="0.5"/>
<circle cx="1004" cy="454" r="4" fill="#DCE0F7" fill-opacity="0.5"/>
<circle cx="1004" cy="504" r="4" fill="#DCE0F7" fill-opacity="0.5"/>
<circle cx="954" cy="4" r="4" fill="#DCE0F7" fill-opacity="0.5"/>
<circle cx="954" cy="54" r="4" fill="#DCE0F7" fill-opacity="0.5"/>
<circle cx="954" cy="104" r="4" fill="#DCE0F7" fill-opacity="0.5"/>
<circle cx="954" cy="154" r="4" fill="#DCE0F7" fill-opacity="0.5"/>
<circle cx="954" cy="204" r="4" fill="#DCE0F7" fill-opacity="0.5"/>
<circle cx="954" cy="254" r="4" fill="#DCE0F7" fill-opacity="0.5"/>
<circle cx="954" cy="304" r="4" fill="#DCE0F7" fill-opacity="0.5"/>
<circle cx="954" cy="354" r="4" fill="#DCE0F7" fill-opacity="0.5"/>
<circle cx="954" cy="404" r="4" fill="#DCE0F7" fill-opacity="0.5"/>
<circle cx="954" cy="454" r="4" fill="#DCE0F7" fill-opacity="0.5"/>
<circle cx="954" cy="504" r="4" fill="#DCE0F7" fill-opacity="0.5"/>
<circle cx="904" cy="4" r="4" fill="#DCE0F7" fill-opacity="0.5"/>
<circle cx="904" cy="54" r="4" fill="#DCE0F7" fill-opacity="0.5"/>
<circle cx="904" cy="104" r="4" fill="#DCE0F7" fill-opacity="0.5"/>
<circle cx="904" cy="154" r="4" fill="#DCE0F7" fill-opacity="0.5"/>
<circle cx="904" cy="204" r="4" fill="#DCE0F7" fill-opacity="0.5"/>
<circle cx="904" cy="254" r="4" fill="#DCE0F7" fill-opacity="0.5"/>
<circle cx="904" cy="304" r="4" fill="#DCE0F7" fill-opacity="0.5"/>
<circle cx="904" cy="354" r="4" fill="#DCE0F7" fill-opacity="0.5"/>
<circle cx="904" cy="404" r="4" fill="#DCE0F7" fill-opacity="0.5"/>
<circle cx="904" cy="454" r="4" fill="#DCE0F7" fill-opacity="0.5"/>
<circle cx="904" cy="504" r="4" fill="#DCE0F7" fill-opacity="0.5"/>
<circle cx="854" cy="4" r="4" fill="#DCE0F7" fill-opacity="0.5"/>
<circle cx="854" cy="54" r="4" fill="#DCE0F7" fill-opacity="0.5"/>
<circle cx="854" cy="104" r="4" fill="#DCE0F7" fill-opacity="0.5"/>
<circle cx="854" cy="154" r="4" fill="#DCE0F7" fill-opacity="0.5"/>
<circle cx="854" cy="204" r="4" fill="#DCE0F7" fill-opacity="0.5"/>
<circle cx="854" cy="254" r="4" fill="#DCE0F7" fill-opacity="0.5"/>
<circle cx="854" cy="304" r="4" fill="#DCE0F7" fill-opacity="0.5"/>
<circle cx="854" cy="354" r="4" fill="#DCE0F7" fill-opacity="0.5"/>
<circle cx="854" cy="404" r="4" fill="#DCE0F7" fill-opacity="0.5"/>
<circle cx="854" cy="454" r="4" fill="#DCE0F7" fill-opacity="0.5"/>
<circle cx="854" cy="504" r="4" fill="#DCE0F7" fill-opacity="0.5"/>
<circle cx="804" cy="4" r="4" fill="#DCE0F7" fill-opacity="0.5"/>
<circle cx="804" cy="54" r="4" fill="#DCE0F7" fill-opacity="0.5"/>
<circle cx="804" cy="104" r="4" fill="#DCE0F7" fill-opacity="0.5"/>
<circle cx="804" cy="154" r="4" fill="#DCE0F7" fill-opacity="0.5"/>
<circle cx="804" cy="204" r="4" fill="#DCE0F7" fill-opacity="0.5"/>
<circle cx="804" cy="254" r="4" fill="#DCE0F7" fill-opacity="0.5"/>
<circle cx="804" cy="304" r="4" fill="#DCE0F7" fill-opacity="0.5"/>
<circle cx="804" cy="354" r="4" fill="#DCE0F7" fill-opacity="0.5"/>
<circle cx="804" cy="404" r="4" fill="#DCE0F7" fill-opacity="0.5"/>
<circle cx="804" cy="454" r="4" fill="#DCE0F7" fill-opacity="0.5"/>
<circle cx="804" cy="504" r="4" fill="#DCE0F7" fill-opacity="0.5"/>
<circle cx="754" cy="4" r="4" fill="#DCE0F7" fill-opacity="0.5"/>
<circle cx="754" cy="54" r="4" fill="#DCE0F7" fill-opacity="0.5"/>
<circle cx="754" cy="104" r="4" fill="#DCE0F7" fill-opacity="0.5"/>
<circle cx="754" cy="154" r="4" fill="#DCE0F7" fill-opacity="0.5"/>
<circle cx="754" cy="204" r="4" fill="#DCE0F7" fill-opacity="0.5"/>
<circle cx="754" cy="254" r="4" fill="#DCE0F7" fill-opacity="0.5"/>
<circle cx="754" cy="304" r="4" fill="#DCE0F7" fill-opacity="0.5"/>
<circle cx="754" cy="354" r="4" fill="#DCE0F7" fill-opacity="0.5"/>
<circle cx="754" cy="404" r="4" fill="#DCE0F7" fill-opacity="0.5"/>
<circle cx="754" cy="454" r="4" fill="#DCE0F7" fill-opacity="0.5"/>
<circle cx="754" cy="504" r="4" fill="#DCE0F7" fill-opacity="0.5"/>
<circle cx="704" cy="4" r="4" fill="#DCE0F7" fill-opacity="0.5"/>
<circle cx="704" cy="54" r="4" fill="#DCE0F7" fill-opacity="0.5"/>
<circle cx="704" cy="104" r="4" fill="#DCE0F7" fill-opacity="0.5"/>
<circle cx="704" cy="154" r="4" fill="#DCE0F7" fill-opacity="0.5"/>
<circle cx="704" cy="204" r="4" fill="#DCE0F7" fill-opacity="0.5"/>
<circle cx="704" cy="254" r="4" fill="#DCE0F7" fill-opacity="0.5"/>
<circle cx="704" cy="304" r="4" fill="#DCE0F7" fill-opacity="0.5"/>
<circle cx="704" cy="354" r="4" fill="#DCE0F7" fill-opacity="0.5"/>
<circle cx="704" cy="404" r="4" fill="#DCE0F7" fill-opacity="0.5"/>
<circle cx="704" cy="454" r="4" fill="#DCE0F7" fill-opacity="0.5"/>
<circle cx="704" cy="504" r="4" fill="#DCE0F7" fill-opacity="0.5"/>
<circle cx="654" cy="4" r="4" fill="#DCE0F7" fill-opacity="0.5"/>
<circle cx="654" cy="54" r="4" fill="#DCE0F7" fill-opacity="0.5"/>
<circle cx="654" cy="104" r="4" fill="#DCE0F7" fill-opacity="0.5"/>
<circle cx="654" cy="154" r="4" fill="#DCE0F7" fill-opacity="0.5"/>
<circle cx="654" cy="204" r="4" fill="#DCE0F7" fill-opacity="0.5"/>
<circle cx="654" cy="254" r="4" fill="#DCE0F7" fill-opacity="0.5"/>
<circle cx="654" cy="304" r="4" fill="#DCE0F7" fill-opacity="0.5"/>
<circle cx="654" cy="354" r="4" fill="#DCE0F7" fill-opacity="0.5"/>
<circle cx="654" cy="404" r="4" fill="#DCE0F7" fill-opacity="0.5"/>
<circle cx="654" cy="454" r="4" fill="#DCE0F7" fill-opacity="0.5"/>
<circle cx="654" cy="504" r="4" fill="#DCE0F7" fill-opacity="0.5"/>
<circle cx="604" cy="4" r="4" fill="#DCE0F7" fill-opacity="0.5"/>
<circle cx="604" cy="54" r="4" fill="#DCE0F7" fill-opacity="0.5"/>
<circle cx="604" cy="104" r="4" fill="#DCE0F7" fill-opacity="0.5"/>
<circle cx="604" cy="154" r="4" fill="#DCE0F7" fill-opacity="0.5"/>
<circle cx="604" cy="204" r="4" fill="#DCE0F7" fill-opacity="0.5"/>
<circle cx="604" cy="254" r="4" fill="#DCE0F7" fill-opacity="0.5"/>
<circle cx="604" cy="304" r="4" fill="#DCE0F7" fill-opacity="0.5"/>
<circle cx="604" cy="354" r="4" fill="#DCE0F7" fill-opacity="0.5"/>
<circle cx="604" cy="404" r="4" fill="#DCE0F7" fill-opacity="0.5"/>
<circle cx="604" cy="454" r="4" fill="#DCE0F7" fill-opacity="0.5"/>
<circle cx="604" cy="504" r="4" fill="#DCE0F7" fill-opacity="0.5"/>
<circle cx="554" cy="4" r="4" fill="#DCE0F7" fill-opacity="0.5"/>
<circle cx="554" cy="54" r="4" fill="#DCE0F7" fill-opacity="0.5"/>
<circle cx="554" cy="104" r="4" fill="#DCE0F7" fill-opacity="0.5"/>
<circle cx="554" cy="154" r="4" fill="#DCE0F7" fill-opacity="0.5"/>
<circle cx="554" cy="204" r="4" fill="#DCE0F7" fill-opacity="0.5"/>
<circle cx="554" cy="254" r="4" fill="#DCE0F7" fill-opacity="0.5"/>
<circle cx="554" cy="304" r="4" fill="#DCE0F7" fill-opacity="0.5"/>
<circle cx="554" cy="354" r="4" fill="#DCE0F7" fill-opacity="0.5"/>
<circle cx="554" cy="404" r="4" fill="#DCE0F7" fill-opacity="0.5"/>
<circle cx="554" cy="454" r="4" fill="#DCE0F7" fill-opacity="0.5"/>
<circle cx="554" cy="504" r="4" fill="#DCE0F7" fill-opacity="0.5"/>
<circle cx="504" cy="4" r="4" fill="#DCE0F7" fill-opacity="0.5"/>
<circle cx="504" cy="54" r="4" fill="#DCE0F7" fill-opacity="0.5"/>
<circle cx="504" cy="104" r="4" fill="#DCE0F7" fill-opacity="0.5"/>
<circle cx="504" cy="154" r="4" fill="#DCE0F7" fill-opacity="0.5"/>
<circle cx="504" cy="204" r="4" fill="#DCE0F7" fill-opacity="0.5"/>
<circle cx="504" cy="254" r="4" fill="#DCE0F7" fill-opacity="0.5"/>
<circle cx="504" cy="304" r="4" fill="#DCE0F7" fill-opacity="0.5"/>
<circle cx="504" cy="354" r="4" fill="#DCE0F7" fill-opacity="0.5"/>
<circle cx="504" cy="404" r="4" fill="#DCE0F7" fill-opacity="0.5"/>
<circle cx="504" cy="454" r="4" fill="#DCE0F7" fill-opacity="0.5"/>
<circle cx="504" cy="504" r="4" fill="#DCE0F7" fill-opacity="0.5"/>
<circle cx="454" cy="4" r="4" fill="#DCE0F7" fill-opacity="0.5"/>
<circle cx="454" cy="54" r="4" fill="#DCE0F7" fill-opacity="0.5"/>
<circle cx="454" cy="104" r="4" fill="#DCE0F7" fill-opacity="0.5"/>
<circle cx="454" cy="154" r="4" fill="#DCE0F7" fill-opacity="0.5"/>
<circle cx="454" cy="204" r="4" fill="#DCE0F7" fill-opacity="0.5"/>
<circle cx="454" cy="254" r="4" fill="#DCE0F7" fill-opacity="0.5"/>
<circle cx="454" cy="304" r="4" fill="#DCE0F7" fill-opacity="0.5"/>
<circle cx="454" cy="354" r="4" fill="#DCE0F7" fill-opacity="0.5"/>
<circle cx="454" cy="404" r="4" fill="#DCE0F7" fill-opacity="0.5"/>
<circle cx="454" cy="454" r="4" fill="#DCE0F7" fill-opacity="0.5"/>
<circle cx="454" cy="504" r="4" fill="#DCE0F7" fill-opacity="0.5"/>
<circle cx="404" cy="4" r="4" fill="#DCE0F7" fill-opacity="0.5"/>
<circle cx="404" cy="54" r="4" fill="#DCE0F7" fill-opacity="0.5"/>
<circle cx="404" cy="104" r="4" fill="#DCE0F7" fill-opacity="0.5"/>
<circle cx="404" cy="154" r="4" fill="#DCE0F7" fill-opacity="0.5"/>
<circle cx="404" cy="204" r="4" fill="#DCE0F7" fill-opacity="0.5"/>
<circle cx="404" cy="254" r="4" fill="#DCE0F7" fill-opacity="0.5"/>
<circle cx="404" cy="304" r="4" fill="#DCE0F7" fill-opacity="0.5"/>
<circle cx="404" cy="354" r="4" fill="#DCE0F7" fill-opacity="0.5"/>
<circle cx="404" cy="404" r="4" fill="#DCE0F7" fill-opacity="0.5"/>
<circle cx="404" cy="454" r="4" fill="#DCE0F7" fill-opacity="0.5"/>
<circle cx="404" cy="504" r="4" fill="#DCE0F7" fill-opacity="0.5"/>
<circle cx="354" cy="4" r="4" fill="#DCE0F7" fill-opacity="0.5"/>
<circle cx="354" cy="54" r="4" fill="#DCE0F7" fill-opacity="0.5"/>
<circle cx="354" cy="104" r="4" fill="#DCE0F7" fill-opacity="0.5"/>
<circle cx="354" cy="154" r="4" fill="#DCE0F7" fill-opacity="0.5"/>
<circle cx="354" cy="204" r="4" fill="#DCE0F7" fill-opacity="0.5"/>
<circle cx="354" cy="254" r="4" fill="#DCE0F7" fill-opacity="0.5"/>
<circle cx="354" cy="304" r="4" fill="#DCE0F7" fill-opacity="0.5"/>
<circle cx="354" cy="354" r="4" fill="#DCE0F7" fill-opacity="0.5"/>
<circle cx="354" cy="404" r="4" fill="#DCE0F7" fill-opacity="0.5"/>
<circle cx="354" cy="454" r="4" fill="#DCE0F7" fill-opacity="0.5"/>
<circle cx="354" cy="504" r="4" fill="#DCE0F7" fill-opacity="0.5"/>
<circle cx="304" cy="4" r="4" fill="#DCE0F7" fill-opacity="0.5"/>
<circle cx="304" cy="54" r="4" fill="#DCE0F7" fill-opacity="0.5"/>
<circle cx="304" cy="104" r="4" fill="#DCE0F7" fill-opacity="0.5"/>
<circle cx="304" cy="154" r="4" fill="#DCE0F7" fill-opacity="0.5"/>
<circle cx="304" cy="204" r="4" fill="#DCE0F7" fill-opacity="0.5"/>
<circle cx="304" cy="254" r="4" fill="#DCE0F7" fill-opacity="0.5"/>
<circle cx="304" cy="304" r="4" fill="#DCE0F7" fill-opacity="0.5"/>
<circle cx="304" cy="354" r="4" fill="#DCE0F7" fill-opacity="0.5"/>
<circle cx="304" cy="404" r="4" fill="#DCE0F7" fill-opacity="0.5"/>
<circle cx="304" cy="454" r="4" fill="#DCE0F7" fill-opacity="0.5"/>
<circle cx="304" cy="504" r="4" fill="#DCE0F7" fill-opacity="0.5"/>
<circle cx="254" cy="4" r="4" fill="#DCE0F7" fill-opacity="0.5"/>
<circle cx="254" cy="54" r="4" fill="#DCE0F7" fill-opacity="0.5"/>
<circle cx="254" cy="104" r="4" fill="#DCE0F7" fill-opacity="0.5"/>
<circle cx="254" cy="154" r="4" fill="#DCE0F7" fill-opacity="0.5"/>
<circle cx="254" cy="204" r="4" fill="#DCE0F7" fill-opacity="0.5"/>
<circle cx="254" cy="254" r="4" fill="#DCE0F7" fill-opacity="0.5"/>
<circle cx="254" cy="304" r="4" fill="#DCE0F7" fill-opacity="0.5"/>
<circle cx="254" cy="354" r="4" fill="#DCE0F7" fill-opacity="0.5"/>
<circle cx="254" cy="404" r="4" fill="#DCE0F7" fill-opacity="0.5"/>
<circle cx="254" cy="454" r="4" fill="#DCE0F7" fill-opacity="0.5"/>
<circle cx="254" cy="504" r="4" fill="#DCE0F7" fill-opacity="0.5"/>
<circle cx="204" cy="4" r="4" fill="#DCE0F7" fill-opacity="0.5"/>
<circle cx="204" cy="54" r="4" fill="#DCE0F7" fill-opacity="0.5"/>
<circle cx="204" cy="104" r="4" fill="#DCE0F7" fill-opacity="0.5"/>
<circle cx="204" cy="154" r="4" fill="#DCE0F7" fill-opacity="0.5"/>
<circle cx="204" cy="204" r="4" fill="#DCE0F7" fill-opacity="0.5"/>
<circle cx="204" cy="254" r="4" fill="#DCE0F7" fill-opacity="0.5"/>
<circle cx="204" cy="304" r="4" fill="#DCE0F7" fill-opacity="0.5"/>
<circle cx="204" cy="354" r="4" fill="#DCE0F7" fill-opacity="0.5"/>
<circle cx="204" cy="404" r="4" fill="#DCE0F7" fill-opacity="0.5"/>
<circle cx="204" cy="454" r="4" fill="#DCE0F7" fill-opacity="0.5"/>
<circle cx="204" cy="504" r="4" fill="#DCE0F7" fill-opacity="0.5"/>
<circle cx="154" cy="4" r="4" fill="#DCE0F7" fill-opacity="0.5"/>
<circle cx="154" cy="54" r="4" fill="#DCE0F7" fill-opacity="0.5"/>
<circle cx="154" cy="104" r="4" fill="#DCE0F7" fill-opacity="0.5"/>
<circle cx="154" cy="154" r="4" fill="#DCE0F7" fill-opacity="0.5"/>
<circle cx="154" cy="204" r="4" fill="#DCE0F7" fill-opacity="0.5"/>
<circle cx="154" cy="254" r="4" fill="#DCE0F7" fill-opacity="0.5"/>
<circle cx="154" cy="304" r="4" fill="#DCE0F7" fill-opacity="0.5"/>
<circle cx="154" cy="354" r="4" fill="#DCE0F7" fill-opacity="0.5"/>
<circle cx="154" cy="404" r="4" fill="#DCE0F7" fill-opacity="0.5"/>
<circle cx="154" cy="454" r="4" fill="#DCE0F7" fill-opacity="0.5"/>
<circle cx="154" cy="504" r="4" fill="#DCE0F7" fill-opacity="0.5"/>
<circle cx="104" cy="4" r="4" fill="#DCE0F7" fill-opacity="0.5"/>
<circle cx="104" cy="54" r="4" fill="#DCE0F7" fill-opacity="0.5"/>
<circle cx="104" cy="104" r="4" fill="#DCE0F7" fill-opacity="0.5"/>
<circle cx="104" cy="154" r="4" fill="#DCE0F7" fill-opacity="0.5"/>
<circle cx="104" cy="204" r="4" fill="#DCE0F7" fill-opacity="0.5"/>
<circle cx="104" cy="254" r="4" fill="#DCE0F7" fill-opacity="0.5"/>
<circle cx="104" cy="304" r="4" fill="#DCE0F7" fill-opacity="0.5"/>
<circle cx="104" cy="354" r="4" fill="#DCE0F7" fill-opacity="0.5"/>
<circle cx="104" cy="404" r="4" fill="#DCE0F7" fill-opacity="0.5"/>
<circle cx="104" cy="454" r="4" fill="#DCE0F7" fill-opacity="0.5"/>
<circle cx="104" cy="504" r="4" fill="#DCE0F7" fill-opacity="0.5"/>
<circle cx="54" cy="4" r="4" fill="#DCE0F7" fill-opacity="0.5"/>
<circle cx="54" cy="54" r="4" fill="#DCE0F7" fill-opacity="0.5"/>
<circle cx="54" cy="104" r="4" fill="#DCE0F7" fill-opacity="0.5"/>
<circle cx="54" cy="154" r="4" fill="#DCE0F7" fill-opacity="0.5"/>
<circle cx="54" cy="204" r="4" fill="#DCE0F7" fill-opacity="0.5"/>
<circle cx="54" cy="254" r="4" fill="#DCE0F7" fill-opacity="0.5"/>
<circle cx="54" cy="304" r="4" fill="#DCE0F7" fill-opacity="0.5"/>
<circle cx="54" cy="354" r="4" fill="#DCE0F7" fill-opacity="0.5"/>
<circle cx="54" cy="404" r="4" fill="#DCE0F7" fill-opacity="0.5"/>
<circle cx="54" cy="454" r="4" fill="#DCE0F7" fill-opacity="0.5"/>
<circle cx="54" cy="504" r="4" fill="#DCE0F7" fill-opacity="0.5"/>
<circle cx="4" cy="4" r="4" fill="#DCE0F7" fill-opacity="0.5"/>
<circle cx="4" cy="54" r="4" fill="#DCE0F7" fill-opacity="0.5"/>
<circle cx="4" cy="104" r="4" fill="#DCE0F7" fill-opacity="0.5"/>
<circle cx="4" cy="154" r="4" fill="#DCE0F7" fill-opacity="0.5"/>
<circle cx="4" cy="204" r="4" fill="#DCE0F7" fill-opacity="0.5"/>
<circle cx="4" cy="254" r="4" fill="#DCE0F7" fill-opacity="0.5"/>
<circle cx="4" cy="304" r="4" fill="#DCE0F7" fill-opacity="0.5"/>
<circle cx="4" cy="354" r="4" fill="#DCE0F7" fill-opacity="0.5"/>
<circle cx="4" cy="404" r="4" fill="#DCE0F7" fill-opacity="0.5"/>
<circle cx="4" cy="454" r="4" fill="#DCE0F7" fill-opacity="0.5"/>
<circle cx="4" cy="504" r="4" fill="#DCE0F7" fill-opacity="0.5"/>
</svg>
