<svg width="347" height="198" viewBox="0 0 347 198" fill="none" xmlns="http://www.w3.org/2000/svg">
<path d="M0 0H332C340.284 0 347 6.71573 347 15V15C347 23.2843 340.284 30 332 30H0V0Z" fill="#F5F5F5"/>
<path d="M0 0H187C195.284 0 202 6.71573 202 15V15C202 23.2843 195.284 30 187 30H0V0Z" fill="#DBDDF8"/>
<path d="M0 0H118C126.284 0 133 6.71573 133 15V15C133 23.2843 126.284 30 118 30H0V0Z" fill="#4D56DB"/>
<path d="M0 42H332C340.284 42 347 48.7157 347 57V57C347 65.2843 340.284 72 332 72H0V42Z" fill="#F5F5F5"/>
<path d="M0 42H277C285.284 42 292 48.7157 292 57V57C292 65.2843 285.284 72 277 72H0V42Z" fill="#DBDDF8"/>
<path d="M0 42H91C99.2843 42 106 48.7157 106 57V57C106 65.2843 99.2843 72 91 72H0V42Z" fill="#4D56DB"/>
<path d="M0 84H332C340.284 84 347 90.7157 347 99V99C347 107.284 340.284 114 332 114H0V84Z" fill="#F5F5F5"/>
<path d="M0 84H247C255.284 84 262 90.7157 262 99V99C262 107.284 255.284 114 247 114H0V84Z" fill="#DBDDF8"/>
<path d="M0 84H197C205.284 84 212 90.7157 212 99V99C212 107.284 205.284 114 197 114H0V84Z" fill="#4D56DB"/>
<path d="M0 126H332C340.284 126 347 132.716 347 141V141C347 149.284 340.284 156 332 156H0V126Z" fill="#F5F5F5"/>
<path d="M0 168H332C340.284 168 347 174.716 347 183V183C347 191.284 340.284 198 332 198H0V168Z" fill="#F5F5F5"/>
<path d="M0 126H217C225.284 126 232 132.716 232 141V141C232 149.284 225.284 156 217 156H0V126Z" fill="#DBDDF8"/>
<path d="M0 168H253C261.284 168 268 174.716 268 183V183C268 191.284 261.284 198 253 198H0V168Z" fill="#DBDDF8"/>
<path d="M0 126H194C202.284 126 209 132.716 209 141V141C209 149.284 202.284 156 194 156H0V126Z" fill="#4D56DB"/>
<path d="M0 168H147C155.284 168 162 174.716 162 183V183C162 191.284 155.284 198 147 198H0V168Z" fill="#4D56DB"/>
<path d="M322.192 14.6475H324.927V15.8643H322.192V19.002H320.846V15.8643H318.104V14.6475H320.846V11.7559H322.192V14.6475ZM327.921 14.4014H329.097C329.694 14.4014 330.115 14.2533 330.361 13.957C330.612 13.6562 330.737 13.2393 330.737 12.7061C330.737 12.1364 330.596 11.7035 330.313 11.4072C330.031 11.111 329.614 10.9629 329.062 10.9629C328.538 10.9629 328.117 11.1178 327.798 11.4277C327.483 11.7331 327.326 12.141 327.326 12.6514H326.034L326.021 12.6104C325.998 11.8584 326.269 11.2204 326.834 10.6963C327.404 10.1676 328.146 9.90332 329.062 9.90332C329.983 9.90332 330.717 10.1494 331.264 10.6416C331.811 11.1292 332.084 11.8265 332.084 12.7334C332.084 13.1436 331.959 13.5537 331.708 13.9639C331.462 14.3695 331.09 14.6794 330.594 14.8936C331.191 15.0895 331.612 15.3971 331.858 15.8164C332.109 16.2357 332.234 16.7051 332.234 17.2246C332.234 18.1315 331.936 18.8447 331.339 19.3643C330.746 19.8838 329.988 20.1436 329.062 20.1436C328.151 20.1436 327.399 19.8997 326.807 19.4121C326.214 18.9199 325.929 18.2546 325.952 17.416L325.973 17.375H327.258C327.258 17.8991 327.417 18.3161 327.736 18.626C328.06 18.9359 328.502 19.0908 329.062 19.0908C329.632 19.0908 330.079 18.9359 330.402 18.626C330.726 18.3161 330.888 17.8581 330.888 17.252C330.888 16.6367 330.744 16.1833 330.457 15.8916C330.17 15.5999 329.716 15.4541 329.097 15.4541H327.921V14.4014Z" fill="#666666"/>
<path d="M322.042 57.6475H324.776V58.8643H322.042V62.002H320.695V58.8643H317.954V57.6475H320.695V54.7559H322.042V57.6475ZM332.535 54.1064C331.332 55.5374 330.519 56.8066 330.095 57.9141C329.675 59.0169 329.372 60.3545 329.186 61.9268L329.076 63H327.729L327.839 61.9268C328.03 60.359 328.402 58.9577 328.953 57.7227C329.505 56.4876 330.259 55.2822 331.216 54.1064H327.06L326.957 55.248H325.809V53.0469H332.535V54.1064Z" fill="#666666"/>
<path d="M322.015 98.6475H324.749V99.8643H322.015V103.002H320.668V99.8643H317.927V98.6475H320.668V95.7559H322.015V98.6475ZM325.925 104V103.077L329.186 99.4541C329.769 98.8024 330.163 98.2852 330.368 97.9023C330.578 97.5195 330.683 97.1276 330.683 96.7266C330.683 96.2298 330.537 95.8128 330.245 95.4756C329.953 95.1338 329.568 94.9629 329.09 94.9629C328.402 94.9629 327.896 95.1383 327.572 95.4893C327.249 95.8402 327.087 96.3369 327.087 96.9795H325.795L325.781 96.9385C325.758 96.0817 326.041 95.3617 326.629 94.7783C327.221 94.195 328.042 93.9033 329.09 93.9033C329.988 93.9033 330.701 94.1654 331.229 94.6895C331.763 95.209 332.029 95.8721 332.029 96.6787C332.029 97.221 331.868 97.7633 331.544 98.3057C331.225 98.848 330.774 99.4336 330.19 100.062L327.572 102.913L327.586 102.947H331.12L331.229 101.806H332.371V104H325.925Z" fill="#666666"/>
<path d="M323.983 141.647H326.718V142.864H323.983V146.002H322.637V142.864H319.896V141.647H322.637V138.756H323.983V141.647ZM328.058 146.139L329.596 145.947V138.489L328.03 138.517V137.676L330.942 137.047V145.947L332.474 146.139V147H328.058V146.139Z" fill="#666666"/>
<path d="M321.632 183.647H324.366V184.864H321.632V188.002H320.285V184.864H317.544V183.647H320.285V180.756H321.632V183.647ZM331.12 185.65H332.494V186.703H331.12V187.947L332.234 188.139V189H328.666V188.139L329.78 187.947V186.703H325.31V185.944L329.698 179.047H331.12V185.65ZM326.745 185.65H329.78V180.968L329.739 180.954L329.603 181.316L326.745 185.65Z" fill="#666666"/>
</svg>
