<svg width="134" height="24" viewBox="0 0 134 24" fill="none" xmlns="http://www.w3.org/2000/svg">
<path d="M33.4316 14.2637C33.321 15.7936 32.7546 16.998 31.7324 17.877C30.7168 18.7559 29.3757 19.1953 27.709 19.1953C25.8861 19.1953 24.4505 18.5833 23.4023 17.3594C22.3607 16.1289 21.8398 14.4427 21.8398 12.3008V11.4316C21.8398 10.0645 22.0807 8.86003 22.5625 7.81836C23.0443 6.77669 23.7311 5.97917 24.623 5.42578C25.5215 4.86589 26.5632 4.58594 27.748 4.58594C29.3887 4.58594 30.7103 5.02539 31.7129 5.9043C32.7155 6.7832 33.2949 8.01693 33.4512 9.60547H30.5215C30.4499 8.6875 30.1927 8.02344 29.75 7.61328C29.3138 7.19661 28.6465 6.98828 27.748 6.98828C26.7715 6.98828 26.0391 7.33984 25.5508 8.04297C25.069 8.73958 24.8216 9.82357 24.8086 11.2949V12.3691C24.8086 13.9056 25.0397 15.0286 25.502 15.7383C25.9707 16.4479 26.7064 16.8027 27.709 16.8027C28.6139 16.8027 29.2878 16.5977 29.7305 16.1875C30.1797 15.7708 30.4368 15.1296 30.502 14.2637H33.4316ZM34.7305 13.6191C34.7305 12.571 34.9323 11.6367 35.3359 10.8164C35.7396 9.99609 36.319 9.36133 37.0742 8.91211C37.8359 8.46289 38.7181 8.23828 39.7207 8.23828C41.1465 8.23828 42.3086 8.67448 43.207 9.54688C44.112 10.4193 44.6165 11.6042 44.7207 13.1016L44.7402 13.8242C44.7402 15.4453 44.2878 16.7474 43.3828 17.7305C42.4779 18.707 41.2637 19.1953 39.7402 19.1953C38.2168 19.1953 36.9993 18.707 36.0879 17.7305C35.1829 16.7539 34.7305 15.4258 34.7305 13.7461V13.6191ZM37.5527 13.8242C37.5527 14.8268 37.7415 15.5951 38.1191 16.1289C38.4967 16.6562 39.0371 16.9199 39.7402 16.9199C40.4238 16.9199 40.9577 16.6595 41.3418 16.1387C41.7259 15.6113 41.918 14.7715 41.918 13.6191C41.918 12.6361 41.7259 11.8743 41.3418 11.334C40.9577 10.7936 40.4173 10.5234 39.7207 10.5234C39.0306 10.5234 38.4967 10.7936 38.1191 11.334C37.7415 11.8678 37.5527 12.6979 37.5527 13.8242ZM49.0762 8.43359L49.1641 9.6543C49.9193 8.71029 50.9316 8.23828 52.2012 8.23828C53.321 8.23828 54.1543 8.56706 54.7012 9.22461C55.248 9.88216 55.528 10.8652 55.541 12.1738V19H52.7188V12.2422C52.7188 11.6432 52.5885 11.2103 52.3281 10.9434C52.0677 10.6699 51.6348 10.5332 51.0293 10.5332C50.235 10.5332 49.6393 10.8717 49.2422 11.5488V19H46.4199V8.43359H49.0762ZM61.0684 5.83594V8.43359H62.875V10.5039H61.0684V15.7773C61.0684 16.168 61.1432 16.4479 61.293 16.6172C61.4427 16.7865 61.7292 16.8711 62.1523 16.8711C62.4648 16.8711 62.7415 16.8483 62.9824 16.8027V18.9414C62.429 19.1107 61.8594 19.1953 61.2734 19.1953C59.2943 19.1953 58.2852 18.196 58.2461 16.1973V10.5039H56.7031V8.43359H58.2461V5.83594H61.0684ZM70.3848 11.0801C70.0007 11.028 69.6621 11.002 69.3691 11.002C68.3014 11.002 67.6016 11.3633 67.2695 12.0859V19H64.4473V8.43359H67.1133L67.1914 9.69336C67.7578 8.72331 68.5423 8.23828 69.5449 8.23828C69.8574 8.23828 70.1504 8.2806 70.4238 8.36523L70.3848 11.0801ZM74.7305 19H71.8984V8.43359H74.7305V19ZM71.7324 5.69922C71.7324 5.27604 71.8724 4.92773 72.1523 4.6543C72.4388 4.38086 72.8262 4.24414 73.3145 4.24414C73.7962 4.24414 74.1803 4.38086 74.4668 4.6543C74.7533 4.92773 74.8965 5.27604 74.8965 5.69922C74.8965 6.12891 74.75 6.48047 74.457 6.75391C74.1706 7.02734 73.7897 7.16406 73.3145 7.16406C72.8392 7.16406 72.4551 7.02734 72.1621 6.75391C71.8757 6.48047 71.7324 6.12891 71.7324 5.69922ZM86.5859 13.8145C86.5859 15.5072 86.2246 16.8288 85.502 17.7793C84.7793 18.7233 83.7702 19.1953 82.4746 19.1953C81.3288 19.1953 80.4141 18.7559 79.7305 17.877L79.6035 19H77.0645V4H79.8867V9.38086C80.5378 8.61914 81.3939 8.23828 82.4551 8.23828C83.7441 8.23828 84.7533 8.71354 85.4824 9.66406C86.2181 10.6081 86.5859 11.9395 86.5859 13.6582V13.8145ZM83.7637 13.6094C83.7637 12.5417 83.5944 11.7637 83.2559 11.2754C82.9173 10.7806 82.4128 10.5332 81.7422 10.5332C80.8438 10.5332 80.2253 10.901 79.8867 11.6367V15.8066C80.2318 16.5488 80.8568 16.9199 81.7617 16.9199C82.6732 16.9199 83.2721 16.4707 83.5586 15.5723C83.6953 15.1426 83.7637 14.4883 83.7637 13.6094ZM94.6621 17.9258C93.9655 18.7721 93.002 19.1953 91.7715 19.1953C90.6387 19.1953 89.7728 18.8698 89.1738 18.2188C88.5814 17.5677 88.2786 16.6139 88.2656 15.3574V8.43359H91.0879V15.2598C91.0879 16.36 91.5892 16.9102 92.5918 16.9102C93.5488 16.9102 94.2064 16.5781 94.5645 15.9141V8.43359H97.3965V19H94.7402L94.6621 17.9258ZM102.904 5.83594V8.43359H104.711V10.5039H102.904V15.7773C102.904 16.168 102.979 16.4479 103.129 16.6172C103.279 16.7865 103.565 16.8711 103.988 16.8711C104.301 16.8711 104.577 16.8483 104.818 16.8027V18.9414C104.265 19.1107 103.695 19.1953 103.109 19.1953C101.13 19.1953 100.121 18.196 100.082 16.1973V10.5039H98.5391V8.43359H100.082V5.83594H102.904ZM109.262 19H106.43V8.43359H109.262V19ZM106.264 5.69922C106.264 5.27604 106.404 4.92773 106.684 4.6543C106.97 4.38086 107.357 4.24414 107.846 4.24414C108.327 4.24414 108.712 4.38086 108.998 4.6543C109.285 4.92773 109.428 5.27604 109.428 5.69922C109.428 6.12891 109.281 6.48047 108.988 6.75391C108.702 7.02734 108.321 7.16406 107.846 7.16406C107.37 7.16406 106.986 7.02734 106.693 6.75391C106.407 6.48047 106.264 6.12891 106.264 5.69922ZM111.156 13.6191C111.156 12.571 111.358 11.6367 111.762 10.8164C112.165 9.99609 112.745 9.36133 113.5 8.91211C114.262 8.46289 115.144 8.23828 116.146 8.23828C117.572 8.23828 118.734 8.67448 119.633 9.54688C120.538 10.4193 121.042 11.6042 121.146 13.1016L121.166 13.8242C121.166 15.4453 120.714 16.7474 119.809 17.7305C118.904 18.707 117.689 19.1953 116.166 19.1953C114.643 19.1953 113.425 18.707 112.514 17.7305C111.609 16.7539 111.156 15.4258 111.156 13.7461V13.6191ZM113.979 13.8242C113.979 14.8268 114.167 15.5951 114.545 16.1289C114.923 16.6562 115.463 16.9199 116.166 16.9199C116.85 16.9199 117.383 16.6595 117.768 16.1387C118.152 15.6113 118.344 14.7715 118.344 13.6191C118.344 12.6361 118.152 11.8743 117.768 11.334C117.383 10.7936 116.843 10.5234 116.146 10.5234C115.456 10.5234 114.923 10.7936 114.545 11.334C114.167 11.8678 113.979 12.6979 113.979 13.8242ZM125.502 8.43359L125.59 9.6543C126.345 8.71029 127.357 8.23828 128.627 8.23828C129.747 8.23828 130.58 8.56706 131.127 9.22461C131.674 9.88216 131.954 10.8652 131.967 12.1738V19H129.145V12.2422C129.145 11.6432 129.014 11.2103 128.754 10.9434C128.493 10.6699 128.061 10.5332 127.455 10.5332C126.661 10.5332 126.065 10.8717 125.668 11.5488V19H122.846V8.43359H125.502Z" fill="#222222"/>
<path fill-rule="evenodd" clip-rule="evenodd" d="M12 8C13.1046 8 14 7.10457 14 6C14 4.89543 13.1046 4 12 4C10.8954 4 10 4.89543 10 6C10 7.10457 10.8954 8 12 8ZM16 6C16 7.86384 14.7252 9.42994 13 9.87398V14.126C12.6804 14.0437 12.3453 14 12 14C11.6547 14 11.3196 14.0437 11 14.126V9.87398C9.27477 9.42994 8 7.86384 8 6C8 3.79086 9.79086 2 12 2C14.2091 2 16 3.79086 16 6ZM14 18C14 19.1046 13.1046 20 12 20C10.8954 20 10 19.1046 10 18C10 16.8954 10.8954 16 12 16C13.1046 16 14 16.8954 14 18ZM16 18C16 20.2091 14.2091 22 12 22C9.79086 22 8 20.2091 8 18C8 15.7909 9.79086 14 12 14C14.2091 14 16 15.7909 16 18Z" fill="#4D56DB"/>
</svg>
