<svg width="332" height="257" viewBox="0 0 332 257" fill="none" xmlns="http://www.w3.org/2000/svg">
<rect opacity="0.05" x="44" width="243" height="252" rx="121.5" fill="#4D56DB"/>
<path opacity="0.7" d="M20.3096 17.8906V18.5107L19.5137 18.6475V25H18.5518L15.1338 19.5117L15.1045 19.5215V24.248L15.9004 24.3848V25H13.3467V24.3848L14.1426 24.248V18.6475L13.3467 18.5107V17.8906H14.1426H15.1045L18.5225 23.374L18.5518 23.3643V18.6475L17.7559 18.5107V17.8906H19.5137H20.3096ZM24.499 25C24.4697 24.8568 24.4469 24.7282 24.4307 24.6143C24.4144 24.5003 24.403 24.3864 24.3965 24.2725C24.2109 24.5101 23.9782 24.7087 23.6982 24.8682C23.4215 25.0244 23.1253 25.1025 22.8096 25.1025C22.2594 25.1025 21.8411 24.9691 21.5547 24.7021C21.2682 24.432 21.125 24.0527 21.125 23.5645C21.125 23.0632 21.3268 22.6774 21.7305 22.4072C22.1374 22.1338 22.694 21.9971 23.4004 21.9971H24.3916V21.3818C24.3916 21.0726 24.2939 20.8285 24.0986 20.6494C23.9033 20.4671 23.6315 20.376 23.2832 20.376C23.0423 20.376 22.8291 20.4069 22.6436 20.4688C22.4613 20.5306 22.3132 20.6152 22.1992 20.7227L22.0967 21.2793H21.3545V20.2539C21.5954 20.0618 21.8867 19.9089 22.2285 19.7949C22.5703 19.6777 22.9414 19.6191 23.3418 19.6191C23.9408 19.6191 24.4258 19.7721 24.7969 20.0781C25.168 20.3841 25.3535 20.8219 25.3535 21.3916V23.9355C25.3535 24.0039 25.3535 24.0706 25.3535 24.1357C25.3568 24.2008 25.3617 24.266 25.3682 24.3311L25.7588 24.3848V25H24.499ZM22.9512 24.2969C23.2702 24.2969 23.5615 24.2204 23.8252 24.0674C24.0889 23.9144 24.2777 23.7305 24.3916 23.5156V22.6465H23.3662C22.9723 22.6465 22.6598 22.7376 22.4287 22.9199C22.2008 23.1022 22.0869 23.3236 22.0869 23.584C22.0869 23.8151 22.1585 23.9925 22.3018 24.1162C22.445 24.2367 22.6615 24.2969 22.9512 24.2969ZM26.5596 20.3369V19.7168H28.2148L28.3076 20.4834C28.4574 20.2132 28.6413 20.0016 28.8594 19.8486C29.0807 19.6956 29.333 19.6191 29.6162 19.6191C29.6911 19.6191 29.7676 19.6257 29.8457 19.6387C29.9271 19.6484 29.9889 19.6598 30.0312 19.6729L29.9043 20.5664L29.3574 20.5371C29.1035 20.5371 28.8903 20.5973 28.7178 20.7178C28.5452 20.835 28.4118 21.001 28.3174 21.2158V24.248L29.1133 24.3848V25H26.5596V24.3848L27.3555 24.248V20.4736L26.5596 20.3369ZM30.7002 20.3369V19.7168H32.3555L32.4482 20.4834C32.598 20.2132 32.7819 20.0016 33 19.8486C33.2214 19.6956 33.4736 19.6191 33.7568 19.6191C33.8317 19.6191 33.9082 19.6257 33.9863 19.6387C34.0677 19.6484 34.1296 19.6598 34.1719 19.6729L34.0449 20.5664L33.498 20.5371C33.2441 20.5371 33.0309 20.5973 32.8584 20.7178C32.6859 20.835 32.5524 21.001 32.458 21.2158V24.248L33.2539 24.3848V25H30.7002V24.3848L31.4961 24.248V20.4736L30.7002 20.3369ZM38.2881 25C38.2588 24.8568 38.236 24.7282 38.2197 24.6143C38.2035 24.5003 38.1921 24.3864 38.1855 24.2725C38 24.5101 37.7673 24.7087 37.4873 24.8682C37.2106 25.0244 36.9144 25.1025 36.5986 25.1025C36.0485 25.1025 35.6302 24.9691 35.3438 24.7021C35.0573 24.432 34.9141 24.0527 34.9141 23.5645C34.9141 23.0632 35.1159 22.6774 35.5195 22.4072C35.9264 22.1338 36.4831 21.9971 37.1895 21.9971H38.1807V21.3818C38.1807 21.0726 38.083 20.8285 37.8877 20.6494C37.6924 20.4671 37.4206 20.376 37.0723 20.376C36.8314 20.376 36.6182 20.4069 36.4326 20.4688C36.2503 20.5306 36.1022 20.6152 35.9883 20.7227L35.8857 21.2793H35.1436V20.2539C35.3844 20.0618 35.6758 19.9089 36.0176 19.7949C36.3594 19.6777 36.7305 19.6191 37.1309 19.6191C37.7298 19.6191 38.2148 19.7721 38.5859 20.0781C38.957 20.3841 39.1426 20.8219 39.1426 21.3916V23.9355C39.1426 24.0039 39.1426 24.0706 39.1426 24.1357C39.1458 24.2008 39.1507 24.266 39.1572 24.3311L39.5479 24.3848V25H38.2881ZM36.7402 24.2969C37.0592 24.2969 37.3506 24.2204 37.6143 24.0674C37.8779 23.9144 38.0667 23.7305 38.1807 23.5156V22.6465H37.1553C36.7614 22.6465 36.4489 22.7376 36.2178 22.9199C35.9899 23.1022 35.876 23.3236 35.876 23.584C35.876 23.8151 35.9476 23.9925 36.0908 24.1162C36.234 24.2367 36.4505 24.2969 36.7402 24.2969ZM42.0283 18.4424V19.7168H43.0293V20.4297H42.0283V23.6377C42.0283 23.8851 42.0788 24.0592 42.1797 24.1602C42.2839 24.2611 42.4206 24.3115 42.5898 24.3115C42.6745 24.3115 42.7689 24.305 42.873 24.292C42.9805 24.2757 43.07 24.2594 43.1416 24.2432L43.2734 24.9023C43.1823 24.9609 43.0488 25.0081 42.873 25.0439C42.6973 25.083 42.5215 25.1025 42.3457 25.1025C41.9551 25.1025 41.6442 24.9854 41.4131 24.751C41.182 24.5133 41.0664 24.1423 41.0664 23.6377V20.4297H40.2314V19.7168H41.0664V18.4424H42.0283ZM44.0107 24.3848L44.8066 24.248V20.4736L44.0107 20.3369V19.7168H45.7686V24.248L46.5645 24.3848V25H44.0107V24.3848ZM45.7686 18.3643H44.8066V17.3828H45.7686V18.3643ZM49.1133 20.3369L48.4785 20.4346L49.5674 23.4424L49.6553 23.8232H49.6846L49.7773 23.4424L50.832 20.4346L50.1924 20.3369V19.7168H52.2334V20.3369L51.7988 20.4102L50.0264 25H49.2988L47.5068 20.4102L47.0723 20.3369V19.7168H49.1133V20.3369ZM55.2314 25.1025C54.4958 25.1025 53.9098 24.8584 53.4736 24.3701C53.0407 23.8786 52.8242 23.2422 52.8242 22.4609V22.2461C52.8242 21.4941 53.0472 20.8691 53.4932 20.3711C53.9424 19.8698 54.473 19.6191 55.085 19.6191C55.7946 19.6191 56.3317 19.834 56.6963 20.2637C57.0641 20.6934 57.248 21.2663 57.248 21.9824V22.583H53.8203L53.8057 22.6074C53.8154 23.1152 53.944 23.5335 54.1914 23.8623C54.4388 24.1878 54.7855 24.3506 55.2314 24.3506C55.557 24.3506 55.8418 24.305 56.0859 24.2139C56.3333 24.1195 56.5465 23.9909 56.7256 23.8281L57.1016 24.4531C56.9128 24.6354 56.6621 24.79 56.3496 24.917C56.0404 25.0407 55.6676 25.1025 55.2314 25.1025ZM55.085 20.376C54.7627 20.376 54.4876 20.5127 54.2598 20.7861C54.0319 21.0563 53.8919 21.3965 53.8398 21.8066L53.8496 21.8311H56.2861V21.7041C56.2861 21.3265 56.1852 21.0107 55.9834 20.7568C55.7816 20.5029 55.4821 20.376 55.085 20.376Z" fill="#4D56DB"/>
<g filter="url(#filter0_d)">
<rect x="13" y="27" width="278" height="57" rx="3" fill="white"/>
<path d="M40 57.5C41.66 57.5 42.99 56.16 42.99 54.5L43 48.5C43 46.84 41.66 45.5 40 45.5C38.34 45.5 37 46.84 37 48.5V54.5C37 56.16 38.34 57.5 40 57.5ZM45.3 54.5C45.3 57.5 42.76 59.6 40 59.6C37.24 59.6 34.7 57.5 34.7 54.5H33C33 57.91 35.72 60.73 39 61.22V64.5H41V61.22C44.28 60.74 47 57.92 47 54.5H45.3Z" fill="#4D56DB"/>
<path d="M60.7939 51.915L59.7207 52.0449L61.8057 56.1055L63.8906 52.0449L62.8242 51.915V51.0469H66.2422V51.915L65.4014 52.0449L62.4482 57.5V59.9473L63.5625 60.1387V61H59.9941V60.1387L61.1084 59.9473V57.3975L58.21 52.0449L57.376 51.915V51.0469H60.7939V51.915ZM66.5703 57.2334C66.5703 56.1396 66.8665 55.2396 67.459 54.5332C68.0514 53.8223 68.8558 53.4668 69.8721 53.4668C70.8929 53.4668 71.6995 53.82 72.292 54.5264C72.889 55.2327 73.1875 56.1351 73.1875 57.2334V57.3838C73.1875 58.4867 72.8913 59.389 72.2988 60.0908C71.7064 60.7926 70.902 61.1436 69.8857 61.1436C68.8604 61.1436 68.0514 60.7926 67.459 60.0908C66.8665 59.3844 66.5703 58.4821 66.5703 57.3838V57.2334ZM67.917 57.3838C67.917 58.1676 68.0811 58.8148 68.4092 59.3252C68.7419 59.8356 69.234 60.0908 69.8857 60.0908C70.5238 60.0908 71.0091 59.8356 71.3418 59.3252C71.6745 58.8148 71.8408 58.1676 71.8408 57.3838V57.2334C71.8408 56.4587 71.6745 55.8138 71.3418 55.2988C71.0091 54.7839 70.5192 54.5264 69.8721 54.5264C69.2249 54.5264 68.7373 54.7839 68.4092 55.2988C68.0811 55.8138 67.917 56.4587 67.917 57.2334V57.3838ZM79.7158 59.9062C79.4834 60.3027 79.1826 60.6081 78.8135 60.8223C78.4489 61.0365 78.0273 61.1436 77.5488 61.1436C76.7467 61.1436 76.1201 60.8861 75.6689 60.3711C75.2178 59.8561 74.9922 59.054 74.9922 57.9648V54.6631L74.1445 54.4717V53.6035H74.9922H76.3389V57.9785C76.3389 58.7669 76.4551 59.3092 76.6875 59.6055C76.9199 59.9017 77.2822 60.0498 77.7744 60.0498C78.2529 60.0498 78.6471 59.9541 78.957 59.7627C79.2715 59.5667 79.5085 59.291 79.668 58.9355V54.6631L78.6768 54.4717V53.6035H79.668H81.0146V59.9473L81.8623 60.1387V61H79.8047L79.7158 59.9062ZM84.5352 51.8604L84.1182 53.7881H83.4551V50.3359H84.5352V51.8604ZM86.0732 54.4717V53.6035H88.3906L88.5205 54.6768C88.7301 54.2985 88.9876 54.0023 89.293 53.7881C89.6029 53.5739 89.9561 53.4668 90.3525 53.4668C90.4574 53.4668 90.5645 53.4759 90.6738 53.4941C90.7878 53.5078 90.8743 53.5238 90.9336 53.542L90.7559 54.793L89.9902 54.752C89.6348 54.752 89.3363 54.8363 89.0947 55.0049C88.8532 55.1689 88.6663 55.4014 88.5342 55.7021V59.9473L89.6484 60.1387V61H86.0732V60.1387L87.1875 59.9473V54.6631L86.0732 54.4717ZM95.1104 61.1436C94.0804 61.1436 93.2601 60.8018 92.6494 60.1182C92.0433 59.43 91.7402 58.5391 91.7402 57.4453V57.1445C91.7402 56.0918 92.0524 55.2168 92.6768 54.5195C93.3057 53.8177 94.0485 53.4668 94.9053 53.4668C95.8988 53.4668 96.6507 53.7676 97.1611 54.3691C97.6761 54.9707 97.9336 55.7728 97.9336 56.7754V57.6162H93.1348L93.1143 57.6504C93.1279 58.3613 93.3079 58.9469 93.6543 59.4072C94.0007 59.863 94.486 60.0908 95.1104 60.0908C95.5661 60.0908 95.9648 60.027 96.3066 59.8994C96.653 59.7673 96.9515 59.5872 97.2021 59.3594L97.7285 60.2344C97.4642 60.4896 97.1133 60.7061 96.6758 60.8838C96.2428 61.057 95.721 61.1436 95.1104 61.1436ZM94.9053 54.5264C94.4541 54.5264 94.069 54.7178 93.75 55.1006C93.431 55.4788 93.235 55.9551 93.1621 56.5293L93.1758 56.5635H96.5869V56.3857C96.5869 55.8571 96.4456 55.415 96.1631 55.0596C95.8805 54.7041 95.4613 54.5264 94.9053 54.5264ZM107.579 61C107.538 60.7995 107.506 60.6195 107.483 60.46C107.461 60.3005 107.445 60.141 107.436 59.9814C107.176 60.3141 106.85 60.5921 106.458 60.8154C106.071 61.0342 105.656 61.1436 105.214 61.1436C104.444 61.1436 103.858 60.9567 103.457 60.583C103.056 60.2048 102.855 59.6738 102.855 58.9902C102.855 58.2884 103.138 57.7484 103.703 57.3701C104.273 56.9873 105.052 56.7959 106.041 56.7959H107.429V55.9346C107.429 55.5016 107.292 55.1598 107.019 54.9092C106.745 54.654 106.365 54.5264 105.877 54.5264C105.54 54.5264 105.241 54.5697 104.981 54.6562C104.726 54.7428 104.519 54.8613 104.359 55.0117L104.216 55.791H103.177V54.3555C103.514 54.0866 103.922 53.8724 104.4 53.7129C104.879 53.5488 105.398 53.4668 105.959 53.4668C106.798 53.4668 107.477 53.681 107.996 54.1094C108.516 54.5378 108.775 55.1507 108.775 55.9482V59.5098C108.775 59.6055 108.775 59.6989 108.775 59.79C108.78 59.8812 108.787 59.9723 108.796 60.0635L109.343 60.1387V61H107.579ZM105.412 60.0156C105.859 60.0156 106.267 59.9085 106.636 59.6943C107.005 59.4801 107.269 59.2227 107.429 58.9219V57.7051H105.993C105.442 57.7051 105.004 57.8327 104.681 58.0879C104.362 58.3431 104.202 58.653 104.202 59.0176C104.202 59.3411 104.302 59.5895 104.503 59.7627C104.703 59.9313 105.007 60.0156 105.412 60.0156ZM113.786 62.9756L114.9 62.7842V54.6631L113.786 54.4717V53.6035H116.056L116.179 54.5059C116.425 54.1686 116.723 53.9111 117.074 53.7334C117.43 53.5557 117.84 53.4668 118.305 53.4668C119.221 53.4668 119.932 53.8314 120.438 54.5605C120.948 55.2852 121.203 56.2445 121.203 57.4385V57.582C121.203 58.6484 120.948 59.5098 120.438 60.166C119.927 60.8177 119.223 61.1436 118.325 61.1436C117.869 61.1436 117.468 61.0684 117.122 60.918C116.78 60.763 116.489 60.5352 116.247 60.2344V62.7842L117.361 62.9756V63.8438H113.786V62.9756ZM119.85 57.4385C119.85 56.5954 119.686 55.9049 119.357 55.3672C119.029 54.8294 118.542 54.5605 117.895 54.5605C117.512 54.5605 117.184 54.6471 116.91 54.8203C116.637 54.9935 116.416 55.2305 116.247 55.5312V59.1338C116.416 59.4391 116.634 59.6761 116.903 59.8447C117.177 60.0088 117.512 60.0908 117.908 60.0908C118.546 60.0908 119.029 59.8584 119.357 59.3936C119.686 58.9287 119.85 58.3249 119.85 57.582V57.4385ZM127.253 61C127.212 60.7995 127.18 60.6195 127.157 60.46C127.134 60.3005 127.118 60.141 127.109 59.9814C126.85 60.3141 126.524 60.5921 126.132 60.8154C125.744 61.0342 125.33 61.1436 124.888 61.1436C124.118 61.1436 123.532 60.9567 123.131 60.583C122.73 60.2048 122.529 59.6738 122.529 58.9902C122.529 58.2884 122.812 57.7484 123.377 57.3701C123.947 56.9873 124.726 56.7959 125.715 56.7959H127.103V55.9346C127.103 55.5016 126.966 55.1598 126.692 54.9092C126.419 54.654 126.038 54.5264 125.551 54.5264C125.214 54.5264 124.915 54.5697 124.655 54.6562C124.4 54.7428 124.193 54.8613 124.033 55.0117L123.89 55.791H122.851V54.3555C123.188 54.0866 123.596 53.8724 124.074 53.7129C124.553 53.5488 125.072 53.4668 125.633 53.4668C126.471 53.4668 127.15 53.681 127.67 54.1094C128.189 54.5378 128.449 55.1507 128.449 55.9482V59.5098C128.449 59.6055 128.449 59.6989 128.449 59.79C128.454 59.8812 128.461 59.9723 128.47 60.0635L129.017 60.1387V61H127.253ZM125.086 60.0156C125.533 60.0156 125.94 59.9085 126.31 59.6943C126.679 59.4801 126.943 59.2227 127.103 58.9219V57.7051H125.667C125.116 57.7051 124.678 57.8327 124.354 58.0879C124.035 58.3431 123.876 58.653 123.876 59.0176C123.876 59.3411 123.976 59.5895 124.177 59.7627C124.377 59.9313 124.68 60.0156 125.086 60.0156ZM130.138 54.4717V53.6035H132.455L132.585 54.6768C132.795 54.2985 133.052 54.0023 133.357 53.7881C133.667 53.5739 134.021 53.4668 134.417 53.4668C134.522 53.4668 134.629 53.4759 134.738 53.4941C134.852 53.5078 134.939 53.5238 134.998 53.542L134.82 54.793L134.055 54.752C133.699 54.752 133.401 54.8363 133.159 55.0049C132.918 55.1689 132.731 55.4014 132.599 55.7021V59.9473L133.713 60.1387V61H130.138V60.1387L131.252 59.9473V54.6631L130.138 54.4717ZM138.505 51.8193V53.6035H139.906V54.6016H138.505V59.0928C138.505 59.4391 138.576 59.6829 138.717 59.8242C138.863 59.9655 139.054 60.0361 139.291 60.0361C139.41 60.0361 139.542 60.027 139.688 60.0088C139.838 59.986 139.963 59.9632 140.063 59.9404L140.248 60.8633C140.12 60.9453 139.934 61.0114 139.688 61.0615C139.441 61.1162 139.195 61.1436 138.949 61.1436C138.402 61.1436 137.967 60.9795 137.644 60.6514C137.32 60.3187 137.158 59.7992 137.158 59.0928V54.6016H135.989V53.6035H137.158V51.8193H138.505ZM144.773 57.2334C144.773 56.1396 145.07 55.2396 145.662 54.5332C146.255 53.8223 147.059 53.4668 148.075 53.4668C149.096 53.4668 149.903 53.82 150.495 54.5264C151.092 55.2327 151.391 56.1351 151.391 57.2334V57.3838C151.391 58.4867 151.094 59.389 150.502 60.0908C149.91 60.7926 149.105 61.1436 148.089 61.1436C147.063 61.1436 146.255 60.7926 145.662 60.0908C145.07 59.3844 144.773 58.4821 144.773 57.3838V57.2334ZM146.12 57.3838C146.12 58.1676 146.284 58.8148 146.612 59.3252C146.945 59.8356 147.437 60.0908 148.089 60.0908C148.727 60.0908 149.212 59.8356 149.545 59.3252C149.878 58.8148 150.044 58.1676 150.044 57.3838V57.2334C150.044 56.4587 149.878 55.8138 149.545 55.2988C149.212 54.7839 148.722 54.5264 148.075 54.5264C147.428 54.5264 146.94 54.7839 146.612 55.2988C146.284 55.8138 146.12 56.4587 146.12 57.2334V57.3838ZM152.498 54.6016V53.6035H153.653V52.667C153.653 51.8786 153.858 51.2702 154.269 50.8418C154.683 50.4089 155.26 50.1924 155.998 50.1924C156.153 50.1924 156.308 50.2061 156.463 50.2334C156.622 50.2562 156.798 50.2904 156.989 50.3359L156.825 51.3613C156.743 51.3431 156.643 51.3271 156.524 51.3135C156.41 51.2998 156.292 51.293 156.169 51.293C155.772 51.293 155.479 51.4115 155.287 51.6484C155.096 51.8809 155 52.2204 155 52.667V53.6035H156.545V54.6016H155V59.9473L156.114 60.1387V61H152.539V60.1387L153.653 59.9473V54.6016H152.498ZM165.917 61C165.876 60.7995 165.844 60.6195 165.821 60.46C165.799 60.3005 165.783 60.141 165.773 59.9814C165.514 60.3141 165.188 60.5921 164.796 60.8154C164.409 61.0342 163.994 61.1436 163.552 61.1436C162.782 61.1436 162.196 60.9567 161.795 60.583C161.394 60.2048 161.193 59.6738 161.193 58.9902C161.193 58.2884 161.476 57.7484 162.041 57.3701C162.611 56.9873 163.39 56.7959 164.379 56.7959H165.767V55.9346C165.767 55.5016 165.63 55.1598 165.356 54.9092C165.083 54.654 164.702 54.5264 164.215 54.5264C163.878 54.5264 163.579 54.5697 163.319 54.6562C163.064 54.7428 162.857 54.8613 162.697 55.0117L162.554 55.791H161.515V54.3555C161.852 54.0866 162.26 53.8724 162.738 53.7129C163.217 53.5488 163.736 53.4668 164.297 53.4668C165.135 53.4668 165.814 53.681 166.334 54.1094C166.854 54.5378 167.113 55.1507 167.113 55.9482V59.5098C167.113 59.6055 167.113 59.6989 167.113 59.79C167.118 59.8812 167.125 59.9723 167.134 60.0635L167.681 60.1387V61H165.917ZM163.75 60.0156C164.197 60.0156 164.604 59.9085 164.974 59.6943C165.343 59.4801 165.607 59.2227 165.767 58.9219V57.7051H164.331C163.78 57.7051 163.342 57.8327 163.019 58.0879C162.7 58.3431 162.54 58.653 162.54 59.0176C162.54 59.3411 162.64 59.5895 162.841 59.7627C163.041 59.9313 163.344 60.0156 163.75 60.0156ZM177.948 55.9277H176.937L176.718 55.0391C176.554 54.8841 176.346 54.7611 176.096 54.6699C175.85 54.5742 175.569 54.5264 175.255 54.5264C174.776 54.5264 174.421 54.6312 174.188 54.8408C173.956 55.0505 173.84 55.3034 173.84 55.5996C173.84 55.8913 173.942 56.1214 174.147 56.29C174.353 56.4587 174.77 56.609 175.398 56.7412C176.333 56.9417 177.028 57.2152 177.483 57.5615C177.939 57.9033 178.167 58.3636 178.167 58.9424C178.167 59.5986 177.9 60.1296 177.367 60.5352C176.839 60.9408 176.146 61.1436 175.289 61.1436C174.729 61.1436 174.225 61.0798 173.778 60.9521C173.332 60.82 172.933 60.6309 172.582 60.3848L172.575 58.6963H173.587L173.84 59.6875C173.995 59.8288 174.204 59.9313 174.469 59.9951C174.738 60.0589 175.011 60.0908 175.289 60.0908C175.768 60.0908 176.141 59.9951 176.41 59.8037C176.684 59.6077 176.82 59.3525 176.82 59.0381C176.82 58.7419 176.706 58.498 176.479 58.3066C176.255 58.1152 175.829 57.9489 175.2 57.8076C174.302 57.6117 173.626 57.3451 173.17 57.0078C172.714 56.6706 172.486 56.2148 172.486 55.6406C172.486 55.0391 172.742 54.5264 173.252 54.1025C173.767 53.6787 174.435 53.4668 175.255 53.4668C175.815 53.4668 176.319 53.5397 176.766 53.6855C177.212 53.8314 177.584 54.0342 177.88 54.2939L177.948 55.9277ZM179.158 60.1387L180.272 59.9473V54.6631L179.158 54.4717V53.6035H181.482L181.571 54.5674C181.808 54.2165 182.114 53.9453 182.487 53.7539C182.861 53.5625 183.294 53.4668 183.786 53.4668C184.278 53.4668 184.7 53.5807 185.051 53.8086C185.406 54.0365 185.673 54.3783 185.851 54.834C186.083 54.4147 186.391 54.082 186.773 53.8359C187.156 53.5898 187.603 53.4668 188.113 53.4668C188.87 53.4668 189.467 53.7266 189.904 54.2461C190.342 54.7611 190.561 55.5381 190.561 56.5771V59.9473L191.675 60.1387V61H188.093V60.1387L189.207 59.9473V56.5635C189.207 55.8343 189.082 55.3193 188.831 55.0186C188.58 54.7132 188.209 54.5605 187.717 54.5605C187.247 54.5605 186.869 54.7269 186.582 55.0596C186.299 55.3877 186.135 55.8024 186.09 56.3037V59.9473L187.204 60.1387V61H183.629V60.1387L184.743 59.9473V56.5635C184.743 55.8708 184.613 55.3649 184.354 55.0459C184.098 54.7223 183.727 54.5605 183.239 54.5605C182.829 54.5605 182.492 54.6449 182.228 54.8135C181.963 54.9821 181.76 55.2191 181.619 55.5244V59.9473L182.733 60.1387V61H179.158V60.1387ZM197.485 61C197.444 60.7995 197.412 60.6195 197.39 60.46C197.367 60.3005 197.351 60.141 197.342 59.9814C197.082 60.3141 196.756 60.5921 196.364 60.8154C195.977 61.0342 195.562 61.1436 195.12 61.1436C194.35 61.1436 193.764 60.9567 193.363 60.583C192.962 60.2048 192.762 59.6738 192.762 58.9902C192.762 58.2884 193.044 57.7484 193.609 57.3701C194.179 56.9873 194.958 56.7959 195.947 56.7959H197.335V55.9346C197.335 55.5016 197.198 55.1598 196.925 54.9092C196.651 54.654 196.271 54.5264 195.783 54.5264C195.446 54.5264 195.147 54.5697 194.888 54.6562C194.632 54.7428 194.425 54.8613 194.266 55.0117L194.122 55.791H193.083V54.3555C193.42 54.0866 193.828 53.8724 194.307 53.7129C194.785 53.5488 195.305 53.4668 195.865 53.4668C196.704 53.4668 197.383 53.681 197.902 54.1094C198.422 54.5378 198.682 55.1507 198.682 55.9482V59.5098C198.682 59.6055 198.682 59.6989 198.682 59.79C198.686 59.8812 198.693 59.9723 198.702 60.0635L199.249 60.1387V61H197.485ZM195.318 60.0156C195.765 60.0156 196.173 59.9085 196.542 59.6943C196.911 59.4801 197.175 59.2227 197.335 58.9219V57.7051H195.899C195.348 57.7051 194.91 57.8327 194.587 58.0879C194.268 58.3431 194.108 58.653 194.108 59.0176C194.108 59.3411 194.209 59.5895 194.409 59.7627C194.61 59.9313 194.913 60.0156 195.318 60.0156ZM200.186 51.2041V50.3359H202.646V59.9473L203.761 60.1387V61H200.186V60.1387L201.3 59.9473V51.3955L200.186 51.2041ZM204.602 51.2041V50.3359H207.062V59.9473L208.177 60.1387V61H204.602V60.1387L205.716 59.9473V51.3955L204.602 51.2041ZM218.349 55.9277H217.337L217.118 55.0391C216.954 54.8841 216.747 54.7611 216.496 54.6699C216.25 54.5742 215.97 54.5264 215.655 54.5264C215.177 54.5264 214.821 54.6312 214.589 54.8408C214.356 55.0505 214.24 55.3034 214.24 55.5996C214.24 55.8913 214.343 56.1214 214.548 56.29C214.753 56.4587 215.17 56.609 215.799 56.7412C216.733 56.9417 217.428 57.2152 217.884 57.5615C218.34 57.9033 218.567 58.3636 218.567 58.9424C218.567 59.5986 218.301 60.1296 217.768 60.5352C217.239 60.9408 216.546 61.1436 215.689 61.1436C215.129 61.1436 214.625 61.0798 214.179 60.9521C213.732 60.82 213.333 60.6309 212.982 60.3848L212.976 58.6963H213.987L214.24 59.6875C214.395 59.8288 214.605 59.9313 214.869 59.9951C215.138 60.0589 215.411 60.0908 215.689 60.0908C216.168 60.0908 216.542 59.9951 216.811 59.8037C217.084 59.6077 217.221 59.3525 217.221 59.0381C217.221 58.7419 217.107 58.498 216.879 58.3066C216.656 58.1152 216.229 57.9489 215.601 57.8076C214.703 57.6117 214.026 57.3451 213.57 57.0078C213.115 56.6706 212.887 56.2148 212.887 55.6406C212.887 55.0391 213.142 54.5264 213.652 54.1025C214.167 53.6787 214.835 53.4668 215.655 53.4668C216.216 53.4668 216.719 53.5397 217.166 53.6855C217.613 53.8314 217.984 54.0342 218.28 54.2939L218.349 55.9277ZM222.177 51.8193V53.6035H223.578V54.6016H222.177V59.0928C222.177 59.4391 222.247 59.6829 222.389 59.8242C222.535 59.9655 222.726 60.0361 222.963 60.0361C223.081 60.0361 223.214 60.027 223.359 60.0088C223.51 59.986 223.635 59.9632 223.735 59.9404L223.92 60.8633C223.792 60.9453 223.605 61.0114 223.359 61.0615C223.113 61.1162 222.867 61.1436 222.621 61.1436C222.074 61.1436 221.639 60.9795 221.315 60.6514C220.992 60.3187 220.83 59.7992 220.83 59.0928V54.6016H219.661V53.6035H220.83V51.8193H222.177ZM229.778 61C229.737 60.7995 229.705 60.6195 229.683 60.46C229.66 60.3005 229.644 60.141 229.635 59.9814C229.375 60.3141 229.049 60.5921 228.657 60.8154C228.27 61.0342 227.855 61.1436 227.413 61.1436C226.643 61.1436 226.057 60.9567 225.656 60.583C225.255 60.2048 225.055 59.6738 225.055 58.9902C225.055 58.2884 225.337 57.7484 225.902 57.3701C226.472 56.9873 227.251 56.7959 228.24 56.7959H229.628V55.9346C229.628 55.5016 229.491 55.1598 229.218 54.9092C228.944 54.654 228.564 54.5264 228.076 54.5264C227.739 54.5264 227.44 54.5697 227.181 54.6562C226.925 54.7428 226.718 54.8613 226.559 55.0117L226.415 55.791H225.376V54.3555C225.713 54.0866 226.121 53.8724 226.6 53.7129C227.078 53.5488 227.598 53.4668 228.158 53.4668C228.997 53.4668 229.676 53.681 230.195 54.1094C230.715 54.5378 230.975 55.1507 230.975 55.9482V59.5098C230.975 59.6055 230.975 59.6989 230.975 59.79C230.979 59.8812 230.986 59.9723 230.995 60.0635L231.542 60.1387V61H229.778ZM227.611 60.0156C228.058 60.0156 228.466 59.9085 228.835 59.6943C229.204 59.4801 229.468 59.2227 229.628 58.9219V57.7051H228.192C227.641 57.7051 227.203 57.8327 226.88 58.0879C226.561 58.3431 226.401 58.653 226.401 59.0176C226.401 59.3411 226.502 59.5895 226.702 59.7627C226.903 59.9313 227.206 60.0156 227.611 60.0156ZM232.663 54.4717V53.6035H234.98L235.11 54.6768C235.32 54.2985 235.577 54.0023 235.883 53.7881C236.193 53.5739 236.546 53.4668 236.942 53.4668C237.047 53.4668 237.154 53.4759 237.264 53.4941C237.378 53.5078 237.464 53.5238 237.523 53.542L237.346 54.793L236.58 54.752C236.225 54.752 235.926 54.8363 235.685 55.0049C235.443 55.1689 235.256 55.4014 235.124 55.7021V59.9473L236.238 60.1387V61H232.663V60.1387L233.777 59.9473V54.6631L232.663 54.4717ZM241.03 51.8193V53.6035H242.432V54.6016H241.03V59.0928C241.03 59.4391 241.101 59.6829 241.242 59.8242C241.388 59.9655 241.579 60.0361 241.816 60.0361C241.935 60.0361 242.067 60.027 242.213 60.0088C242.363 59.986 242.489 59.9632 242.589 59.9404L242.773 60.8633C242.646 60.9453 242.459 61.0114 242.213 61.0615C241.967 61.1162 241.721 61.1436 241.475 61.1436C240.928 61.1436 240.493 60.9795 240.169 60.6514C239.845 60.3187 239.684 59.7992 239.684 59.0928V54.6016H238.515V53.6035H239.684V51.8193H241.03ZM247.593 57.3223H244.25V56.2695H247.593V57.3223ZM254.552 59.9062C254.319 60.3027 254.019 60.6081 253.649 60.8223C253.285 61.0365 252.863 61.1436 252.385 61.1436C251.583 61.1436 250.956 60.8861 250.505 60.3711C250.054 59.8561 249.828 59.054 249.828 57.9648V54.6631L248.98 54.4717V53.6035H249.828H251.175V57.9785C251.175 58.7669 251.291 59.3092 251.523 59.6055C251.756 59.9017 252.118 60.0498 252.61 60.0498C253.089 60.0498 253.483 59.9541 253.793 59.7627C254.107 59.5667 254.344 59.291 254.504 58.9355V54.6631L253.513 54.4717V53.6035H254.504H255.851V59.9473L256.698 60.1387V61H254.641L254.552 59.9062ZM257.601 62.9756L258.715 62.7842V54.6631L257.601 54.4717V53.6035H259.87L259.993 54.5059C260.239 54.1686 260.538 53.9111 260.889 53.7334C261.244 53.5557 261.654 53.4668 262.119 53.4668C263.035 53.4668 263.746 53.8314 264.252 54.5605C264.762 55.2852 265.018 56.2445 265.018 57.4385V57.582C265.018 58.6484 264.762 59.5098 264.252 60.166C263.742 60.8177 263.037 61.1436 262.14 61.1436C261.684 61.1436 261.283 61.0684 260.937 60.918C260.595 60.763 260.303 60.5352 260.062 60.2344V62.7842L261.176 62.9756V63.8438H257.601V62.9756ZM263.664 57.4385C263.664 56.5954 263.5 55.9049 263.172 55.3672C262.844 54.8294 262.356 54.5605 261.709 54.5605C261.326 54.5605 260.998 54.6471 260.725 54.8203C260.451 54.9935 260.23 55.2305 260.062 55.5312V59.1338C260.23 59.4391 260.449 59.6761 260.718 59.8447C260.991 60.0088 261.326 60.0908 261.723 60.0908C262.361 60.0908 262.844 59.8584 263.172 59.3936C263.5 58.9287 263.664 58.3249 263.664 57.582V57.4385ZM267.971 61H266.624V59.6191H267.971V61ZM271.348 61H270.001V59.6191H271.348V61ZM274.725 61H273.378V59.6191H274.725V61Z" fill="#666666"/>
<rect x="13.5" y="27.5" width="277" height="56" rx="2.5" stroke="#FBFBFB"/>
</g>
<path opacity="0.7" d="M16.3252 94.8906C17.2529 94.8906 17.9984 95.1771 18.5615 95.75C19.1279 96.3197 19.4111 97.057 19.4111 97.9619V98.9336C19.4111 99.8418 19.1279 100.581 18.5615 101.15C17.9984 101.717 17.2529 102 16.3252 102H13.3467V101.385L14.1426 101.248V95.6475L13.3467 95.5107V94.8906H14.1426H16.3252ZM15.1045 95.6475V101.248H16.3252C16.9827 101.248 17.5003 101.032 17.8779 100.599C18.2588 100.166 18.4492 99.6107 18.4492 98.9336V97.9521C18.4492 97.2816 18.2588 96.7298 17.8779 96.2969C17.5003 95.8639 16.9827 95.6475 16.3252 95.6475H15.1045ZM23.8154 102C23.7861 101.857 23.7633 101.728 23.7471 101.614C23.7308 101.5 23.7194 101.386 23.7129 101.272C23.5273 101.51 23.2946 101.709 23.0146 101.868C22.738 102.024 22.4417 102.103 22.126 102.103C21.5758 102.103 21.1576 101.969 20.8711 101.702C20.5846 101.432 20.4414 101.053 20.4414 100.564C20.4414 100.063 20.6432 99.6774 21.0469 99.4072C21.4538 99.1338 22.0104 98.9971 22.7168 98.9971H23.708V98.3818C23.708 98.0726 23.6104 97.8285 23.415 97.6494C23.2197 97.4671 22.9479 97.376 22.5996 97.376C22.3587 97.376 22.1455 97.4069 21.96 97.4688C21.7777 97.5306 21.6296 97.6152 21.5156 97.7227L21.4131 98.2793H20.6709V97.2539C20.9118 97.0618 21.2031 96.9089 21.5449 96.7949C21.8867 96.6777 22.2578 96.6191 22.6582 96.6191C23.2572 96.6191 23.7422 96.7721 24.1133 97.0781C24.4844 97.3841 24.6699 97.8219 24.6699 98.3916V100.936C24.6699 101.004 24.6699 101.071 24.6699 101.136C24.6732 101.201 24.6781 101.266 24.6846 101.331L25.0752 101.385V102H23.8154ZM22.2676 101.297C22.5866 101.297 22.8779 101.22 23.1416 101.067C23.4053 100.914 23.5941 100.73 23.708 100.516V99.6465H22.6826C22.2887 99.6465 21.9762 99.7376 21.7451 99.9199C21.5173 100.102 21.4033 100.324 21.4033 100.584C21.4033 100.815 21.4749 100.993 21.6182 101.116C21.7614 101.237 21.9779 101.297 22.2676 101.297ZM27.5557 95.4424V96.7168H28.5566V97.4297H27.5557V100.638C27.5557 100.885 27.6061 101.059 27.707 101.16C27.8112 101.261 27.9479 101.312 28.1172 101.312C28.2018 101.312 28.2962 101.305 28.4004 101.292C28.5078 101.276 28.5973 101.259 28.6689 101.243L28.8008 101.902C28.7096 101.961 28.5762 102.008 28.4004 102.044C28.2246 102.083 28.0488 102.103 27.873 102.103C27.4824 102.103 27.1715 101.985 26.9404 101.751C26.7093 101.513 26.5938 101.142 26.5938 100.638V97.4297H25.7588V96.7168H26.5938V95.4424H27.5557ZM32.9854 102C32.9561 101.857 32.9333 101.728 32.917 101.614C32.9007 101.5 32.8893 101.386 32.8828 101.272C32.6973 101.51 32.4645 101.709 32.1846 101.868C31.9079 102.024 31.6117 102.103 31.2959 102.103C30.7458 102.103 30.3275 101.969 30.041 101.702C29.7546 101.432 29.6113 101.053 29.6113 100.564C29.6113 100.063 29.8132 99.6774 30.2168 99.4072C30.6237 99.1338 31.1803 98.9971 31.8867 98.9971H32.8779V98.3818C32.8779 98.0726 32.7803 97.8285 32.585 97.6494C32.3896 97.4671 32.1178 97.376 31.7695 97.376C31.5286 97.376 31.3154 97.4069 31.1299 97.4688C30.9476 97.5306 30.7995 97.6152 30.6855 97.7227L30.583 98.2793H29.8408V97.2539C30.0817 97.0618 30.373 96.9089 30.7148 96.7949C31.0566 96.6777 31.4277 96.6191 31.8281 96.6191C32.4271 96.6191 32.9121 96.7721 33.2832 97.0781C33.6543 97.3841 33.8398 97.8219 33.8398 98.3916V100.936C33.8398 101.004 33.8398 101.071 33.8398 101.136C33.8431 101.201 33.848 101.266 33.8545 101.331L34.2451 101.385V102H32.9854ZM31.4375 101.297C31.7565 101.297 32.0479 101.22 32.3115 101.067C32.5752 100.914 32.764 100.73 32.8779 100.516V99.6465H31.8525C31.4587 99.6465 31.1462 99.7376 30.915 99.9199C30.6872 100.102 30.5732 100.324 30.5732 100.584C30.5732 100.815 30.6449 100.993 30.7881 101.116C30.9313 101.237 31.1478 101.297 31.4375 101.297Z" fill="#4D56DB"/>
<g filter="url(#filter1_d)">
<rect x="13" y="104" width="283" height="57" rx="3" fill="white"/>
<path d="M38 140.5H42V124.5H38V140.5ZM32 140.5H36V132.5H32V140.5ZM44 129.5V140.5H48V129.5H44Z" fill="#4D56DB"/>
<path d="M57.8271 137.139L59.3652 136.947V129.489L57.7998 129.517V128.676L60.7119 128.047V136.947L62.2432 137.139V138H57.8271V137.139ZM67.3086 127.903C67.6458 127.903 67.9808 127.942 68.3135 128.02C68.6507 128.097 68.9287 128.195 69.1475 128.313L68.8877 129.318C68.6735 129.214 68.4388 129.129 68.1836 129.065C67.9284 128.997 67.6367 128.963 67.3086 128.963C66.6113 128.963 66.0553 129.227 65.6406 129.756C65.2305 130.28 65.0117 131.073 64.9844 132.135L65.0117 132.162C65.2669 131.925 65.5791 131.738 65.9482 131.602C66.3174 131.46 66.7161 131.39 67.1445 131.39C68.0332 131.39 68.7419 131.697 69.2705 132.312C69.7992 132.928 70.0635 133.707 70.0635 134.65C70.0635 135.68 69.7809 136.521 69.2158 137.173C68.6553 137.82 67.9056 138.144 66.9668 138.144C65.9961 138.144 65.1917 137.79 64.5537 137.084C63.9157 136.378 63.5967 135.377 63.5967 134.083V132.743C63.5967 131.166 63.943 129.965 64.6357 129.141C65.3285 128.316 66.2194 127.903 67.3086 127.903ZM66.8506 132.395C66.3903 132.395 65.9984 132.488 65.6748 132.675C65.3512 132.857 65.1051 133.103 64.9365 133.413V134.213C64.9365 135.138 65.1279 135.849 65.5107 136.346C65.8981 136.842 66.3835 137.091 66.9668 137.091C67.5182 137.091 67.9466 136.858 68.252 136.394C68.5618 135.924 68.7168 135.343 68.7168 134.65C68.7168 133.994 68.5505 133.454 68.2178 133.03C67.8896 132.606 67.4339 132.395 66.8506 132.395ZM72.9277 138H71.5811V136.619H72.9277V138ZM80.208 134.65H81.582V135.703H80.208V136.947L81.3223 137.139V138H77.7539V137.139L78.8682 136.947V135.703H74.3975V134.944L78.7861 128.047H80.208V134.65ZM75.833 134.65H78.8682V129.968L78.8271 129.954L78.6904 130.316L75.833 134.65ZM82.6143 129.961C82.6143 129.382 82.8011 128.895 83.1748 128.498C83.5485 128.102 84.0452 127.903 84.665 127.903C85.2939 127.903 85.7952 128.102 86.1689 128.498C86.5426 128.89 86.7295 129.378 86.7295 129.961V130.487C86.7295 131.066 86.5426 131.551 86.1689 131.943C85.7952 132.335 85.2985 132.531 84.6787 132.531C84.0544 132.531 83.5531 132.335 83.1748 131.943C82.8011 131.551 82.6143 131.066 82.6143 130.487V129.961ZM83.6123 130.487C83.6123 130.825 83.7035 131.112 83.8857 131.349C84.0726 131.581 84.3369 131.697 84.6787 131.697C85.0114 131.697 85.2689 131.581 85.4512 131.349C85.638 131.116 85.7314 130.829 85.7314 130.487V129.961C85.7314 129.624 85.638 129.337 85.4512 129.1C85.2643 128.858 85.0023 128.737 84.665 128.737C84.3278 128.737 84.068 128.858 83.8857 129.1C83.7035 129.337 83.6123 129.624 83.6123 129.961V130.487ZM87.4336 135.56C87.4336 134.985 87.6204 134.5 87.9941 134.104C88.3678 133.707 88.8646 133.509 89.4844 133.509C90.1087 133.509 90.6077 133.707 90.9814 134.104C91.3597 134.495 91.5488 134.981 91.5488 135.56V136.093C91.5488 136.676 91.362 137.164 90.9883 137.556C90.6146 137.948 90.1178 138.144 89.498 138.144C88.8691 138.144 88.3678 137.948 87.9941 137.556C87.6204 137.164 87.4336 136.676 87.4336 136.093V135.56ZM88.4316 136.093C88.4316 136.435 88.5228 136.724 88.7051 136.961C88.8919 137.193 89.1562 137.31 89.498 137.31C89.8353 137.31 90.0951 137.193 90.2773 136.961C90.4596 136.724 90.5508 136.435 90.5508 136.093V135.56C90.5508 135.222 90.4574 134.935 90.2705 134.698C90.0837 134.461 89.8216 134.343 89.4844 134.343C89.1471 134.343 88.8874 134.461 88.7051 134.698C88.5228 134.935 88.4316 135.222 88.4316 135.56V136.093ZM85.1094 137.248L84.3643 136.79L89.2246 129.011L89.9697 129.469L85.1094 137.248ZM96.1699 134.233C96.1699 133.14 96.4661 132.24 97.0586 131.533C97.651 130.822 98.4554 130.467 99.4717 130.467C100.493 130.467 101.299 130.82 101.892 131.526C102.489 132.233 102.787 133.135 102.787 134.233V134.384C102.787 135.487 102.491 136.389 101.898 137.091C101.306 137.793 100.502 138.144 99.4854 138.144C98.46 138.144 97.651 137.793 97.0586 137.091C96.4661 136.384 96.1699 135.482 96.1699 134.384V134.233ZM97.5166 134.384C97.5166 135.168 97.6807 135.815 98.0088 136.325C98.3415 136.836 98.8337 137.091 99.4854 137.091C100.123 137.091 100.609 136.836 100.941 136.325C101.274 135.815 101.44 135.168 101.44 134.384V134.233C101.44 133.459 101.274 132.814 100.941 132.299C100.609 131.784 100.119 131.526 99.4717 131.526C98.8245 131.526 98.3369 131.784 98.0088 132.299C97.6807 132.814 97.5166 133.459 97.5166 134.233V134.384ZM103.895 131.602V130.604H105.05V129.667C105.05 128.879 105.255 128.27 105.665 127.842C106.08 127.409 106.656 127.192 107.395 127.192C107.549 127.192 107.704 127.206 107.859 127.233C108.019 127.256 108.194 127.29 108.386 127.336L108.222 128.361C108.14 128.343 108.039 128.327 107.921 128.313C107.807 128.3 107.688 128.293 107.565 128.293C107.169 128.293 106.875 128.411 106.684 128.648C106.492 128.881 106.396 129.22 106.396 129.667V130.604H107.941V131.602H106.396V136.947L107.511 137.139V138H103.936V137.139L105.05 136.947V131.602H103.895ZM118.147 132.928H117.136L116.917 132.039C116.753 131.884 116.546 131.761 116.295 131.67C116.049 131.574 115.769 131.526 115.454 131.526C114.976 131.526 114.62 131.631 114.388 131.841C114.155 132.05 114.039 132.303 114.039 132.6C114.039 132.891 114.142 133.121 114.347 133.29C114.552 133.459 114.969 133.609 115.598 133.741C116.532 133.942 117.227 134.215 117.683 134.562C118.138 134.903 118.366 135.364 118.366 135.942C118.366 136.599 118.1 137.13 117.566 137.535C117.038 137.941 116.345 138.144 115.488 138.144C114.928 138.144 114.424 138.08 113.978 137.952C113.531 137.82 113.132 137.631 112.781 137.385L112.774 135.696H113.786L114.039 136.688C114.194 136.829 114.404 136.931 114.668 136.995C114.937 137.059 115.21 137.091 115.488 137.091C115.967 137.091 116.34 136.995 116.609 136.804C116.883 136.608 117.02 136.353 117.02 136.038C117.02 135.742 116.906 135.498 116.678 135.307C116.454 135.115 116.028 134.949 115.399 134.808C114.502 134.612 113.825 134.345 113.369 134.008C112.913 133.671 112.686 133.215 112.686 132.641C112.686 132.039 112.941 131.526 113.451 131.103C113.966 130.679 114.634 130.467 115.454 130.467C116.015 130.467 116.518 130.54 116.965 130.686C117.411 130.831 117.783 131.034 118.079 131.294L118.147 132.928ZM121.976 128.819V130.604H123.377V131.602H121.976V136.093C121.976 136.439 122.046 136.683 122.188 136.824C122.333 136.965 122.525 137.036 122.762 137.036C122.88 137.036 123.012 137.027 123.158 137.009C123.309 136.986 123.434 136.963 123.534 136.94L123.719 137.863C123.591 137.945 123.404 138.011 123.158 138.062C122.912 138.116 122.666 138.144 122.42 138.144C121.873 138.144 121.438 137.979 121.114 137.651C120.791 137.319 120.629 136.799 120.629 136.093V131.602H119.46V130.604H120.629V128.819H121.976ZM130.042 136.906C129.81 137.303 129.509 137.608 129.14 137.822C128.775 138.036 128.354 138.144 127.875 138.144C127.073 138.144 126.446 137.886 125.995 137.371C125.544 136.856 125.318 136.054 125.318 134.965V131.663L124.471 131.472V130.604H125.318H126.665V134.979C126.665 135.767 126.781 136.309 127.014 136.605C127.246 136.902 127.608 137.05 128.101 137.05C128.579 137.05 128.973 136.954 129.283 136.763C129.598 136.567 129.835 136.291 129.994 135.936V131.663L129.003 131.472V130.604H129.994H131.341V136.947L132.188 137.139V138H130.131L130.042 136.906ZM138.238 137.118C137.997 137.455 137.701 137.711 137.35 137.884C137.003 138.057 136.6 138.144 136.14 138.144C135.237 138.144 134.531 137.818 134.021 137.166C133.515 136.51 133.262 135.648 133.262 134.582V134.438C133.262 133.249 133.515 132.29 134.021 131.561C134.531 130.831 135.242 130.467 136.153 130.467C136.591 130.467 136.976 130.549 137.309 130.713C137.646 130.872 137.933 131.105 138.17 131.41V128.396L137.056 128.204V127.336H138.17H139.517V136.947L140.631 137.139V138H138.348L138.238 137.118ZM134.608 134.582C134.608 135.325 134.761 135.922 135.066 136.373C135.372 136.824 135.843 137.05 136.481 137.05C136.882 137.05 137.22 136.959 137.493 136.776C137.767 136.594 137.992 136.337 138.17 136.004V132.572C137.997 132.262 137.771 132.016 137.493 131.834C137.215 131.652 136.882 131.561 136.495 131.561C135.853 131.561 135.376 131.827 135.066 132.36C134.761 132.894 134.608 133.586 134.608 134.438V134.582ZM145.04 138.144C144.01 138.144 143.19 137.802 142.579 137.118C141.973 136.43 141.67 135.539 141.67 134.445V134.145C141.67 133.092 141.982 132.217 142.606 131.52C143.235 130.818 143.978 130.467 144.835 130.467C145.828 130.467 146.58 130.768 147.091 131.369C147.606 131.971 147.863 132.773 147.863 133.775V134.616H143.064L143.044 134.65C143.058 135.361 143.238 135.947 143.584 136.407C143.93 136.863 144.416 137.091 145.04 137.091C145.496 137.091 145.895 137.027 146.236 136.899C146.583 136.767 146.881 136.587 147.132 136.359L147.658 137.234C147.394 137.49 147.043 137.706 146.605 137.884C146.173 138.057 145.651 138.144 145.04 138.144ZM144.835 131.526C144.384 131.526 143.999 131.718 143.68 132.101C143.361 132.479 143.165 132.955 143.092 133.529L143.105 133.563H146.517V133.386C146.517 132.857 146.375 132.415 146.093 132.06C145.81 131.704 145.391 131.526 144.835 131.526ZM148.998 137.139L150.112 136.947V131.663L148.998 131.472V130.604H151.315L151.411 131.704C151.657 131.312 151.965 131.009 152.334 130.795C152.708 130.576 153.132 130.467 153.605 130.467C154.403 130.467 155.021 130.701 155.458 131.171C155.896 131.636 156.114 132.356 156.114 133.331V136.947L157.229 137.139V138H153.653V137.139L154.768 136.947V133.358C154.768 132.707 154.638 132.244 154.378 131.971C154.123 131.697 153.731 131.561 153.202 131.561C152.815 131.561 152.471 131.654 152.17 131.841C151.874 132.028 151.637 132.283 151.459 132.606V136.947L152.573 137.139V138H148.998V137.139ZM160.558 128.819V130.604H161.959V131.602H160.558V136.093C160.558 136.439 160.628 136.683 160.77 136.824C160.915 136.965 161.107 137.036 161.344 137.036C161.462 137.036 161.594 137.027 161.74 137.009C161.891 136.986 162.016 136.963 162.116 136.94L162.301 137.863C162.173 137.945 161.986 138.011 161.74 138.062C161.494 138.116 161.248 138.144 161.002 138.144C160.455 138.144 160.02 137.979 159.696 137.651C159.373 137.319 159.211 136.799 159.211 136.093V131.602H158.042V130.604H159.211V128.819H160.558ZM168.993 132.928H167.981L167.763 132.039C167.599 131.884 167.391 131.761 167.141 131.67C166.895 131.574 166.614 131.526 166.3 131.526C165.821 131.526 165.466 131.631 165.233 131.841C165.001 132.05 164.885 132.303 164.885 132.6C164.885 132.891 164.987 133.121 165.192 133.29C165.397 133.459 165.814 133.609 166.443 133.741C167.378 133.942 168.073 134.215 168.528 134.562C168.984 134.903 169.212 135.364 169.212 135.942C169.212 136.599 168.945 137.13 168.412 137.535C167.883 137.941 167.191 138.144 166.334 138.144C165.773 138.144 165.27 138.08 164.823 137.952C164.377 137.82 163.978 137.631 163.627 137.385L163.62 135.696H164.632L164.885 136.688C165.04 136.829 165.249 136.931 165.514 136.995C165.783 137.059 166.056 137.091 166.334 137.091C166.812 137.091 167.186 136.995 167.455 136.804C167.729 136.608 167.865 136.353 167.865 136.038C167.865 135.742 167.751 135.498 167.523 135.307C167.3 135.115 166.874 134.949 166.245 134.808C165.347 134.612 164.671 134.345 164.215 134.008C163.759 133.671 163.531 133.215 163.531 132.641C163.531 132.039 163.786 131.526 164.297 131.103C164.812 130.679 165.479 130.467 166.3 130.467C166.86 130.467 167.364 130.54 167.811 130.686C168.257 130.831 168.629 131.034 168.925 131.294L168.993 132.928ZM178.782 138C178.741 137.799 178.709 137.619 178.687 137.46C178.664 137.3 178.648 137.141 178.639 136.981C178.379 137.314 178.053 137.592 177.661 137.815C177.274 138.034 176.859 138.144 176.417 138.144C175.647 138.144 175.061 137.957 174.66 137.583C174.259 137.205 174.059 136.674 174.059 135.99C174.059 135.288 174.341 134.748 174.906 134.37C175.476 133.987 176.255 133.796 177.244 133.796H178.632V132.935C178.632 132.502 178.495 132.16 178.222 131.909C177.948 131.654 177.568 131.526 177.08 131.526C176.743 131.526 176.444 131.57 176.185 131.656C175.929 131.743 175.722 131.861 175.562 132.012L175.419 132.791H174.38V131.355C174.717 131.087 175.125 130.872 175.604 130.713C176.082 130.549 176.602 130.467 177.162 130.467C178.001 130.467 178.68 130.681 179.199 131.109C179.719 131.538 179.979 132.151 179.979 132.948V136.51C179.979 136.605 179.979 136.699 179.979 136.79C179.983 136.881 179.99 136.972 179.999 137.063L180.546 137.139V138H178.782ZM176.615 137.016C177.062 137.016 177.47 136.909 177.839 136.694C178.208 136.48 178.472 136.223 178.632 135.922V134.705H177.196C176.645 134.705 176.207 134.833 175.884 135.088C175.565 135.343 175.405 135.653 175.405 136.018C175.405 136.341 175.506 136.59 175.706 136.763C175.907 136.931 176.21 137.016 176.615 137.016ZM181.667 131.472V130.604H183.984L184.114 131.677C184.324 131.299 184.581 131.002 184.887 130.788C185.197 130.574 185.55 130.467 185.946 130.467C186.051 130.467 186.158 130.476 186.268 130.494C186.382 130.508 186.468 130.524 186.527 130.542L186.35 131.793L185.584 131.752C185.229 131.752 184.93 131.836 184.688 132.005C184.447 132.169 184.26 132.401 184.128 132.702V136.947L185.242 137.139V138H181.667V137.139L182.781 136.947V131.663L181.667 131.472ZM190.704 138.144C189.674 138.144 188.854 137.802 188.243 137.118C187.637 136.43 187.334 135.539 187.334 134.445V134.145C187.334 133.092 187.646 132.217 188.271 131.52C188.899 130.818 189.642 130.467 190.499 130.467C191.493 130.467 192.244 130.768 192.755 131.369C193.27 131.971 193.527 132.773 193.527 133.775V134.616H188.729L188.708 134.65C188.722 135.361 188.902 135.947 189.248 136.407C189.594 136.863 190.08 137.091 190.704 137.091C191.16 137.091 191.559 137.027 191.9 136.899C192.247 136.767 192.545 136.587 192.796 136.359L193.322 137.234C193.058 137.49 192.707 137.706 192.27 137.884C191.837 138.057 191.315 138.144 190.704 138.144ZM190.499 131.526C190.048 131.526 189.663 131.718 189.344 132.101C189.025 132.479 188.829 132.955 188.756 133.529L188.77 133.563H192.181V133.386C192.181 132.857 192.039 132.415 191.757 132.06C191.474 131.704 191.055 131.526 190.499 131.526ZM198.347 131.472V130.604H200.664L200.794 131.677C201.004 131.299 201.261 131.002 201.566 130.788C201.876 130.574 202.229 130.467 202.626 130.467C202.731 130.467 202.838 130.476 202.947 130.494C203.061 130.508 203.148 130.524 203.207 130.542L203.029 131.793L202.264 131.752C201.908 131.752 201.61 131.836 201.368 132.005C201.127 132.169 200.94 132.401 200.808 132.702V136.947L201.922 137.139V138H198.347V137.139L199.461 136.947V131.663L198.347 131.472ZM207.384 138.144C206.354 138.144 205.534 137.802 204.923 137.118C204.317 136.43 204.014 135.539 204.014 134.445V134.145C204.014 133.092 204.326 132.217 204.95 131.52C205.579 130.818 206.322 130.467 207.179 130.467C208.172 130.467 208.924 130.768 209.435 131.369C209.95 131.971 210.207 132.773 210.207 133.775V134.616H205.408L205.388 134.65C205.401 135.361 205.581 135.947 205.928 136.407C206.274 136.863 206.759 137.091 207.384 137.091C207.84 137.091 208.238 137.027 208.58 136.899C208.926 136.767 209.225 136.587 209.476 136.359L210.002 137.234C209.738 137.49 209.387 137.706 208.949 137.884C208.516 138.057 207.994 138.144 207.384 138.144ZM207.179 131.526C206.728 131.526 206.342 131.718 206.023 132.101C205.704 132.479 205.508 132.955 205.436 133.529L205.449 133.563H208.86V133.386C208.86 132.857 208.719 132.415 208.437 132.06C208.154 131.704 207.735 131.526 207.179 131.526ZM211.547 134.438C211.547 133.249 211.8 132.29 212.306 131.561C212.816 130.831 213.527 130.467 214.438 130.467C214.871 130.467 215.257 130.549 215.594 130.713C215.931 130.872 216.218 131.107 216.455 131.417L216.564 130.604H217.727V139.784L218.841 139.976V140.844H215.266V139.976L216.38 139.784V137.303C216.143 137.581 215.86 137.79 215.532 137.932C215.209 138.073 214.84 138.144 214.425 138.144C213.522 138.144 212.816 137.818 212.306 137.166C211.8 136.51 211.547 135.648 211.547 134.582V134.438ZM212.894 134.582C212.894 135.329 213.046 135.936 213.352 136.4C213.657 136.861 214.129 137.091 214.767 137.091C215.14 137.091 215.457 137.009 215.717 136.845C215.981 136.681 216.202 136.448 216.38 136.147V132.436C216.202 132.158 215.981 131.937 215.717 131.772C215.452 131.608 215.14 131.526 214.78 131.526C214.138 131.526 213.661 131.8 213.352 132.347C213.046 132.889 212.894 133.586 212.894 134.438V134.582ZM224.733 136.906C224.501 137.303 224.2 137.608 223.831 137.822C223.466 138.036 223.045 138.144 222.566 138.144C221.764 138.144 221.138 137.886 220.687 137.371C220.235 136.856 220.01 136.054 220.01 134.965V131.663L219.162 131.472V130.604H220.01H221.356V134.979C221.356 135.767 221.473 136.309 221.705 136.605C221.938 136.902 222.3 137.05 222.792 137.05C223.271 137.05 223.665 136.954 223.975 136.763C224.289 136.567 224.526 136.291 224.686 135.936V131.663L223.694 131.472V130.604H224.686H226.032V136.947L226.88 137.139V138H224.822L224.733 136.906ZM227.946 137.139L229.061 136.947V131.663L227.946 131.472V130.604H230.407V136.947L231.521 137.139V138H227.946V137.139ZM230.407 128.71H229.061V127.336H230.407V128.71ZM232.554 131.472V130.604H234.871L235.001 131.677C235.211 131.299 235.468 131.002 235.773 130.788C236.083 130.574 236.437 130.467 236.833 130.467C236.938 130.467 237.045 130.476 237.154 130.494C237.268 130.508 237.355 130.524 237.414 130.542L237.236 131.793L236.471 131.752C236.115 131.752 235.817 131.836 235.575 132.005C235.334 132.169 235.147 132.401 235.015 132.702V136.947L236.129 137.139V138H232.554V137.139L233.668 136.947V131.663L232.554 131.472ZM241.591 138.144C240.561 138.144 239.741 137.802 239.13 137.118C238.524 136.43 238.221 135.539 238.221 134.445V134.145C238.221 133.092 238.533 132.217 239.157 131.52C239.786 130.818 240.529 130.467 241.386 130.467C242.379 130.467 243.131 130.768 243.642 131.369C244.157 131.971 244.414 132.773 244.414 133.775V134.616H239.615L239.595 134.65C239.608 135.361 239.788 135.947 240.135 136.407C240.481 136.863 240.966 137.091 241.591 137.091C242.047 137.091 242.445 137.027 242.787 136.899C243.133 136.767 243.432 136.587 243.683 136.359L244.209 137.234C243.945 137.49 243.594 137.706 243.156 137.884C242.723 138.057 242.201 138.144 241.591 138.144ZM241.386 131.526C240.935 131.526 240.549 131.718 240.23 132.101C239.911 132.479 239.715 132.955 239.643 133.529L239.656 133.563H243.067V133.386C243.067 132.857 242.926 132.415 242.644 132.06C242.361 131.704 241.942 131.526 241.386 131.526ZM250.73 137.118C250.489 137.455 250.193 137.711 249.842 137.884C249.495 138.057 249.092 138.144 248.632 138.144C247.729 138.144 247.023 137.818 246.513 137.166C246.007 136.51 245.754 135.648 245.754 134.582V134.438C245.754 133.249 246.007 132.29 246.513 131.561C247.023 130.831 247.734 130.467 248.646 130.467C249.083 130.467 249.468 130.549 249.801 130.713C250.138 130.872 250.425 131.105 250.662 131.41V128.396L249.548 128.204V127.336H250.662H252.009V136.947L253.123 137.139V138H250.84L250.73 137.118ZM247.101 134.582C247.101 135.325 247.253 135.922 247.559 136.373C247.864 136.824 248.336 137.05 248.974 137.05C249.375 137.05 249.712 136.959 249.985 136.776C250.259 136.594 250.484 136.337 250.662 136.004V132.572C250.489 132.262 250.263 132.016 249.985 131.834C249.707 131.652 249.375 131.561 248.987 131.561C248.345 131.561 247.868 131.827 247.559 132.36C247.253 132.894 247.101 133.586 247.101 134.438V134.582ZM259.993 128.819V130.604H261.395V131.602H259.993V136.093C259.993 136.439 260.064 136.683 260.205 136.824C260.351 136.965 260.542 137.036 260.779 137.036C260.898 137.036 261.03 137.027 261.176 137.009C261.326 136.986 261.451 136.963 261.552 136.94L261.736 137.863C261.609 137.945 261.422 138.011 261.176 138.062C260.93 138.116 260.684 138.144 260.438 138.144C259.891 138.144 259.455 137.979 259.132 137.651C258.808 137.319 258.646 136.799 258.646 136.093V131.602H257.478V130.604H258.646V128.819H259.993ZM262.639 134.233C262.639 133.14 262.935 132.24 263.527 131.533C264.12 130.822 264.924 130.467 265.94 130.467C266.961 130.467 267.768 130.82 268.36 131.526C268.957 132.233 269.256 133.135 269.256 134.233V134.384C269.256 135.487 268.96 136.389 268.367 137.091C267.775 137.793 266.97 138.144 265.954 138.144C264.929 138.144 264.12 137.793 263.527 137.091C262.935 136.384 262.639 135.482 262.639 134.384V134.233ZM263.985 134.384C263.985 135.168 264.149 135.815 264.478 136.325C264.81 136.836 265.302 137.091 265.954 137.091C266.592 137.091 267.077 136.836 267.41 136.325C267.743 135.815 267.909 135.168 267.909 134.384V134.233C267.909 133.459 267.743 132.814 267.41 132.299C267.077 131.784 266.588 131.526 265.94 131.526C265.293 131.526 264.806 131.784 264.478 132.299C264.149 132.814 263.985 133.459 263.985 134.233V134.384ZM272.223 138H270.876V136.619H272.223V138ZM275.6 138H274.253V136.619H275.6V138ZM278.977 138H277.63V136.619H278.977V138Z" fill="#666666"/>
<rect x="13.5" y="104.5" width="282" height="56" rx="2.5" stroke="#FBFBFB"/>
</g>
<path opacity="0.7" d="M16.3252 171.891C17.2529 171.891 17.9984 172.177 18.5615 172.75C19.1279 173.32 19.4111 174.057 19.4111 174.962V175.934C19.4111 176.842 19.1279 177.581 18.5615 178.15C17.9984 178.717 17.2529 179 16.3252 179H13.3467V178.385L14.1426 178.248V172.647L13.3467 172.511V171.891H14.1426H16.3252ZM15.1045 172.647V178.248H16.3252C16.9827 178.248 17.5003 178.032 17.8779 177.599C18.2588 177.166 18.4492 176.611 18.4492 175.934V174.952C18.4492 174.282 18.2588 173.73 17.8779 173.297C17.5003 172.864 16.9827 172.647 16.3252 172.647H15.1045ZM22.7803 179.103C22.0446 179.103 21.4587 178.858 21.0225 178.37C20.5895 177.879 20.373 177.242 20.373 176.461V176.246C20.373 175.494 20.596 174.869 21.042 174.371C21.4912 173.87 22.0218 173.619 22.6338 173.619C23.3434 173.619 23.8805 173.834 24.2451 174.264C24.613 174.693 24.7969 175.266 24.7969 175.982V176.583H21.3691L21.3545 176.607C21.3643 177.115 21.4928 177.534 21.7402 177.862C21.9876 178.188 22.3343 178.351 22.7803 178.351C23.1058 178.351 23.3906 178.305 23.6348 178.214C23.8822 178.119 24.0954 177.991 24.2744 177.828L24.6504 178.453C24.4616 178.635 24.2109 178.79 23.8984 178.917C23.5892 179.041 23.2165 179.103 22.7803 179.103ZM22.6338 174.376C22.3115 174.376 22.0365 174.513 21.8086 174.786C21.5807 175.056 21.4408 175.396 21.3887 175.807L21.3984 175.831H23.835V175.704C23.835 175.326 23.734 175.011 23.5322 174.757C23.3304 174.503 23.0309 174.376 22.6338 174.376ZM25.6172 172.003V171.383H27.375V178.248L28.1709 178.385V179H25.6172V178.385L26.4131 178.248V172.14L25.6172 172.003ZM28.9033 178.385L29.6992 178.248V174.474L28.9033 174.337V173.717H30.6611V178.248L31.457 178.385V179H28.9033V178.385ZM30.6611 172.364H29.6992V171.383H30.6611V172.364ZM34.6064 179.103C33.8708 179.103 33.2848 178.858 32.8486 178.37C32.4157 177.879 32.1992 177.242 32.1992 176.461V176.246C32.1992 175.494 32.4222 174.869 32.8682 174.371C33.3174 173.87 33.848 173.619 34.46 173.619C35.1696 173.619 35.7067 173.834 36.0713 174.264C36.4391 174.693 36.623 175.266 36.623 175.982V176.583H33.1953L33.1807 176.607C33.1904 177.115 33.319 177.534 33.5664 177.862C33.8138 178.188 34.1605 178.351 34.6064 178.351C34.932 178.351 35.2168 178.305 35.4609 178.214C35.7083 178.119 35.9215 177.991 36.1006 177.828L36.4766 178.453C36.2878 178.635 36.0371 178.79 35.7246 178.917C35.4154 179.041 35.0426 179.103 34.6064 179.103ZM34.46 174.376C34.1377 174.376 33.8626 174.513 33.6348 174.786C33.4069 175.056 33.2669 175.396 33.2148 175.807L33.2246 175.831H35.6611V175.704C35.6611 175.326 35.5602 175.011 35.3584 174.757C35.1566 174.503 34.8571 174.376 34.46 174.376ZM39.3184 174.337L38.6836 174.435L39.7725 177.442L39.8604 177.823H39.8896L39.9824 177.442L41.0371 174.435L40.3975 174.337V173.717H42.4385V174.337L42.0039 174.41L40.2314 179H39.5039L37.7119 174.41L37.2773 174.337V173.717H39.3184V174.337ZM45.4365 179.103C44.7008 179.103 44.1149 178.858 43.6787 178.37C43.2458 177.879 43.0293 177.242 43.0293 176.461V176.246C43.0293 175.494 43.2523 174.869 43.6982 174.371C44.1475 173.87 44.6781 173.619 45.29 173.619C45.9997 173.619 46.5368 173.834 46.9014 174.264C47.2692 174.693 47.4531 175.266 47.4531 175.982V176.583H44.0254L44.0107 176.607C44.0205 177.115 44.1491 177.534 44.3965 177.862C44.6439 178.188 44.9906 178.351 45.4365 178.351C45.762 178.351 46.0469 178.305 46.291 178.214C46.5384 178.119 46.7516 177.991 46.9307 177.828L47.3066 178.453C47.1178 178.635 46.8672 178.79 46.5547 178.917C46.2454 179.041 45.8727 179.103 45.4365 179.103ZM45.29 174.376C44.9678 174.376 44.6927 174.513 44.4648 174.786C44.237 175.056 44.097 175.396 44.0449 175.807L44.0547 175.831H46.4912V175.704C46.4912 175.326 46.3903 175.011 46.1885 174.757C45.9867 174.503 45.6872 174.376 45.29 174.376ZM48.4053 174.337V173.717H50.0605L50.1533 174.483C50.3031 174.213 50.487 174.002 50.7051 173.849C50.9264 173.696 51.1787 173.619 51.4619 173.619C51.5368 173.619 51.6133 173.626 51.6914 173.639C51.7728 173.648 51.8346 173.66 51.877 173.673L51.75 174.566L51.2031 174.537C50.9492 174.537 50.736 174.597 50.5635 174.718C50.391 174.835 50.2575 175.001 50.1631 175.216V178.248L50.959 178.385V179H48.4053V178.385L49.2012 178.248V174.474L48.4053 174.337ZM55.9932 179C55.9639 178.857 55.9411 178.728 55.9248 178.614C55.9085 178.5 55.8971 178.386 55.8906 178.272C55.7051 178.51 55.4723 178.709 55.1924 178.868C54.9157 179.024 54.6195 179.103 54.3037 179.103C53.7536 179.103 53.3353 178.969 53.0488 178.702C52.7624 178.432 52.6191 178.053 52.6191 177.564C52.6191 177.063 52.821 176.677 53.2246 176.407C53.6315 176.134 54.1882 175.997 54.8945 175.997H55.8857V175.382C55.8857 175.073 55.7881 174.828 55.5928 174.649C55.3975 174.467 55.1257 174.376 54.7773 174.376C54.5365 174.376 54.3232 174.407 54.1377 174.469C53.9554 174.531 53.8073 174.615 53.6934 174.723L53.5908 175.279H52.8486V174.254C53.0895 174.062 53.3809 173.909 53.7227 173.795C54.0645 173.678 54.4355 173.619 54.8359 173.619C55.4349 173.619 55.9199 173.772 56.291 174.078C56.6621 174.384 56.8477 174.822 56.8477 175.392V177.936C56.8477 178.004 56.8477 178.071 56.8477 178.136C56.8509 178.201 56.8558 178.266 56.8623 178.331L57.2529 178.385V179H55.9932ZM54.4453 178.297C54.7643 178.297 55.0557 178.22 55.3193 178.067C55.583 177.914 55.7718 177.73 55.8857 177.516V176.646H54.8604C54.4665 176.646 54.154 176.738 53.9229 176.92C53.695 177.102 53.5811 177.324 53.5811 177.584C53.5811 177.815 53.6527 177.993 53.7959 178.116C53.9391 178.237 54.1556 178.297 54.4453 178.297ZM62.8877 176.559C62.8877 177.32 62.7038 177.936 62.3359 178.404C61.9714 178.87 61.4684 179.103 60.8271 179.103C60.4821 179.103 60.1826 179.037 59.9287 178.907C59.6748 178.774 59.4632 178.578 59.2939 178.321L59.2061 179H58.376V172.14L57.5801 172.003V171.383H59.3379V174.342C59.5039 174.107 59.709 173.928 59.9531 173.805C60.2005 173.681 60.4886 173.619 60.8174 173.619C61.4684 173.619 61.9762 173.88 62.3408 174.4C62.7054 174.921 62.8877 175.606 62.8877 176.456V176.559ZM61.9209 176.456C61.9209 175.847 61.8102 175.353 61.5889 174.972C61.3675 174.591 61.029 174.4 60.5732 174.4C60.277 174.4 60.0264 174.472 59.8213 174.615C59.6195 174.758 59.4583 174.951 59.3379 175.191V177.525C59.4583 177.77 59.6211 177.963 59.8262 178.106C60.0345 178.25 60.2868 178.321 60.583 178.321C61.0355 178.321 61.3708 178.16 61.5889 177.838C61.8102 177.516 61.9209 177.089 61.9209 176.559V176.456ZM63.6641 172.003V171.383H65.4219V178.248L66.2178 178.385V179H63.6641V178.385L64.46 178.248V172.14L63.6641 172.003ZM69.3623 179.103C68.6266 179.103 68.0407 178.858 67.6045 178.37C67.1715 177.879 66.9551 177.242 66.9551 176.461V176.246C66.9551 175.494 67.1781 174.869 67.624 174.371C68.0732 173.87 68.6038 173.619 69.2158 173.619C69.9255 173.619 70.4626 173.834 70.8271 174.264C71.195 174.693 71.3789 175.266 71.3789 175.982V176.583H67.9512L67.9365 176.607C67.9463 177.115 68.0749 177.534 68.3223 177.862C68.5697 178.188 68.9163 178.351 69.3623 178.351C69.6878 178.351 69.9727 178.305 70.2168 178.214C70.4642 178.119 70.6774 177.991 70.8564 177.828L71.2324 178.453C71.0436 178.635 70.793 178.79 70.4805 178.917C70.1712 179.041 69.7985 179.103 69.3623 179.103ZM69.2158 174.376C68.8936 174.376 68.6185 174.513 68.3906 174.786C68.1628 175.056 68.0228 175.396 67.9707 175.807L67.9805 175.831H70.417V175.704C70.417 175.326 70.3161 175.011 70.1143 174.757C69.9124 174.503 69.613 174.376 69.2158 174.376Z" fill="#4D56DB"/>
<g filter="url(#filter2_d)">
<rect x="13" y="182" width="306" height="57" rx="3" fill="white"/>
<path d="M45 202.5H35V217.5H45V202.5Z" fill="#4D56DB"/>
<path d="M33 204.5H31V215.5H33V204.5Z" fill="#4D56DB"/>
<path d="M49 204.5H47V215.5H49V204.5Z" fill="#4D56DB"/>
<path d="M67.2129 208.029L67.1787 208.022L63.959 216H63.0635L59.8438 208.029L59.8096 208.036L59.9463 212.062V214.947L61.0605 215.139V216H57.4854V215.139L58.5996 214.947V207.106L57.4854 206.915V206.047H58.5996H60.3223L63.4941 214.134H63.5352L66.7002 206.047H69.5439V206.915L68.4297 207.106V214.947L69.5439 215.139V216H65.9688V215.139L67.083 214.947V212.062L67.2129 208.029ZM75.4639 216C75.4229 215.799 75.391 215.619 75.3682 215.46C75.3454 215.3 75.3294 215.141 75.3203 214.981C75.0605 215.314 74.7347 215.592 74.3428 215.815C73.9554 216.034 73.5407 216.144 73.0986 216.144C72.3285 216.144 71.7428 215.957 71.3418 215.583C70.9408 215.205 70.7402 214.674 70.7402 213.99C70.7402 213.288 71.0228 212.748 71.5879 212.37C72.1576 211.987 72.9368 211.796 73.9258 211.796H75.3135V210.935C75.3135 210.502 75.1768 210.16 74.9033 209.909C74.6299 209.654 74.2493 209.526 73.7617 209.526C73.4245 209.526 73.126 209.57 72.8662 209.656C72.611 209.743 72.4036 209.861 72.2441 210.012L72.1006 210.791H71.0615V209.355C71.3988 209.087 71.8066 208.872 72.2852 208.713C72.7637 208.549 73.2832 208.467 73.8438 208.467C74.6823 208.467 75.3613 208.681 75.8809 209.109C76.4004 209.538 76.6602 210.151 76.6602 210.948V214.51C76.6602 214.605 76.6602 214.699 76.6602 214.79C76.6647 214.881 76.6715 214.972 76.6807 215.063L77.2275 215.139V216H75.4639ZM73.2969 215.016C73.7435 215.016 74.1514 214.909 74.5205 214.694C74.8896 214.48 75.154 214.223 75.3135 213.922V212.705H73.8779C73.3265 212.705 72.889 212.833 72.5654 213.088C72.2464 213.343 72.0869 213.653 72.0869 214.018C72.0869 214.341 72.1872 214.59 72.3877 214.763C72.5882 214.931 72.8913 215.016 73.2969 215.016ZM78.1641 206.204V205.336H80.625V211.516H81.4863L83.0654 209.561L82.3887 209.472V208.604H85.4854V209.472L84.583 209.649L82.6348 211.974L85.0068 214.975L85.8477 215.139V216H82.7783V215.139L83.4688 215.05L81.5068 212.589H80.625V214.947L81.7393 215.139V216H78.1641V215.139L79.2783 214.947V206.396L78.1641 206.204ZM90.1064 216.144C89.0765 216.144 88.2562 215.802 87.6455 215.118C87.0394 214.43 86.7363 213.539 86.7363 212.445V212.145C86.7363 211.092 87.0485 210.217 87.6729 209.52C88.3018 208.818 89.0446 208.467 89.9014 208.467C90.8949 208.467 91.6468 208.768 92.1572 209.369C92.6722 209.971 92.9297 210.773 92.9297 211.775V212.616H88.1309L88.1104 212.65C88.124 213.361 88.304 213.947 88.6504 214.407C88.9967 214.863 89.4821 215.091 90.1064 215.091C90.5622 215.091 90.9609 215.027 91.3027 214.899C91.6491 214.767 91.9476 214.587 92.1982 214.359L92.7246 215.234C92.4603 215.49 92.1094 215.706 91.6719 215.884C91.2389 216.057 90.7171 216.144 90.1064 216.144ZM89.9014 209.526C89.4502 209.526 89.0651 209.718 88.7461 210.101C88.4271 210.479 88.2311 210.955 88.1582 211.529L88.1719 211.563H91.583V211.386C91.583 210.857 91.4417 210.415 91.1592 210.06C90.8766 209.704 90.4574 209.526 89.9014 209.526ZM102.575 216C102.534 215.799 102.502 215.619 102.479 215.46C102.457 215.3 102.441 215.141 102.432 214.981C102.172 215.314 101.846 215.592 101.454 215.815C101.067 216.034 100.652 216.144 100.21 216.144C99.4398 216.144 98.8542 215.957 98.4531 215.583C98.0521 215.205 97.8516 214.674 97.8516 213.99C97.8516 213.288 98.1341 212.748 98.6992 212.37C99.2689 211.987 100.048 211.796 101.037 211.796H102.425V210.935C102.425 210.502 102.288 210.16 102.015 209.909C101.741 209.654 101.361 209.526 100.873 209.526C100.536 209.526 100.237 209.57 99.9775 209.656C99.7223 209.743 99.515 209.861 99.3555 210.012L99.2119 210.791H98.1729V209.355C98.5101 209.087 98.918 208.872 99.3965 208.713C99.875 208.549 100.395 208.467 100.955 208.467C101.794 208.467 102.473 208.681 102.992 209.109C103.512 209.538 103.771 210.151 103.771 210.948V214.51C103.771 214.605 103.771 214.699 103.771 214.79C103.776 214.881 103.783 214.972 103.792 215.063L104.339 215.139V216H102.575ZM100.408 215.016C100.855 215.016 101.263 214.909 101.632 214.694C102.001 214.48 102.265 214.223 102.425 213.922V212.705H100.989C100.438 212.705 100 212.833 99.6768 213.088C99.3577 213.343 99.1982 213.653 99.1982 214.018C99.1982 214.341 99.2985 214.59 99.499 214.763C99.6995 214.931 100.003 215.016 100.408 215.016ZM112.269 215.091C112.715 215.091 113.107 214.954 113.444 214.681C113.786 214.403 113.957 214.063 113.957 213.662H115.167L115.181 213.703C115.203 214.341 114.919 214.909 114.326 215.405C113.738 215.897 113.052 216.144 112.269 216.144C111.193 216.144 110.37 215.793 109.801 215.091C109.236 214.389 108.953 213.507 108.953 212.445V212.158C108.953 211.105 109.238 210.228 109.808 209.526C110.377 208.82 111.198 208.467 112.269 208.467C112.861 208.467 113.392 208.565 113.861 208.761C114.335 208.957 114.727 209.226 115.037 209.567L115.099 211.208H114.025L113.731 210.046C113.572 209.891 113.367 209.766 113.116 209.67C112.866 209.574 112.583 209.526 112.269 209.526C111.562 209.526 111.056 209.782 110.751 210.292C110.45 210.798 110.3 211.42 110.3 212.158V212.445C110.3 213.202 110.45 213.833 110.751 214.339C111.052 214.84 111.558 215.091 112.269 215.091ZM121.319 216C121.278 215.799 121.246 215.619 121.224 215.46C121.201 215.3 121.185 215.141 121.176 214.981C120.916 215.314 120.59 215.592 120.198 215.815C119.811 216.034 119.396 216.144 118.954 216.144C118.184 216.144 117.598 215.957 117.197 215.583C116.796 215.205 116.596 214.674 116.596 213.99C116.596 213.288 116.878 212.748 117.443 212.37C118.013 211.987 118.792 211.796 119.781 211.796H121.169V210.935C121.169 210.502 121.032 210.16 120.759 209.909C120.485 209.654 120.105 209.526 119.617 209.526C119.28 209.526 118.981 209.57 118.722 209.656C118.466 209.743 118.259 209.861 118.1 210.012L117.956 210.791H116.917V209.355C117.254 209.087 117.662 208.872 118.141 208.713C118.619 208.549 119.139 208.467 119.699 208.467C120.538 208.467 121.217 208.681 121.736 209.109C122.256 209.538 122.516 210.151 122.516 210.948V214.51C122.516 214.605 122.516 214.699 122.516 214.79C122.52 214.881 122.527 214.972 122.536 215.063L123.083 215.139V216H121.319ZM119.152 215.016C119.599 215.016 120.007 214.909 120.376 214.694C120.745 214.48 121.009 214.223 121.169 213.922V212.705H119.733C119.182 212.705 118.744 212.833 118.421 213.088C118.102 213.343 117.942 213.653 117.942 214.018C117.942 214.341 118.043 214.59 118.243 214.763C118.444 214.931 118.747 215.016 119.152 215.016ZM129.864 210.928H128.853L128.634 210.039C128.47 209.884 128.262 209.761 128.012 209.67C127.766 209.574 127.485 209.526 127.171 209.526C126.692 209.526 126.337 209.631 126.104 209.841C125.872 210.05 125.756 210.303 125.756 210.6C125.756 210.891 125.858 211.121 126.063 211.29C126.269 211.459 126.686 211.609 127.314 211.741C128.249 211.942 128.944 212.215 129.399 212.562C129.855 212.903 130.083 213.364 130.083 213.942C130.083 214.599 129.816 215.13 129.283 215.535C128.755 215.941 128.062 216.144 127.205 216.144C126.645 216.144 126.141 216.08 125.694 215.952C125.248 215.82 124.849 215.631 124.498 215.385L124.491 213.696H125.503L125.756 214.688C125.911 214.829 126.12 214.931 126.385 214.995C126.654 215.059 126.927 215.091 127.205 215.091C127.684 215.091 128.057 214.995 128.326 214.804C128.6 214.608 128.736 214.353 128.736 214.038C128.736 213.742 128.622 213.498 128.395 213.307C128.171 213.115 127.745 212.949 127.116 212.808C126.218 212.612 125.542 212.345 125.086 212.008C124.63 211.671 124.402 211.215 124.402 210.641C124.402 210.039 124.658 209.526 125.168 209.103C125.683 208.679 126.351 208.467 127.171 208.467C127.731 208.467 128.235 208.54 128.682 208.686C129.128 208.831 129.5 209.034 129.796 209.294L129.864 210.928ZM134.718 216.144C133.688 216.144 132.868 215.802 132.257 215.118C131.651 214.43 131.348 213.539 131.348 212.445V212.145C131.348 211.092 131.66 210.217 132.284 209.52C132.913 208.818 133.656 208.467 134.513 208.467C135.506 208.467 136.258 208.768 136.769 209.369C137.284 209.971 137.541 210.773 137.541 211.775V212.616H132.742L132.722 212.65C132.735 213.361 132.915 213.947 133.262 214.407C133.608 214.863 134.093 215.091 134.718 215.091C135.174 215.091 135.572 215.027 135.914 214.899C136.26 214.767 136.559 214.587 136.81 214.359L137.336 215.234C137.072 215.49 136.721 215.706 136.283 215.884C135.85 216.057 135.328 216.144 134.718 216.144ZM134.513 209.526C134.062 209.526 133.676 209.718 133.357 210.101C133.038 210.479 132.842 210.955 132.77 211.529L132.783 211.563H136.194V211.386C136.194 210.857 136.053 210.415 135.771 210.06C135.488 209.704 135.069 209.526 134.513 209.526ZM142.23 209.602V208.604H143.386V207.667C143.386 206.879 143.591 206.27 144.001 205.842C144.416 205.409 144.992 205.192 145.73 205.192C145.885 205.192 146.04 205.206 146.195 205.233C146.355 205.256 146.53 205.29 146.722 205.336L146.558 206.361C146.476 206.343 146.375 206.327 146.257 206.313C146.143 206.3 146.024 206.293 145.901 206.293C145.505 206.293 145.211 206.411 145.02 206.648C144.828 206.881 144.732 207.22 144.732 207.667V208.604H146.277V209.602H144.732V214.947L145.847 215.139V216H142.271V215.139L143.386 214.947V209.602H142.23ZM147.344 212.233C147.344 211.14 147.64 210.24 148.232 209.533C148.825 208.822 149.629 208.467 150.646 208.467C151.666 208.467 152.473 208.82 153.065 209.526C153.662 210.233 153.961 211.135 153.961 212.233V212.384C153.961 213.487 153.665 214.389 153.072 215.091C152.48 215.793 151.675 216.144 150.659 216.144C149.634 216.144 148.825 215.793 148.232 215.091C147.64 214.384 147.344 213.482 147.344 212.384V212.233ZM148.69 212.384C148.69 213.168 148.854 213.815 149.183 214.325C149.515 214.836 150.007 215.091 150.659 215.091C151.297 215.091 151.783 214.836 152.115 214.325C152.448 213.815 152.614 213.168 152.614 212.384V212.233C152.614 211.459 152.448 210.814 152.115 210.299C151.783 209.784 151.293 209.526 150.646 209.526C149.998 209.526 149.511 209.784 149.183 210.299C148.854 210.814 148.69 211.459 148.69 212.233V212.384ZM155.198 209.472V208.604H157.516L157.646 209.677C157.855 209.299 158.113 209.002 158.418 208.788C158.728 208.574 159.081 208.467 159.478 208.467C159.582 208.467 159.689 208.476 159.799 208.494C159.913 208.508 159.999 208.524 160.059 208.542L159.881 209.793L159.115 209.752C158.76 209.752 158.461 209.836 158.22 210.005C157.978 210.169 157.791 210.401 157.659 210.702V214.947L158.773 215.139V216H155.198V215.139L156.312 214.947V209.663L155.198 209.472ZM166.833 206.819V208.604H168.234V209.602H166.833V214.093C166.833 214.439 166.904 214.683 167.045 214.824C167.191 214.965 167.382 215.036 167.619 215.036C167.738 215.036 167.87 215.027 168.016 215.009C168.166 214.986 168.291 214.963 168.392 214.94L168.576 215.863C168.449 215.945 168.262 216.011 168.016 216.062C167.77 216.116 167.523 216.144 167.277 216.144C166.73 216.144 166.295 215.979 165.972 215.651C165.648 215.319 165.486 214.799 165.486 214.093V209.602H164.317V208.604H165.486V206.819H166.833ZM169.424 215.139L170.538 214.947V206.396L169.424 206.204V205.336H171.885V209.588C172.14 209.232 172.452 208.957 172.821 208.761C173.19 208.565 173.601 208.467 174.052 208.467C174.845 208.467 175.46 208.704 175.897 209.178C176.335 209.652 176.554 210.381 176.554 211.365V214.947L177.668 215.139V216H174.093V215.139L175.207 214.947V211.352C175.207 210.741 175.075 210.29 174.811 209.998C174.551 209.706 174.161 209.561 173.642 209.561C173.272 209.561 172.935 209.649 172.63 209.827C172.329 210 172.081 210.237 171.885 210.538V214.947L172.999 215.139V216H169.424V215.139ZM181.954 216.144C180.924 216.144 180.104 215.802 179.493 215.118C178.887 214.43 178.584 213.539 178.584 212.445V212.145C178.584 211.092 178.896 210.217 179.521 209.52C180.149 208.818 180.892 208.467 181.749 208.467C182.743 208.467 183.494 208.768 184.005 209.369C184.52 209.971 184.777 210.773 184.777 211.775V212.616H179.979L179.958 212.65C179.972 213.361 180.152 213.947 180.498 214.407C180.844 214.863 181.33 215.091 181.954 215.091C182.41 215.091 182.809 215.027 183.15 214.899C183.497 214.767 183.795 214.587 184.046 214.359L184.572 215.234C184.308 215.49 183.957 215.706 183.52 215.884C183.087 216.057 182.565 216.144 181.954 216.144ZM181.749 209.526C181.298 209.526 180.913 209.718 180.594 210.101C180.275 210.479 180.079 210.955 180.006 211.529L180.02 211.563H183.431V211.386C183.431 210.857 183.289 210.415 183.007 210.06C182.724 209.704 182.305 209.526 181.749 209.526ZM194.58 215.118C194.339 215.455 194.042 215.711 193.691 215.884C193.345 216.057 192.942 216.144 192.481 216.144C191.579 216.144 190.873 215.818 190.362 215.166C189.856 214.51 189.604 213.648 189.604 212.582V212.438C189.604 211.249 189.856 210.29 190.362 209.561C190.873 208.831 191.584 208.467 192.495 208.467C192.933 208.467 193.318 208.549 193.65 208.713C193.988 208.872 194.275 209.105 194.512 209.41V206.396L193.397 206.204V205.336H194.512H195.858V214.947L196.973 215.139V216H194.689L194.58 215.118ZM190.95 212.582C190.95 213.325 191.103 213.922 191.408 214.373C191.714 214.824 192.185 215.05 192.823 215.05C193.224 215.05 193.562 214.959 193.835 214.776C194.108 214.594 194.334 214.337 194.512 214.004V210.572C194.339 210.262 194.113 210.016 193.835 209.834C193.557 209.652 193.224 209.561 192.837 209.561C192.194 209.561 191.718 209.827 191.408 210.36C191.103 210.894 190.95 211.586 190.95 212.438V212.582ZM198.005 215.139L199.119 214.947V209.663L198.005 209.472V208.604H200.466V214.947L201.58 215.139V216H198.005V215.139ZM200.466 206.71H199.119V205.336H200.466V206.71ZM202.612 209.472V208.604H204.93L205.06 209.677C205.269 209.299 205.527 209.002 205.832 208.788C206.142 208.574 206.495 208.467 206.892 208.467C206.996 208.467 207.104 208.476 207.213 208.494C207.327 208.508 207.413 208.524 207.473 208.542L207.295 209.793L206.529 209.752C206.174 209.752 205.875 209.836 205.634 210.005C205.392 210.169 205.205 210.401 205.073 210.702V214.947L206.188 215.139V216H202.612V215.139L203.727 214.947V209.663L202.612 209.472ZM211.649 216.144C210.619 216.144 209.799 215.802 209.188 215.118C208.582 214.43 208.279 213.539 208.279 212.445V212.145C208.279 211.092 208.591 210.217 209.216 209.52C209.845 208.818 210.588 208.467 211.444 208.467C212.438 208.467 213.19 208.768 213.7 209.369C214.215 209.971 214.473 210.773 214.473 211.775V212.616H209.674L209.653 212.65C209.667 213.361 209.847 213.947 210.193 214.407C210.54 214.863 211.025 215.091 211.649 215.091C212.105 215.091 212.504 215.027 212.846 214.899C213.192 214.767 213.491 214.587 213.741 214.359L214.268 215.234C214.003 215.49 213.652 215.706 213.215 215.884C212.782 216.057 212.26 216.144 211.649 216.144ZM211.444 209.526C210.993 209.526 210.608 209.718 210.289 210.101C209.97 210.479 209.774 210.955 209.701 211.529L209.715 211.563H213.126V211.386C213.126 210.857 212.985 210.415 212.702 210.06C212.42 209.704 212 209.526 211.444 209.526ZM219.128 215.091C219.575 215.091 219.966 214.954 220.304 214.681C220.646 214.403 220.816 214.063 220.816 213.662H222.026L222.04 213.703C222.063 214.341 221.778 214.909 221.186 215.405C220.598 215.897 219.912 216.144 219.128 216.144C218.052 216.144 217.23 215.793 216.66 215.091C216.095 214.389 215.812 213.507 215.812 212.445V212.158C215.812 211.105 216.097 210.228 216.667 209.526C217.237 208.82 218.057 208.467 219.128 208.467C219.72 208.467 220.251 208.565 220.721 208.761C221.195 208.957 221.587 209.226 221.896 209.567L221.958 211.208H220.885L220.591 210.046C220.431 209.891 220.226 209.766 219.976 209.67C219.725 209.574 219.442 209.526 219.128 209.526C218.422 209.526 217.916 209.782 217.61 210.292C217.31 210.798 217.159 211.42 217.159 212.158V212.445C217.159 213.202 217.31 213.833 217.61 214.339C217.911 214.84 218.417 215.091 219.128 215.091ZM225.704 206.819V208.604H227.105V209.602H225.704V214.093C225.704 214.439 225.775 214.683 225.916 214.824C226.062 214.965 226.253 215.036 226.49 215.036C226.609 215.036 226.741 215.027 226.887 215.009C227.037 214.986 227.162 214.963 227.263 214.94L227.447 215.863C227.32 215.945 227.133 216.011 226.887 216.062C226.641 216.116 226.395 216.144 226.148 216.144C225.602 216.144 225.166 215.979 224.843 215.651C224.519 215.319 224.357 214.799 224.357 214.093V209.602H223.188V208.604H224.357V206.819H225.704ZM228.479 215.139L229.594 214.947V209.663L228.479 209.472V208.604H230.94V214.947L232.055 215.139V216H228.479V215.139ZM230.94 206.71H229.594V205.336H230.94V206.71ZM233.094 212.233C233.094 211.14 233.39 210.24 233.982 209.533C234.575 208.822 235.379 208.467 236.396 208.467C237.416 208.467 238.223 208.82 238.815 209.526C239.412 210.233 239.711 211.135 239.711 212.233V212.384C239.711 213.487 239.415 214.389 238.822 215.091C238.23 215.793 237.425 216.144 236.409 216.144C235.384 216.144 234.575 215.793 233.982 215.091C233.39 214.384 233.094 213.482 233.094 212.384V212.233ZM234.44 212.384C234.44 213.168 234.604 213.815 234.933 214.325C235.265 214.836 235.757 215.091 236.409 215.091C237.047 215.091 237.533 214.836 237.865 214.325C238.198 213.815 238.364 213.168 238.364 212.384V212.233C238.364 211.459 238.198 210.814 237.865 210.299C237.533 209.784 237.043 209.526 236.396 209.526C235.748 209.526 235.261 209.784 234.933 210.299C234.604 210.814 234.44 211.459 234.44 212.233V212.384ZM240.75 215.139L241.864 214.947V209.663L240.75 209.472V208.604H243.067L243.163 209.704C243.409 209.312 243.717 209.009 244.086 208.795C244.46 208.576 244.883 208.467 245.357 208.467C246.155 208.467 246.772 208.701 247.21 209.171C247.647 209.636 247.866 210.356 247.866 211.331V214.947L248.98 215.139V216H245.405V215.139L246.52 214.947V211.358C246.52 210.707 246.39 210.244 246.13 209.971C245.875 209.697 245.483 209.561 244.954 209.561C244.567 209.561 244.223 209.654 243.922 209.841C243.626 210.028 243.389 210.283 243.211 210.606V214.947L244.325 215.139V216H240.75V215.139ZM260.472 209.472L259.809 209.574L256.992 217.135C256.805 217.632 256.536 218.064 256.186 218.434C255.835 218.803 255.363 218.987 254.771 218.987C254.666 218.987 254.529 218.974 254.36 218.946C254.192 218.924 254.062 218.901 253.971 218.878L254.107 217.818C254.08 217.814 254.16 217.818 254.347 217.832C254.538 217.846 254.659 217.853 254.709 217.853C254.996 217.853 255.229 217.727 255.406 217.477C255.584 217.23 255.739 216.946 255.871 216.622L256.192 215.856L253.752 209.581L253.075 209.472V208.604H256.062V209.472L255.229 209.608L256.507 213.259L256.753 214.202H256.794L258.332 209.608L257.491 209.472V208.604H260.472V209.472ZM261.285 212.233C261.285 211.14 261.581 210.24 262.174 209.533C262.766 208.822 263.571 208.467 264.587 208.467C265.608 208.467 266.414 208.82 267.007 209.526C267.604 210.233 267.902 211.135 267.902 212.233V212.384C267.902 213.487 267.606 214.389 267.014 215.091C266.421 215.793 265.617 216.144 264.601 216.144C263.575 216.144 262.766 215.793 262.174 215.091C261.581 214.384 261.285 213.482 261.285 212.384V212.233ZM262.632 212.384C262.632 213.168 262.796 213.815 263.124 214.325C263.457 214.836 263.949 215.091 264.601 215.091C265.239 215.091 265.724 214.836 266.057 214.325C266.389 213.815 266.556 213.168 266.556 212.384V212.233C266.556 211.459 266.389 210.814 266.057 210.299C265.724 209.784 265.234 209.526 264.587 209.526C263.94 209.526 263.452 209.784 263.124 210.299C262.796 210.814 262.632 211.459 262.632 212.233V212.384ZM274.431 214.906C274.198 215.303 273.897 215.608 273.528 215.822C273.164 216.036 272.742 216.144 272.264 216.144C271.462 216.144 270.835 215.886 270.384 215.371C269.933 214.856 269.707 214.054 269.707 212.965V209.663L268.859 209.472V208.604H269.707H271.054V212.979C271.054 213.767 271.17 214.309 271.402 214.605C271.635 214.902 271.997 215.05 272.489 215.05C272.968 215.05 273.362 214.954 273.672 214.763C273.986 214.567 274.223 214.291 274.383 213.936V209.663L273.392 209.472V208.604H274.383H275.729V214.947L276.577 215.139V216H274.52L274.431 214.906ZM279.25 206.86L278.833 208.788H278.17V205.336H279.25V206.86ZM280.788 209.472V208.604H283.105L283.235 209.677C283.445 209.299 283.702 209.002 284.008 208.788C284.318 208.574 284.671 208.467 285.067 208.467C285.172 208.467 285.279 208.476 285.389 208.494C285.503 208.508 285.589 208.524 285.648 208.542L285.471 209.793L284.705 209.752C284.35 209.752 284.051 209.836 283.81 210.005C283.568 210.169 283.381 210.401 283.249 210.702V214.947L284.363 215.139V216H280.788V215.139L281.902 214.947V209.663L280.788 209.472ZM289.825 216.144C288.795 216.144 287.975 215.802 287.364 215.118C286.758 214.43 286.455 213.539 286.455 212.445V212.145C286.455 211.092 286.767 210.217 287.392 209.52C288.021 208.818 288.763 208.467 289.62 208.467C290.614 208.467 291.366 208.768 291.876 209.369C292.391 209.971 292.648 210.773 292.648 211.775V212.616H287.85L287.829 212.65C287.843 213.361 288.023 213.947 288.369 214.407C288.715 214.863 289.201 215.091 289.825 215.091C290.281 215.091 290.68 215.027 291.021 214.899C291.368 214.767 291.666 214.587 291.917 214.359L292.443 215.234C292.179 215.49 291.828 215.706 291.391 215.884C290.958 216.057 290.436 216.144 289.825 216.144ZM289.62 209.526C289.169 209.526 288.784 209.718 288.465 210.101C288.146 210.479 287.95 210.955 287.877 211.529L287.891 211.563H291.302V211.386C291.302 210.857 291.16 210.415 290.878 210.06C290.595 209.704 290.176 209.526 289.62 209.526ZM295.711 216H294.364V214.619H295.711V216ZM299.088 216H297.741V214.619H299.088V216ZM302.465 216H301.118V214.619H302.465V216Z" fill="#666666"/>
<rect x="13.5" y="182.5" width="305" height="56" rx="2.5" stroke="#FBFBFB"/>
</g>
<defs>
<filter id="filter0_d" x="0" y="19" width="304" height="83" filterUnits="userSpaceOnUse" color-interpolation-filters="sRGB">
<feFlood flood-opacity="0" result="BackgroundImageFix"/>
<feColorMatrix in="SourceAlpha" type="matrix" values="0 0 0 0 0 0 0 0 0 0 0 0 0 0 0 0 0 0 127 0"/>
<feOffset dy="5"/>
<feGaussianBlur stdDeviation="6.5"/>
<feColorMatrix type="matrix" values="0 0 0 0 0.133333 0 0 0 0 0.133333 0 0 0 0 0.133333 0 0 0 0.07 0"/>
<feBlend mode="normal" in2="BackgroundImageFix" result="effect1_dropShadow"/>
<feBlend mode="normal" in="SourceGraphic" in2="effect1_dropShadow" result="shape"/>
</filter>
<filter id="filter1_d" x="0" y="96" width="309" height="83" filterUnits="userSpaceOnUse" color-interpolation-filters="sRGB">
<feFlood flood-opacity="0" result="BackgroundImageFix"/>
<feColorMatrix in="SourceAlpha" type="matrix" values="0 0 0 0 0 0 0 0 0 0 0 0 0 0 0 0 0 0 127 0"/>
<feOffset dy="5"/>
<feGaussianBlur stdDeviation="6.5"/>
<feColorMatrix type="matrix" values="0 0 0 0 0.133333 0 0 0 0 0.133333 0 0 0 0 0.133333 0 0 0 0.07 0"/>
<feBlend mode="normal" in2="BackgroundImageFix" result="effect1_dropShadow"/>
<feBlend mode="normal" in="SourceGraphic" in2="effect1_dropShadow" result="shape"/>
</filter>
<filter id="filter2_d" x="0" y="174" width="332" height="83" filterUnits="userSpaceOnUse" color-interpolation-filters="sRGB">
<feFlood flood-opacity="0" result="BackgroundImageFix"/>
<feColorMatrix in="SourceAlpha" type="matrix" values="0 0 0 0 0 0 0 0 0 0 0 0 0 0 0 0 0 0 127 0"/>
<feOffset dy="5"/>
<feGaussianBlur stdDeviation="6.5"/>
<feColorMatrix type="matrix" values="0 0 0 0 0.133333 0 0 0 0 0.133333 0 0 0 0 0.133333 0 0 0 0.07 0"/>
<feBlend mode="normal" in2="BackgroundImageFix" result="effect1_dropShadow"/>
<feBlend mode="normal" in="SourceGraphic" in2="effect1_dropShadow" result="shape"/>
</filter>
</defs>
</svg>
